<svg viewBox="0 0 541 400" xmlns="http://www.w3.org/2000/svg"><g><g><g><g><g><line x1="50" y1="378" x2="45" y2="378" style="visibility: inherit;" fill="rgb(0, 0, 0)" stroke="rgb(204, 204, 204)" stroke-width="1px"></line><line x1="50" y1="330.7500000000002" x2="45" y2="330.7500000000002" style="visibility: inherit;" fill="rgb(0, 0, 0)" stroke="rgb(204, 204, 204)" stroke-width="1px"></line><line x1="50" y1="283.5000000000001" x2="45" y2="283.5000000000001" style="visibility: inherit;" fill="rgb(0, 0, 0)" stroke="rgb(204, 204, 204)" stroke-width="1px"></line><line x1="50" y1="236.25000000000009" x2="45" y2="236.25000000000009" style="visibility: inherit;" fill="rgb(0, 0, 0)" stroke="rgb(204, 204, 204)" stroke-width="1px"></line><line x1="50" y1="189" x2="45" y2="189" style="visibility: inherit;" fill="rgb(0, 0, 0)" stroke="rgb(204, 204, 204)" stroke-width="1px"></line><line x1="50" y1="141.74999999999991" x2="45" y2="141.74999999999991" style="visibility: inherit;" fill="rgb(0, 0, 0)" stroke="rgb(204, 204, 204)" stroke-width="1px"></line><line x1="50" y1="94.49999999999987" x2="45" y2="94.49999999999987" style="visibility: inherit;" fill="rgb(0, 0, 0)" stroke="rgb(204, 204, 204)" stroke-width="1px"></line><line x1="50" y1="47.250000000000085" x2="45" y2="47.250000000000085" style="visibility: inherit;" fill="rgb(0, 0, 0)" stroke="rgb(204, 204, 204)" stroke-width="1px"></line><line x1="50" y1="0" x2="45" y2="0" style="visibility: inherit;" fill="rgb(0, 0, 0)" stroke="rgb(204, 204, 204)" stroke-width="1px"></line></g><g transform="translate(40, 0)"><text x="0" y="378" dx="0em" dy="0.3em" style="text-anchor: end; visibility: hidden; font-family: Roboto, sans-serif; font-size: 12px; font-weight: 200;" fill="rgb(50, 49, 63)" stroke="none" stroke-width="1px">0.8</text><text x="0" y="330.7500000000002" dx="0em" dy="0.3em" style="text-anchor: end; visibility: inherit; font-family: Roboto, sans-serif; font-size: 12px; font-weight: 200;" fill="rgb(50, 49, 63)" stroke="none" stroke-width="1px">0.82</text><text x="0" y="283.5000000000001" dx="0em" dy="0.3em" style="text-anchor: end; visibility: inherit; font-family: Roboto, sans-serif; font-size: 12px; font-weight: 200;" fill="rgb(50, 49, 63)" stroke="none" stroke-width="1px">0.84</text><text x="0" y="236.25000000000009" dx="0em" dy="0.3em" style="text-anchor: end; visibility: inherit; font-family: Roboto, sans-serif; font-size: 12px; font-weight: 200;" fill="rgb(50, 49, 63)" stroke="none" stroke-width="1px">0.86</text><text x="0" y="189" dx="0em" dy="0.3em" style="text-anchor: end; visibility: inherit; font-family: Roboto, sans-serif; font-size: 12px; font-weight: 200;" fill="rgb(50, 49, 63)" stroke="none" stroke-width="1px">0.88</text><text x="0" y="141.74999999999991" dx="0em" dy="0.3em" style="text-anchor: end; visibility: inherit; font-family: Roboto, sans-serif; font-size: 12px; font-weight: 200;" fill="rgb(50, 49, 63)" stroke="none" stroke-width="1px">0.9</text><text x="0" y="94.49999999999987" dx="0em" dy="0.3em" style="text-anchor: end; visibility: inherit; font-family: Roboto, sans-serif; font-size: 12px; font-weight: 200;" fill="rgb(50, 49, 63)" stroke="none" stroke-width="1px">0.92</text><text x="0" y="47.250000000000085" dx="0em" dy="0.3em" style="text-anchor: end; visibility: inherit; font-family: Roboto, sans-serif; font-size: 12px; font-weight: 200;" fill="rgb(50, 49, 63)" stroke="none" stroke-width="1px">0.94</text><text x="0" y="0" dx="0em" dy="0.3em" style="text-anchor: end; visibility: hidden; font-family: Roboto, sans-serif; font-size: 12px; font-weight: 200;" fill="rgb(50, 49, 63)" stroke="none" stroke-width="1px">0.96</text></g><line x1="50" y1="0" x2="50" y2="378" fill="rgb(0, 0, 0)" stroke="rgb(204, 204, 204)" stroke-width="1px"></line></g></g><g transform="translate(50, 0)" clip-path="url(#clip_0)"><clipPath id="clip_0"><rect width="491" height="378"></rect></clipPath><g><g><g><line x1="0" y1="0" x2="0" y2="378" fill="rgb(0, 0, 0)" stroke="rgb(60, 60, 60)" stroke-width="1px" opacity="0.25"></line><line x1="40.916666666666664" y1="0" x2="40.916666666666664" y2="378" fill="rgb(0, 0, 0)" stroke="rgb(60, 60, 60)" stroke-width="1px" opacity="0.25"></line><line x1="81.83333333333333" y1="0" x2="81.83333333333333" y2="378" fill="rgb(0, 0, 0)" stroke="rgb(60, 60, 60)" stroke-width="1px" opacity="0.25"></line><line x1="122.75" y1="0" x2="122.75" y2="378" fill="rgb(0, 0, 0)" stroke="rgb(60, 60, 60)" stroke-width="1px" opacity="0.25"></line><line x1="163.66666666666666" y1="0" x2="163.66666666666666" y2="378" fill="rgb(0, 0, 0)" stroke="rgb(60, 60, 60)" stroke-width="1px" opacity="0.25"></line><line x1="204.58333333333334" y1="0" x2="204.58333333333334" y2="378" fill="rgb(0, 0, 0)" stroke="rgb(60, 60, 60)" stroke-width="1px" opacity="0.25"></line><line x1="245.5" y1="0" x2="245.5" y2="378" fill="rgb(0, 0, 0)" stroke="rgb(60, 60, 60)" stroke-width="1px" opacity="0.25"></line><line x1="286.4166666666667" y1="0" x2="286.4166666666667" y2="378" fill="rgb(0, 0, 0)" stroke="rgb(60, 60, 60)" stroke-width="1px" opacity="0.25"></line><line x1="327.3333333333333" y1="0" x2="327.3333333333333" y2="378" fill="rgb(0, 0, 0)" stroke="rgb(60, 60, 60)" stroke-width="1px" opacity="0.25"></line><line x1="368.25" y1="0" x2="368.25" y2="378" fill="rgb(0, 0, 0)" stroke="rgb(60, 60, 60)" stroke-width="1px" opacity="0.25"></line><line x1="409.1666666666667" y1="0" x2="409.1666666666667" y2="378" fill="rgb(0, 0, 0)" stroke="rgb(60, 60, 60)" stroke-width="1px" opacity="0.25"></line><line x1="450.0833333333333" y1="0" x2="450.0833333333333" y2="378" fill="rgb(0, 0, 0)" stroke="rgb(60, 60, 60)" stroke-width="1px" opacity="0.25"></line><line x1="491" y1="0" x2="491" y2="378" fill="rgb(0, 0, 0)" stroke="rgb(60, 60, 60)" stroke-width="1px" opacity="0.25"></line></g><g><line x1="0" y1="378" x2="491" y2="378" fill="rgb(0, 0, 0)" stroke="rgb(60, 60, 60)" stroke-width="1px" opacity="0.25"></line><line x1="0" y1="330.7500000000002" x2="491" y2="330.7500000000002" fill="rgb(0, 0, 0)" stroke="rgb(60, 60, 60)" stroke-width="1px" opacity="0.25"></line><line x1="0" y1="283.5000000000001" x2="491" y2="283.5000000000001" fill="rgb(0, 0, 0)" stroke="rgb(60, 60, 60)" stroke-width="1px" opacity="0.25"></line><line x1="0" y1="236.25000000000009" x2="491" y2="236.25000000000009" fill="rgb(0, 0, 0)" stroke="rgb(60, 60, 60)" stroke-width="1px" opacity="0.25"></line><line x1="0" y1="189" x2="491" y2="189" fill="rgb(0, 0, 0)" stroke="rgb(60, 60, 60)" stroke-width="1px" opacity="0.25"></line><line x1="0" y1="141.74999999999991" x2="491" y2="141.74999999999991" fill="rgb(0, 0, 0)" stroke="rgb(60, 60, 60)" stroke-width="1px" opacity="0.25"></line><line x1="0" y1="94.49999999999987" x2="491" y2="94.49999999999987" fill="rgb(0, 0, 0)" stroke="rgb(60, 60, 60)" stroke-width="1px" opacity="0.25"></line><line x1="0" y1="47.250000000000085" x2="491" y2="47.250000000000085" fill="rgb(0, 0, 0)" stroke="rgb(60, 60, 60)" stroke-width="1px" opacity="0.25"></line><line x1="0" y1="0" x2="491" y2="0" fill="rgb(0, 0, 0)" stroke="rgb(60, 60, 60)" stroke-width="1px" opacity="0.25"></line></g></g></g><g><g><line x1="0" y1="2268.000000000001" x2="491" y2="2268.000000000001" fill="rgb(0, 0, 0)" stroke="rgb(153, 153, 153)" stroke-width="1.5px"></line></g></g><g><g><line x1="40.916666666666664" y1="0" x2="40.916666666666664" y2="378" fill="rgb(0, 0, 0)" stroke="rgb(153, 153, 153)" stroke-width="1.5px"></line></g></g><g><g><g><g><g><path stroke="rgb(0, 119, 187)" stroke-width="2px" d="M40.916666666666664,397.4344067573548L49.1,351.2776062190533L57.28333333333333,311.8013970851899L65.46666666666667,297.8328749835492L73.64999999999999,295.4036586284638L81.83333333333333,277.7911007702351L90.01666666666667,278.3984400629998L98.2,266.2519358396531L106.38333333333334,262.0007016062737L114.56666666666666,258.9640051424504L122.75,271.1105093657971L130.93333333333334,266.2519358396531L139.11666666666667,269.8958307802678L147.29999999999998,269.8958307802678L155.48333333333332,269.2884914875031L163.66666666666666,270.50317007303244L171.85,262.6079000830651L180.03333333333333,262.0007016062737L188.21666666666667,263.8225786685944L196.4,262.6079000830651L204.58333333333334,262.6079000830651L212.76666666666668,263.8225786685944L220.95000000000002,263.8225786685944L229.13333333333333,263.8225786685944L237.31666666666666,263.8225786685944L245.5,263.21523937582975L253.68333333333337,262.0007016062737L261.8666666666667,262.6079000830651L270.05,262.6079000830651L278.23333333333335,262.6079000830651L286.4166666666667,262.6079000830651L294.59999999999997,262.6079000830651L302.78333333333336,263.21523937582975L310.96666666666664,263.21523937582975L319.15000000000003,263.21523937582975L327.3333333333333,263.21523937582975L335.51666666666665,263.21523937582975L343.7,263.21523937582975L351.8833333333333,263.21523937582975L360.06666666666666,263.21523937582975L368.25,263.21523937582975L376.43333333333334,263.21523937582975L384.6166666666667,263.21523937582975L392.8,263.21523937582975L400.98333333333335,263.21523937582975L409.1666666666667,263.21523937582975L417.34999999999997,263.21523937582975L425.53333333333336,263.21523937582975L433.71666666666664,263.21523937582975L441.90000000000003,263.21523937582975" style="fill: none;" fill="none"></path></g><g><path stroke="rgb(51, 187, 238)" stroke-width="2px" d="M40.916666666666664,316.05263131856924L49.1,305.7281449735165L57.28333333333333,275.36188441514975L65.46666666666667,268.6812930107117L73.64999999999999,257.1419872641564L81.83333333333333,243.78080445528033L90.01666666666667,244.388143748045L98.2,240.7442488074303L106.38333333333334,235.885534465313L114.56666666666666,229.8122823536396L122.75,231.02696093916896L130.93333333333334,231.02696093916896L139.11666666666667,231.02696093916896L147.29999999999998,225.56104812026024L155.48333333333332,227.9904052913189L163.66666666666666,227.38306599855423L171.85,226.77572670578957L180.03333333333333,226.1683874130249L188.21666666666667,226.1683874130249L196.4,227.9904052913189L204.58333333333334,228.59774458408356L212.76666666666668,227.9904052913189L220.95000000000002,229.20494306087494L229.13333333333333,229.8122823536396L237.31666666666666,229.8122823536396L245.5,229.8122823536396L253.68333333333337,229.20494306087494L261.8666666666667,229.20494306087494L270.05,229.20494306087494L278.23333333333335,229.20494306087494L286.4166666666667,229.20494306087494L294.59999999999997,229.20494306087494L302.78333333333336,229.20494306087494L310.96666666666664,229.20494306087494L319.15000000000003,229.20494306087494L327.3333333333333,229.20494306087494L335.51666666666665,229.20494306087494L343.7,229.20494306087494L351.8833333333333,229.20494306087494L360.06666666666666,229.20494306087494L368.25,229.20494306087494L376.43333333333334,229.20494306087494L384.6166666666667,229.20494306087494L392.8,229.20494306087494L400.98333333333335,229.20494306087494L409.1666666666667,229.20494306087494L417.34999999999997,229.20494306087494L425.53333333333336,229.20494306087494L433.71666666666664,229.20494306087494L441.90000000000003,229.20494306087494" style="fill: none;" fill="none"></path></g><g><path stroke="rgb(0, 153, 136)" stroke-width="2px" d="M40.916666666666664,348.2410505712033L49.1,298.44021427631384L57.28333333333333,282.64967429637915L65.46666666666667,263.8225786685944L73.64999999999999,275.36188441514975L81.83333333333333,249.8540565669537L90.01666666666667,239.52957022190097L98.2,237.70755234360698L106.38333333333334,237.1002130508423L114.56666666666666,231.63430023193362L122.75,229.20494306087494L130.93333333333334,229.20494306087494L139.11666666666667,229.8122823536396L147.29999999999998,227.9904052913189L155.48333333333332,224.3463695347309L163.66666666666666,224.95370882749557L171.85,225.56104812026024L180.03333333333333,226.1683874130249L188.21666666666667,222.52435165643692L196.4,221.91715317964554L204.58333333333334,221.91715317964554L212.76666666666668,220.7024745941162L220.95000000000002,223.13169094920158L229.13333333333333,223.13169094920158L237.31666666666666,223.73903024196625L245.5,223.73903024196625L253.68333333333337,223.73903024196625L261.8666666666667,223.13169094920158L270.05,223.13169094920158L278.23333333333335,222.52435165643692L286.4166666666667,222.52435165643692L294.59999999999997,222.52435165643692L302.78333333333336,222.52435165643692L310.96666666666664,222.52435165643692L319.15000000000003,222.52435165643692L327.3333333333333,222.52435165643692L335.51666666666665,222.52435165643692L343.7,222.52435165643692L351.8833333333333,222.52435165643692L360.06666666666666,222.52435165643692L368.25,221.91715317964554L376.43333333333334,221.91715317964554L384.6166666666667,221.91715317964554L392.8,221.91715317964554L400.98333333333335,221.91715317964554L409.1666666666667,221.91715317964554L417.34999999999997,221.91715317964554L425.53333333333336,221.91715317964554L433.71666666666664,221.91715317964554L441.90000000000003,221.91715317964554" style="fill: none;" fill="none"></path></g><g><path stroke="rgb(255, 112, 67)" stroke-width="2px" d="M40.916666666666664,308.76484143733984L49.1,297.2255356907845L57.28333333333333,254.712770909071L65.46666666666667,249.8540565669537L73.64999999999999,252.28341373801234L81.83333333333333,244.99548304080966L90.01666666666667,220.09513530135155L98.2,220.7024745941162L106.38333333333334,220.09513530135155L114.56666666666666,215.8437602519989L122.75,212.80720460414886L130.93333333333334,214.0218831896782L139.11666666666667,214.0218831896782L147.29999999999998,214.0218831896782L155.48333333333332,209.16316884756088L163.66666666666666,208.5559703707695L171.85,207.34129178524017L180.03333333333333,207.34129178524017L188.21666666666667,207.94863107800484L196.4,207.94863107800484L204.58333333333334,206.7339524924755L212.76666666666668,207.94863107800484L220.95000000000002,207.94863107800484L229.13333333333333,207.94863107800484L237.31666666666666,207.94863107800484L245.5,207.94863107800484L253.68333333333337,207.94863107800484L261.8666666666667,207.94863107800484L270.05,207.94863107800484L278.23333333333335,207.94863107800484L286.4166666666667,207.94863107800484L294.59999999999997,207.94863107800484L302.78333333333336,207.94863107800484L310.96666666666664,207.94863107800484L319.15000000000003,207.94863107800484L327.3333333333333,207.94863107800484L335.51666666666665,207.94863107800484L343.7,207.94863107800484L351.8833333333333,207.94863107800484L360.06666666666666,207.94863107800484L368.25,207.94863107800484L376.43333333333334,207.94863107800484L384.6166666666667,207.94863107800484L392.8,207.94863107800484L400.98333333333335,207.94863107800484L409.1666666666667,207.94863107800484L417.34999999999997,207.94863107800484L425.53333333333336,207.94863107800484L433.71666666666664,207.94863107800484L441.90000000000003,207.94863107800484" style="fill: none;" fill="none"></path></g><g><path stroke="rgb(204, 51, 17)" stroke-width="2px" d="M40.916666666666664,294.79631933569914L49.1,262.0007016062737L57.28333333333333,223.73903024196625L65.46666666666667,215.23656177520752L73.64999999999999,209.16316884756088L81.83333333333333,207.94863107800484L90.01666666666667,201.26803967356682L98.2,192.7654303908348L106.38333333333334,191.55075180530548L114.56666666666666,194.5874482691288L122.75,186.0848389863968L130.93333333333334,187.29951757192612L139.11666666666667,187.90685686469078L147.29999999999998,187.90685686469078L155.48333333333332,189.1215354502201L163.66666666666666,187.29951757192612L171.85,187.29951757192612L180.03333333333333,186.69217827916145L188.21666666666667,185.47749969363213L196.4,186.69217827916145L204.58333333333334,187.90685686469078L212.76666666666668,186.69217827916145L220.95000000000002,187.90685686469078L229.13333333333333,187.90685686469078L237.31666666666666,187.29951757192612L245.5,187.90685686469078L253.68333333333337,187.90685686469078L261.8666666666667,188.51419615745544L270.05,189.1215354502201L278.23333333333335,188.51419615745544L286.4166666666667,188.51419615745544L294.59999999999997,189.1215354502201L302.78333333333336,189.1215354502201L310.96666666666664,189.1215354502201L319.15000000000003,189.1215354502201L327.3333333333333,189.1215354502201L335.51666666666665,189.1215354502201L343.7,189.1215354502201L351.8833333333333,189.1215354502201L360.06666666666666,189.1215354502201L368.25,189.1215354502201L376.43333333333334,189.1215354502201L384.6166666666667,189.1215354502201L392.8,189.1215354502201L400.98333333333335,189.1215354502201L409.1666666666667,189.1215354502201L417.34999999999997,189.1215354502201L425.53333333333336,189.1215354502201L433.71666666666664,189.1215354502201L441.90000000000003,189.1215354502201" style="fill: none;" fill="none"></path></g></g></g></g></g></g><g transform="translate(50, 378)" clip-path="url(#clip_1)"><clipPath id="clip_1"><rect width="491" height="22"></rect></clipPath><g><g><line x1="0" y1="0" x2="0" y2="5" style="visibility: inherit;" fill="rgb(0, 0, 0)" stroke="rgb(204, 204, 204)" stroke-width="1px"></line><line x1="40.916666666666664" y1="0" x2="40.916666666666664" y2="5" style="visibility: inherit;" fill="rgb(0, 0, 0)" stroke="rgb(204, 204, 204)" stroke-width="1px"></line><line x1="81.83333333333333" y1="0" x2="81.83333333333333" y2="5" style="visibility: inherit;" fill="rgb(0, 0, 0)" stroke="rgb(204, 204, 204)" stroke-width="1px"></line><line x1="122.75" y1="0" x2="122.75" y2="5" style="visibility: inherit;" fill="rgb(0, 0, 0)" stroke="rgb(204, 204, 204)" stroke-width="1px"></line><line x1="163.66666666666666" y1="0" x2="163.66666666666666" y2="5" style="visibility: inherit;" fill="rgb(0, 0, 0)" stroke="rgb(204, 204, 204)" stroke-width="1px"></line><line x1="204.58333333333334" y1="0" x2="204.58333333333334" y2="5" style="visibility: inherit;" fill="rgb(0, 0, 0)" stroke="rgb(204, 204, 204)" stroke-width="1px"></line><line x1="245.5" y1="0" x2="245.5" y2="5" style="visibility: inherit;" fill="rgb(0, 0, 0)" stroke="rgb(204, 204, 204)" stroke-width="1px"></line><line x1="286.4166666666667" y1="0" x2="286.4166666666667" y2="5" style="visibility: inherit;" fill="rgb(0, 0, 0)" stroke="rgb(204, 204, 204)" stroke-width="1px"></line><line x1="327.3333333333333" y1="0" x2="327.3333333333333" y2="5" style="visibility: inherit;" fill="rgb(0, 0, 0)" stroke="rgb(204, 204, 204)" stroke-width="1px"></line><line x1="368.25" y1="0" x2="368.25" y2="5" style="visibility: inherit;" fill="rgb(0, 0, 0)" stroke="rgb(204, 204, 204)" stroke-width="1px"></line><line x1="409.1666666666667" y1="0" x2="409.1666666666667" y2="5" style="visibility: inherit;" fill="rgb(0, 0, 0)" stroke="rgb(204, 204, 204)" stroke-width="1px"></line><line x1="450.0833333333333" y1="0" x2="450.0833333333333" y2="5" style="visibility: inherit;" fill="rgb(0, 0, 0)" stroke="rgb(204, 204, 204)" stroke-width="1px"></line><line x1="491" y1="0" x2="491" y2="5" style="visibility: inherit;" fill="rgb(0, 0, 0)" stroke="rgb(204, 204, 204)" stroke-width="1px"></line></g><g transform="translate(0, 8)"><text x="0" y="0" dx="0em" dy="0.95em" style="text-anchor: middle; visibility: hidden; font-family: Roboto, sans-serif; font-size: 12px; font-weight: 200;" fill="rgb(50, 49, 63)" stroke="none" stroke-width="1px">-5</text><text x="40.916666666666664" y="0" dx="0em" dy="0.95em" style="text-anchor: middle; visibility: inherit; font-family: Roboto, sans-serif; font-size: 12px; font-weight: 200;" fill="rgb(50, 49, 63)" stroke="none" stroke-width="1px">0</text><text x="81.83333333333333" y="0" dx="0em" dy="0.95em" style="text-anchor: middle; visibility: inherit; font-family: Roboto, sans-serif; font-size: 12px; font-weight: 200;" fill="rgb(50, 49, 63)" stroke="none" stroke-width="1px">5</text><text x="122.75" y="0" dx="0em" dy="0.95em" style="text-anchor: middle; visibility: inherit; font-family: Roboto, sans-serif; font-size: 12px; font-weight: 200;" fill="rgb(50, 49, 63)" stroke="none" stroke-width="1px">10</text><text x="163.66666666666666" y="0" dx="0em" dy="0.95em" style="text-anchor: middle; visibility: inherit; font-family: Roboto, sans-serif; font-size: 12px; font-weight: 200;" fill="rgb(50, 49, 63)" stroke="none" stroke-width="1px">15</text><text x="204.58333333333334" y="0" dx="0em" dy="0.95em" style="text-anchor: middle; visibility: inherit; font-family: Roboto, sans-serif; font-size: 12px; font-weight: 200;" fill="rgb(50, 49, 63)" stroke="none" stroke-width="1px">20</text><text x="245.5" y="0" dx="0em" dy="0.95em" style="text-anchor: middle; visibility: inherit; font-family: Roboto, sans-serif; font-size: 12px; font-weight: 200;" fill="rgb(50, 49, 63)" stroke="none" stroke-width="1px">25</text><text x="286.4166666666667" y="0" dx="0em" dy="0.95em" style="text-anchor: middle; visibility: inherit; font-family: Roboto, sans-serif; font-size: 12px; font-weight: 200;" fill="rgb(50, 49, 63)" stroke="none" stroke-width="1px">30</text><text x="327.3333333333333" y="0" dx="0em" dy="0.95em" style="text-anchor: middle; visibility: inherit; font-family: Roboto, sans-serif; font-size: 12px; font-weight: 200;" fill="rgb(50, 49, 63)" stroke="none" stroke-width="1px">35</text><text x="368.25" y="0" dx="0em" dy="0.95em" style="text-anchor: middle; visibility: inherit; font-family: Roboto, sans-serif; font-size: 12px; font-weight: 200;" fill="rgb(50, 49, 63)" stroke="none" stroke-width="1px">40</text><text x="409.1666666666667" y="0" dx="0em" dy="0.95em" style="text-anchor: middle; visibility: inherit; font-family: Roboto, sans-serif; font-size: 12px; font-weight: 200;" fill="rgb(50, 49, 63)" stroke="none" stroke-width="1px">45</text><text x="450.0833333333333" y="0" dx="0em" dy="0.95em" style="text-anchor: middle; visibility: inherit; font-family: Roboto, sans-serif; font-size: 12px; font-weight: 200;" fill="rgb(50, 49, 63)" stroke="none" stroke-width="1px">50</text><text x="491" y="0" dx="0em" dy="0.95em" style="text-anchor: middle; visibility: hidden; font-family: Roboto, sans-serif; font-size: 12px; font-weight: 200;" fill="rgb(50, 49, 63)" stroke="none" stroke-width="1px">55</text></g><line x1="0" y1="0" x2="491" y2="0" fill="rgb(0, 0, 0)" stroke="rgb(204, 204, 204)" stroke-width="1px"></line></g></g></g></g></svg>