<svg viewBox="0 0 603.6666870117188 400" xmlns="http://www.w3.org/2000/svg"><g><g><g><g><g><line x1="60" y1="378" x2="55" y2="378" style="visibility: inherit;" fill="rgb(0, 0, 0)" stroke="rgb(204, 204, 204)" stroke-width="1px"></line><line x1="60" y1="330.75" x2="55" y2="330.75" style="visibility: inherit;" fill="rgb(0, 0, 0)" stroke="rgb(204, 204, 204)" stroke-width="1px"></line><line x1="60" y1="283.5" x2="55" y2="283.5" style="visibility: inherit;" fill="rgb(0, 0, 0)" stroke="rgb(204, 204, 204)" stroke-width="1px"></line><line x1="60" y1="236.24999999999997" x2="55" y2="236.24999999999997" style="visibility: inherit;" fill="rgb(0, 0, 0)" stroke="rgb(204, 204, 204)" stroke-width="1px"></line><line x1="60" y1="188.99999999999997" x2="55" y2="188.99999999999997" style="visibility: inherit;" fill="rgb(0, 0, 0)" stroke="rgb(204, 204, 204)" stroke-width="1px"></line><line x1="60" y1="141.75" x2="55" y2="141.75" style="visibility: inherit;" fill="rgb(0, 0, 0)" stroke="rgb(204, 204, 204)" stroke-width="1px"></line><line x1="60" y1="94.5" x2="55" y2="94.5" style="visibility: inherit;" fill="rgb(0, 0, 0)" stroke="rgb(204, 204, 204)" stroke-width="1px"></line><line x1="60" y1="47.25" x2="55" y2="47.25" style="visibility: inherit;" fill="rgb(0, 0, 0)" stroke="rgb(204, 204, 204)" stroke-width="1px"></line><line x1="60" y1="0" x2="55" y2="0" style="visibility: inherit;" fill="rgb(0, 0, 0)" stroke="rgb(204, 204, 204)" stroke-width="1px"></line></g><g transform="translate(50, 0)"><text x="0" y="378" dx="0em" dy="0.3em" style="text-anchor: end; visibility: hidden; font-family: Roboto, sans-serif; font-size: 12px; font-weight: 200;" fill="rgb(50, 49, 63)" stroke="none" stroke-width="1px">-0.05</text><text x="0" y="330.75" dx="0em" dy="0.3em" style="text-anchor: end; visibility: inherit; font-family: Roboto, sans-serif; font-size: 12px; font-weight: 200;" fill="rgb(50, 49, 63)" stroke="none" stroke-width="1px">0</text><text x="0" y="283.5" dx="0em" dy="0.3em" style="text-anchor: end; visibility: inherit; font-family: Roboto, sans-serif; font-size: 12px; font-weight: 200;" fill="rgb(50, 49, 63)" stroke="none" stroke-width="1px">0.05</text><text x="0" y="236.24999999999997" dx="0em" dy="0.3em" style="text-anchor: end; visibility: inherit; font-family: Roboto, sans-serif; font-size: 12px; font-weight: 200;" fill="rgb(50, 49, 63)" stroke="none" stroke-width="1px">0.1</text><text x="0" y="188.99999999999997" dx="0em" dy="0.3em" style="text-anchor: end; visibility: inherit; font-family: Roboto, sans-serif; font-size: 12px; font-weight: 200;" fill="rgb(50, 49, 63)" stroke="none" stroke-width="1px">0.15</text><text x="0" y="141.75" dx="0em" dy="0.3em" style="text-anchor: end; visibility: inherit; font-family: Roboto, sans-serif; font-size: 12px; font-weight: 200;" fill="rgb(50, 49, 63)" stroke="none" stroke-width="1px">0.2</text><text x="0" y="94.5" dx="0em" dy="0.3em" style="text-anchor: end; visibility: inherit; font-family: Roboto, sans-serif; font-size: 12px; font-weight: 200;" fill="rgb(50, 49, 63)" stroke="none" stroke-width="1px">0.25</text><text x="0" y="47.25" dx="0em" dy="0.3em" style="text-anchor: end; visibility: inherit; font-family: Roboto, sans-serif; font-size: 12px; font-weight: 200;" fill="rgb(50, 49, 63)" stroke="none" stroke-width="1px">0.3</text><text x="0" y="0" dx="0em" dy="0.3em" style="text-anchor: end; visibility: hidden; font-family: Roboto, sans-serif; font-size: 12px; font-weight: 200;" fill="rgb(50, 49, 63)" stroke="none" stroke-width="1px">0.35</text></g><line x1="60" y1="0" x2="60" y2="378" fill="rgb(0, 0, 0)" stroke="rgb(204, 204, 204)" stroke-width="1px"></line></g></g><g transform="translate(60, 0)" clip-path="url(#clip_0)"><clipPath id="clip_0"><rect width="543" height="378"></rect></clipPath><g><g><g><line x1="0" y1="0" x2="0" y2="378" fill="rgb(0, 0, 0)" stroke="rgb(60, 60, 60)" stroke-width="1px" opacity="0.25"></line><line x1="45.30558333333333" y1="0" x2="45.30558333333333" y2="378" fill="rgb(0, 0, 0)" stroke="rgb(60, 60, 60)" stroke-width="1px" opacity="0.25"></line><line x1="90.61116666666666" y1="0" x2="90.61116666666666" y2="378" fill="rgb(0, 0, 0)" stroke="rgb(60, 60, 60)" stroke-width="1px" opacity="0.25"></line><line x1="135.91675" y1="0" x2="135.91675" y2="378" fill="rgb(0, 0, 0)" stroke="rgb(60, 60, 60)" stroke-width="1px" opacity="0.25"></line><line x1="181.22233333333332" y1="0" x2="181.22233333333332" y2="378" fill="rgb(0, 0, 0)" stroke="rgb(60, 60, 60)" stroke-width="1px" opacity="0.25"></line><line x1="226.5279166666667" y1="0" x2="226.5279166666667" y2="378" fill="rgb(0, 0, 0)" stroke="rgb(60, 60, 60)" stroke-width="1px" opacity="0.25"></line><line x1="271.8335" y1="0" x2="271.8335" y2="378" fill="rgb(0, 0, 0)" stroke="rgb(60, 60, 60)" stroke-width="1px" opacity="0.25"></line><line x1="317.13908333333336" y1="0" x2="317.13908333333336" y2="378" fill="rgb(0, 0, 0)" stroke="rgb(60, 60, 60)" stroke-width="1px" opacity="0.25"></line><line x1="362.44466666666665" y1="0" x2="362.44466666666665" y2="378" fill="rgb(0, 0, 0)" stroke="rgb(60, 60, 60)" stroke-width="1px" opacity="0.25"></line><line x1="407.75025000000005" y1="0" x2="407.75025000000005" y2="378" fill="rgb(0, 0, 0)" stroke="rgb(60, 60, 60)" stroke-width="1px" opacity="0.25"></line><line x1="453.0558333333334" y1="0" x2="453.0558333333334" y2="378" fill="rgb(0, 0, 0)" stroke="rgb(60, 60, 60)" stroke-width="1px" opacity="0.25"></line><line x1="498.3614166666667" y1="0" x2="498.3614166666667" y2="378" fill="rgb(0, 0, 0)" stroke="rgb(60, 60, 60)" stroke-width="1px" opacity="0.25"></line><line x1="543.667" y1="0" x2="543.667" y2="378" fill="rgb(0, 0, 0)" stroke="rgb(60, 60, 60)" stroke-width="1px" opacity="0.25"></line></g><g><line x1="0" y1="378" x2="543.667" y2="378" fill="rgb(0, 0, 0)" stroke="rgb(60, 60, 60)" stroke-width="1px" opacity="0.25"></line><line x1="0" y1="330.75" x2="543.667" y2="330.75" fill="rgb(0, 0, 0)" stroke="rgb(60, 60, 60)" stroke-width="1px" opacity="0.25"></line><line x1="0" y1="283.5" x2="543.667" y2="283.5" fill="rgb(0, 0, 0)" stroke="rgb(60, 60, 60)" stroke-width="1px" opacity="0.25"></line><line x1="0" y1="236.24999999999997" x2="543.667" y2="236.24999999999997" fill="rgb(0, 0, 0)" stroke="rgb(60, 60, 60)" stroke-width="1px" opacity="0.25"></line><line x1="0" y1="188.99999999999997" x2="543.667" y2="188.99999999999997" fill="rgb(0, 0, 0)" stroke="rgb(60, 60, 60)" stroke-width="1px" opacity="0.25"></line><line x1="0" y1="141.75" x2="543.667" y2="141.75" fill="rgb(0, 0, 0)" stroke="rgb(60, 60, 60)" stroke-width="1px" opacity="0.25"></line><line x1="0" y1="94.5" x2="543.667" y2="94.5" fill="rgb(0, 0, 0)" stroke="rgb(60, 60, 60)" stroke-width="1px" opacity="0.25"></line><line x1="0" y1="47.25" x2="543.667" y2="47.25" fill="rgb(0, 0, 0)" stroke="rgb(60, 60, 60)" stroke-width="1px" opacity="0.25"></line><line x1="0" y1="0" x2="543.667" y2="0" fill="rgb(0, 0, 0)" stroke="rgb(60, 60, 60)" stroke-width="1px" opacity="0.25"></line></g></g></g><g><g><line x1="0" y1="330.75" x2="543.667" y2="330.75" fill="rgb(0, 0, 0)" stroke="rgb(153, 153, 153)" stroke-width="1.5px"></line></g></g><g><g><line x1="45.30558333333333" y1="0" x2="45.30558333333333" y2="378" fill="rgb(0, 0, 0)" stroke="rgb(153, 153, 153)" stroke-width="1.5px"></line></g></g><g><g><g><g><g><path stroke="rgb(0, 153, 136)" stroke-width="2px" d="M45.30558333333333,25.99178981781006L54.36670000000001,69.72010624408722L63.42781666666667,92.49213320016861L72.48893333333334,97.28729729354382L81.55005,93.91045984625816L90.61116666666666,98.01675219833851L99.67228333333333,100.29992830753326L108.73340000000002,101.68816258013248L117.79451666666668,100.31934683024883L126.85563333333334,101.31825309991837L135.91675,102.4927146434784L144.97786666666667,101.35869544744492L154.03898333333333,101.90206204354763L163.1001,102.63717775046825L172.16121666666666,102.52044130861759L181.22233333333332,102.75422398746014L190.28345,103.08328275382519L199.34456666666665,103.14538259804249L208.40568333333337,103.06553994119167L217.46680000000003,103.03851735591888L226.5279166666667,103.00022949278355L235.58903333333336,103.01681761443615L244.65015000000002,102.99037237465382L253.7112666666667,103.01142436265945L262.7723833333333,103.01685985922813L271.8335,103.00469335913658L280.8946166666667,103.01819761097431L289.95573333333334,103.02074638009071L299.01685000000003,103.0389257222414L308.07796666666667,103.04493856430054L317.13908333333336,103.04398101568222L326.2002,103.04230530560017L335.2613166666667,103.04198142886162L344.3224333333333,103.04164347052574L353.38355,103.04233346879482L362.44466666666665,103.04307979345322L371.50578333333334,103.0429248958826L380.5669,103.04320652782917L389.62801666666667,103.04317836463451L398.6891333333333,103.04330509901047L407.75025000000005,103.04334734380245L416.81136666666674,103.04355856776237L425.8724833333334,103.04375571012497L434.93360000000007,103.04368530213833L443.9947166666667,103.04372754693031L453.0558333333334,103.0438683629036L462.11695000000003,103.0438683629036L471.1780666666667,103.04388244450092L480.23918333333336,103.04388244450092L489.30030000000005,103.04389652609825" style="fill: none;" fill="none"></path></g><g><path stroke="rgb(51, 187, 238)" stroke-width="2px" d="M45.30558333333333,18.56695783138275L54.36670000000001,63.69991359114647L63.42781666666667,93.66200414299965L72.48893333333334,90.56436252593994L81.55005,101.90468122065067L90.61116666666666,105.86828474700451L99.67228333333333,107.51643714308739L108.73340000000002,106.66261357069016L117.79451666666668,109.56067670881748L126.85563333333334,109.51251764595509L135.91675,109.86909185349941L144.97786666666667,109.76360660791397L154.03898333333333,109.61301800608635L163.1001,109.30782754719257L172.16121666666666,109.50106930732727L181.22233333333332,110.03008675575256L190.28345,109.94942736625671L199.34456666666665,110.22839789092541L208.40568333333337,110.1700437515974L217.46680000000003,110.29052589833736L226.5279166666667,110.25537823140621L235.58903333333336,110.1672415137291L244.65015000000002,110.09721373021603L253.7112666666667,110.08140009641647L262.7723833333333,110.04560467600822L271.8335,110.04656222462654L280.8946166666667,110.02910104393959L289.95573333333334,110.03576163947582L299.01685000000003,110.0251581966877L308.07796666666667,110.02669309079647L317.13908333333336,110.02822798490524L326.2002,110.02329942584038L335.2613166666667,110.02117310464382L344.3224333333333,110.0194129049778L353.38355,110.019764944911L362.44466666666665,110.01928617060184L371.50578333333334,110.01945514976978L380.5669,110.01849760115147L389.62801666666667,110.01824413239956L398.6891333333333,110.01806107163429L407.75025000000005,110.01784984767437L416.81136666666674,110.01780760288239L425.8724833333334,110.01775127649307L434.93360000000007,110.01770903170109L443.9947166666667,110.01784984767437L453.0558333333334,110.01779352128506L462.11695000000003,110.01784984767437L471.1780666666667,110.01784984767437L480.23918333333336,110.0178639292717L489.30030000000005,110.01787801086903" style="fill: none;" fill="none"></path></g><g><path stroke="rgb(0, 119, 187)" stroke-width="2px" d="M45.30558333333333,17.614872872829437L54.36670000000001,68.15161344408989L63.42781666666667,95.63575123250484L72.48893333333334,102.96274428069592L81.55005,104.0829775929451L90.61116666666666,104.95800805091858L99.67228333333333,109.07766383886337L108.73340000000002,106.84112598001957L117.79451666666668,107.99459186196327L126.85563333333334,108.60593032836914L135.91675,109.13380716741085L144.97786666666667,109.54935510456562L154.03898333333333,108.4136179536581L163.1001,109.06555366516113L172.16121666666666,108.88211269676685L181.22233333333332,109.12939962744713L190.28345,109.45303697884083L199.34456666666665,109.30389878153801L208.40568333333337,109.05386593937874L217.46680000000003,109.00904421508312L226.5279166666667,108.91159956157207L235.58903333333336,108.9787546992302L244.65015000000002,108.96808084845543L253.7112666666667,108.9909493625164L262.7723833333333,109.00407341122627L271.8335,109.02932171523571L280.8946166666667,109.02678702771664L289.95573333333334,109.03163109719753L299.01685000000003,109.02674478292465L308.07796666666667,109.02230907976627L317.13908333333336,109.01626807451248L326.2002,109.01297298073769L335.2613166666667,109.01207175850868L344.3224333333333,109.01007217168808L353.38355,109.00886115431786L362.44466666666665,109.00819931924343L371.50578333333334,109.0076360553503L380.5669,109.00696013867855L389.62801666666667,109.00612932443619L398.6891333333333,109.00614340603352L407.75025000000005,109.00597442686558L416.81136666666674,109.00601667165756L425.8724833333334,109.00611524283886L434.93360000000007,109.00611524283886L443.9947166666667,109.00614340603352L453.0558333333334,109.00611524283886L462.11695000000003,109.00612932443619L471.1780666666667,109.00614340603352L480.23918333333336,109.00611524283886L489.30030000000005,109.00617156922817" style="fill: none;" fill="none"></path></g><g><path stroke="rgb(204, 51, 17)" stroke-width="2px" d="M45.30558333333333,20.218250423669815L54.36670000000001,70.46062928438187L63.42781666666667,90.2216164469719L72.48893333333334,102.84134683012962L81.55005,104.46337786316872L90.61116666666666,103.39737278223038L99.67228333333333,103.80769644677639L108.73340000000002,106.70302775502205L117.79451666666668,106.47776444256306L126.85563333333334,107.02073675394058L135.91675,108.27171769738197L144.97786666666667,106.88496199250221L154.03898333333333,107.20750097930431L163.1001,107.61110772192478L172.16121666666666,107.63755296170712L181.22233333333332,107.61375506222248L190.28345,107.7268725335598L199.34456666666665,107.75462736189365L208.40568333333337,107.65331026911736L217.46680000000003,107.70294789969921L226.5279166666667,107.78224137425423L235.58903333333336,107.71245297789574L244.65015000000002,107.70856645703316L253.7112666666667,107.70651054382324L262.7723833333333,107.70073708891869L271.8335,107.69727301597595L280.8946166666667,107.6973997503519L289.95573333333334,107.70215933024883L299.01685000000003,107.70196218788624L308.07796666666667,107.7019903510809L317.13908333333336,107.70375055074692L326.2002,107.70403218269348L335.2613166666667,107.70455320179462L344.3224333333333,107.70238463580608L353.38355,107.70093423128128L362.44466666666665,107.70211708545685L371.50578333333334,107.70166647434235L380.5669,107.70184953510761L389.62801666666667,107.70161014795303L398.6891333333333,107.70193402469158L407.75025000000005,107.7019903510809L416.81136666666674,107.70222973823547L425.8724833333334,107.70235647261143L434.93360000000007,107.70241279900074L443.9947166666667,107.70239871740341L453.0558333333334,107.70242688059807L462.11695000000003,107.70239871740341L471.1780666666667,107.70245504379272L480.23918333333336,107.7024409621954L489.30030000000005,107.7024409621954" style="fill: none;" fill="none"></path></g><g><path stroke="rgb(255, 112, 67)" stroke-width="2px" d="M45.30558333333333,4.67684206366539L54.36670000000001,73.76696017384529L63.42781666666667,92.93823820352554L72.48893333333334,96.19783227145672L81.55005,98.88346043229103L90.61116666666666,104.09641143679619L99.67228333333333,102.73798790574074L108.73340000000002,104.80777148902416L117.79451666666668,106.03268739581108L126.85563333333334,106.04996551573277L135.91675,106.82131317257881L144.97786666666667,106.54962283372879L154.03898333333333,107.36598935723305L163.1001,106.63709771633148L172.16121666666666,107.21380953490734L181.22233333333332,107.58891512453556L190.28345,107.574044957757L199.34456666666665,107.47289684414864L208.40568333333337,107.44901445508003L217.46680000000003,107.42123146355152L226.5279166666667,107.39556071162224L235.58903333333336,107.39302602410316L244.65015000000002,107.40230579674244L253.7112666666667,107.39126582443714L262.7723833333333,107.3806060552597L271.8335,107.37684626877308L280.8946166666667,107.38747787475586L289.95573333333334,107.3894492983818L299.01685000000003,107.39475806057453L308.07796666666667,107.39098419249058L317.13908333333336,107.39240643382072L326.2002,107.3918431699276L335.2613166666667,107.39135031402111L344.3224333333333,107.39013929665089L353.38355,107.39101235568523L362.44466666666665,107.39088562130928L371.50578333333334,107.39042092859745L380.5669,107.39033643901348L389.62801666666667,107.39088562130928L398.6891333333333,107.3915474563837L407.75025000000005,107.39171643555164L416.81136666666674,107.39182908833027L425.8724833333334,107.39180092513561L434.93360000000007,107.39177276194096L443.9947166666667,107.39182908833027L453.0558333333334,107.39185725152493L462.11695000000003,107.39185725152493L471.1780666666667,107.39185725152493L480.23918333333336,107.39188541471958L489.30030000000005,107.39187133312225" style="fill: none;" fill="none"></path></g></g></g></g></g></g><g transform="translate(60, 378)" clip-path="url(#clip_1)"><clipPath id="clip_1"><rect width="543" height="22"></rect></clipPath><g><g><line x1="0" y1="0" x2="0" y2="5" style="visibility: inherit;" fill="rgb(0, 0, 0)" stroke="rgb(204, 204, 204)" stroke-width="1px"></line><line x1="45.30558333333333" y1="0" x2="45.30558333333333" y2="5" style="visibility: inherit;" fill="rgb(0, 0, 0)" stroke="rgb(204, 204, 204)" stroke-width="1px"></line><line x1="90.61116666666666" y1="0" x2="90.61116666666666" y2="5" style="visibility: inherit;" fill="rgb(0, 0, 0)" stroke="rgb(204, 204, 204)" stroke-width="1px"></line><line x1="135.91675" y1="0" x2="135.91675" y2="5" style="visibility: inherit;" fill="rgb(0, 0, 0)" stroke="rgb(204, 204, 204)" stroke-width="1px"></line><line x1="181.22233333333332" y1="0" x2="181.22233333333332" y2="5" style="visibility: inherit;" fill="rgb(0, 0, 0)" stroke="rgb(204, 204, 204)" stroke-width="1px"></line><line x1="226.5279166666667" y1="0" x2="226.5279166666667" y2="5" style="visibility: inherit;" fill="rgb(0, 0, 0)" stroke="rgb(204, 204, 204)" stroke-width="1px"></line><line x1="271.8335" y1="0" x2="271.8335" y2="5" style="visibility: inherit;" fill="rgb(0, 0, 0)" stroke="rgb(204, 204, 204)" stroke-width="1px"></line><line x1="317.13908333333336" y1="0" x2="317.13908333333336" y2="5" style="visibility: inherit;" fill="rgb(0, 0, 0)" stroke="rgb(204, 204, 204)" stroke-width="1px"></line><line x1="362.44466666666665" y1="0" x2="362.44466666666665" y2="5" style="visibility: inherit;" fill="rgb(0, 0, 0)" stroke="rgb(204, 204, 204)" stroke-width="1px"></line><line x1="407.75025000000005" y1="0" x2="407.75025000000005" y2="5" style="visibility: inherit;" fill="rgb(0, 0, 0)" stroke="rgb(204, 204, 204)" stroke-width="1px"></line><line x1="453.0558333333334" y1="0" x2="453.0558333333334" y2="5" style="visibility: inherit;" fill="rgb(0, 0, 0)" stroke="rgb(204, 204, 204)" stroke-width="1px"></line><line x1="498.3614166666667" y1="0" x2="498.3614166666667" y2="5" style="visibility: inherit;" fill="rgb(0, 0, 0)" stroke="rgb(204, 204, 204)" stroke-width="1px"></line><line x1="543.667" y1="0" x2="543.667" y2="5" style="visibility: inherit;" fill="rgb(0, 0, 0)" stroke="rgb(204, 204, 204)" stroke-width="1px"></line></g><g transform="translate(0, 8)"><text x="0" y="0" dx="0em" dy="0.95em" style="text-anchor: middle; visibility: hidden; font-family: Roboto, sans-serif; font-size: 12px; font-weight: 200;" fill="rgb(50, 49, 63)" stroke="none" stroke-width="1px">-5</text><text x="45.30558333333333" y="0" dx="0em" dy="0.95em" style="text-anchor: middle; visibility: inherit; font-family: Roboto, sans-serif; font-size: 12px; font-weight: 200;" fill="rgb(50, 49, 63)" stroke="none" stroke-width="1px">0</text><text x="90.61116666666666" y="0" dx="0em" dy="0.95em" style="text-anchor: middle; visibility: inherit; font-family: Roboto, sans-serif; font-size: 12px; font-weight: 200;" fill="rgb(50, 49, 63)" stroke="none" stroke-width="1px">5</text><text x="135.91675" y="0" dx="0em" dy="0.95em" style="text-anchor: middle; visibility: inherit; font-family: Roboto, sans-serif; font-size: 12px; font-weight: 200;" fill="rgb(50, 49, 63)" stroke="none" stroke-width="1px">10</text><text x="181.22233333333332" y="0" dx="0em" dy="0.95em" style="text-anchor: middle; visibility: inherit; font-family: Roboto, sans-serif; font-size: 12px; font-weight: 200;" fill="rgb(50, 49, 63)" stroke="none" stroke-width="1px">15</text><text x="226.5279166666667" y="0" dx="0em" dy="0.95em" style="text-anchor: middle; visibility: inherit; font-family: Roboto, sans-serif; font-size: 12px; font-weight: 200;" fill="rgb(50, 49, 63)" stroke="none" stroke-width="1px">20</text><text x="271.8335" y="0" dx="0em" dy="0.95em" style="text-anchor: middle; visibility: inherit; font-family: Roboto, sans-serif; font-size: 12px; font-weight: 200;" fill="rgb(50, 49, 63)" stroke="none" stroke-width="1px">25</text><text x="317.13908333333336" y="0" dx="0em" dy="0.95em" style="text-anchor: middle; visibility: inherit; font-family: Roboto, sans-serif; font-size: 12px; font-weight: 200;" fill="rgb(50, 49, 63)" stroke="none" stroke-width="1px">30</text><text x="362.44466666666665" y="0" dx="0em" dy="0.95em" style="text-anchor: middle; visibility: inherit; font-family: Roboto, sans-serif; font-size: 12px; font-weight: 200;" fill="rgb(50, 49, 63)" stroke="none" stroke-width="1px">35</text><text x="407.75025000000005" y="0" dx="0em" dy="0.95em" style="text-anchor: middle; visibility: inherit; font-family: Roboto, sans-serif; font-size: 12px; font-weight: 200;" fill="rgb(50, 49, 63)" stroke="none" stroke-width="1px">40</text><text x="453.0558333333334" y="0" dx="0em" dy="0.95em" style="text-anchor: middle; visibility: inherit; font-family: Roboto, sans-serif; font-size: 12px; font-weight: 200;" fill="rgb(50, 49, 63)" stroke="none" stroke-width="1px">45</text><text x="498.3614166666667" y="0" dx="0em" dy="0.95em" style="text-anchor: middle; visibility: inherit; font-family: Roboto, sans-serif; font-size: 12px; font-weight: 200;" fill="rgb(50, 49, 63)" stroke="none" stroke-width="1px">50</text><text x="543.667" y="0" dx="0em" dy="0.95em" style="text-anchor: middle; visibility: hidden; font-family: Roboto, sans-serif; font-size: 12px; font-weight: 200;" fill="rgb(50, 49, 63)" stroke="none" stroke-width="1px">55</text></g><line x1="0" y1="0" x2="543.667" y2="0" fill="rgb(0, 0, 0)" stroke="rgb(204, 204, 204)" stroke-width="1px"></line></g></g></g></g></svg>