<svg viewBox="0 0 545 400" xmlns="http://www.w3.org/2000/svg"><g><g><g><g><g><line x1="50" y1="378" x2="45" y2="378" style="visibility: inherit;" fill="rgb(0, 0, 0)" stroke="rgb(204, 204, 204)" stroke-width="1px"></line><line x1="50" y1="340.2" x2="45" y2="340.2" style="visibility: inherit;" fill="rgb(0, 0, 0)" stroke="rgb(204, 204, 204)" stroke-width="1px"></line><line x1="50" y1="302.3999999999999" x2="45" y2="302.3999999999999" style="visibility: inherit;" fill="rgb(0, 0, 0)" stroke="rgb(204, 204, 204)" stroke-width="1px"></line><line x1="50" y1="264.5999999999999" x2="45" y2="264.5999999999999" style="visibility: inherit;" fill="rgb(0, 0, 0)" stroke="rgb(204, 204, 204)" stroke-width="1px"></line><line x1="50" y1="226.7999999999998" x2="45" y2="226.7999999999998" style="visibility: inherit;" fill="rgb(0, 0, 0)" stroke="rgb(204, 204, 204)" stroke-width="1px"></line><line x1="50" y1="188.9999999999998" x2="45" y2="188.9999999999998" style="visibility: inherit;" fill="rgb(0, 0, 0)" stroke="rgb(204, 204, 204)" stroke-width="1px"></line><line x1="50" y1="151.19999999999976" x2="45" y2="151.19999999999976" style="visibility: inherit;" fill="rgb(0, 0, 0)" stroke="rgb(204, 204, 204)" stroke-width="1px"></line><line x1="50" y1="113.39999999999972" x2="45" y2="113.39999999999972" style="visibility: inherit;" fill="rgb(0, 0, 0)" stroke="rgb(204, 204, 204)" stroke-width="1px"></line><line x1="50" y1="75.59999999999965" x2="45" y2="75.59999999999965" style="visibility: inherit;" fill="rgb(0, 0, 0)" stroke="rgb(204, 204, 204)" stroke-width="1px"></line><line x1="50" y1="37.80000000000003" x2="45" y2="37.80000000000003" style="visibility: inherit;" fill="rgb(0, 0, 0)" stroke="rgb(204, 204, 204)" stroke-width="1px"></line><line x1="50" y1="0" x2="45" y2="0" style="visibility: inherit;" fill="rgb(0, 0, 0)" stroke="rgb(204, 204, 204)" stroke-width="1px"></line></g><g transform="translate(40, 0)"><text x="0" y="378" dx="0em" dy="0.3em" style="text-anchor: end; visibility: hidden; font-family: Roboto, sans-serif; font-size: 12px; font-weight: 200;" fill="rgb(50, 49, 63)" stroke="none" stroke-width="1px">0.85</text><text x="0" y="340.2" dx="0em" dy="0.3em" style="text-anchor: end; visibility: inherit; font-family: Roboto, sans-serif; font-size: 12px; font-weight: 200;" fill="rgb(50, 49, 63)" stroke="none" stroke-width="1px">0.86</text><text x="0" y="302.3999999999999" dx="0em" dy="0.3em" style="text-anchor: end; visibility: inherit; font-family: Roboto, sans-serif; font-size: 12px; font-weight: 200;" fill="rgb(50, 49, 63)" stroke="none" stroke-width="1px">0.87</text><text x="0" y="264.5999999999999" dx="0em" dy="0.3em" style="text-anchor: end; visibility: inherit; font-family: Roboto, sans-serif; font-size: 12px; font-weight: 200;" fill="rgb(50, 49, 63)" stroke="none" stroke-width="1px">0.88</text><text x="0" y="226.7999999999998" dx="0em" dy="0.3em" style="text-anchor: end; visibility: inherit; font-family: Roboto, sans-serif; font-size: 12px; font-weight: 200;" fill="rgb(50, 49, 63)" stroke="none" stroke-width="1px">0.89</text><text x="0" y="188.9999999999998" dx="0em" dy="0.3em" style="text-anchor: end; visibility: inherit; font-family: Roboto, sans-serif; font-size: 12px; font-weight: 200;" fill="rgb(50, 49, 63)" stroke="none" stroke-width="1px">0.9</text><text x="0" y="151.19999999999976" dx="0em" dy="0.3em" style="text-anchor: end; visibility: inherit; font-family: Roboto, sans-serif; font-size: 12px; font-weight: 200;" fill="rgb(50, 49, 63)" stroke="none" stroke-width="1px">0.91</text><text x="0" y="113.39999999999972" dx="0em" dy="0.3em" style="text-anchor: end; visibility: inherit; font-family: Roboto, sans-serif; font-size: 12px; font-weight: 200;" fill="rgb(50, 49, 63)" stroke="none" stroke-width="1px">0.92</text><text x="0" y="75.59999999999965" dx="0em" dy="0.3em" style="text-anchor: end; visibility: inherit; font-family: Roboto, sans-serif; font-size: 12px; font-weight: 200;" fill="rgb(50, 49, 63)" stroke="none" stroke-width="1px">0.93</text><text x="0" y="37.80000000000003" dx="0em" dy="0.3em" style="text-anchor: end; visibility: inherit; font-family: Roboto, sans-serif; font-size: 12px; font-weight: 200;" fill="rgb(50, 49, 63)" stroke="none" stroke-width="1px">0.94</text><text x="0" y="0" dx="0em" dy="0.3em" style="text-anchor: end; visibility: hidden; font-family: Roboto, sans-serif; font-size: 12px; font-weight: 200;" fill="rgb(50, 49, 63)" stroke="none" stroke-width="1px">0.95</text></g><line x1="50" y1="0" x2="50" y2="378" fill="rgb(0, 0, 0)" stroke="rgb(204, 204, 204)" stroke-width="1px"></line></g></g><g transform="translate(50, 0)" clip-path="url(#clip_0)"><clipPath id="clip_0"><rect width="495" height="378"></rect></clipPath><g><g><g><line x1="0" y1="0" x2="0" y2="378" fill="rgb(0, 0, 0)" stroke="rgb(60, 60, 60)" stroke-width="1px" opacity="0.25"></line><line x1="41.25" y1="0" x2="41.25" y2="378" fill="rgb(0, 0, 0)" stroke="rgb(60, 60, 60)" stroke-width="1px" opacity="0.25"></line><line x1="82.5" y1="0" x2="82.5" y2="378" fill="rgb(0, 0, 0)" stroke="rgb(60, 60, 60)" stroke-width="1px" opacity="0.25"></line><line x1="123.75" y1="0" x2="123.75" y2="378" fill="rgb(0, 0, 0)" stroke="rgb(60, 60, 60)" stroke-width="1px" opacity="0.25"></line><line x1="165" y1="0" x2="165" y2="378" fill="rgb(0, 0, 0)" stroke="rgb(60, 60, 60)" stroke-width="1px" opacity="0.25"></line><line x1="206.25" y1="0" x2="206.25" y2="378" fill="rgb(0, 0, 0)" stroke="rgb(60, 60, 60)" stroke-width="1px" opacity="0.25"></line><line x1="247.5" y1="0" x2="247.5" y2="378" fill="rgb(0, 0, 0)" stroke="rgb(60, 60, 60)" stroke-width="1px" opacity="0.25"></line><line x1="288.75" y1="0" x2="288.75" y2="378" fill="rgb(0, 0, 0)" stroke="rgb(60, 60, 60)" stroke-width="1px" opacity="0.25"></line><line x1="330" y1="0" x2="330" y2="378" fill="rgb(0, 0, 0)" stroke="rgb(60, 60, 60)" stroke-width="1px" opacity="0.25"></line><line x1="371.25" y1="0" x2="371.25" y2="378" fill="rgb(0, 0, 0)" stroke="rgb(60, 60, 60)" stroke-width="1px" opacity="0.25"></line><line x1="412.5" y1="0" x2="412.5" y2="378" fill="rgb(0, 0, 0)" stroke="rgb(60, 60, 60)" stroke-width="1px" opacity="0.25"></line><line x1="453.75" y1="0" x2="453.75" y2="378" fill="rgb(0, 0, 0)" stroke="rgb(60, 60, 60)" stroke-width="1px" opacity="0.25"></line><line x1="495" y1="0" x2="495" y2="378" fill="rgb(0, 0, 0)" stroke="rgb(60, 60, 60)" stroke-width="1px" opacity="0.25"></line></g><g><line x1="0" y1="378" x2="495" y2="378" fill="rgb(0, 0, 0)" stroke="rgb(60, 60, 60)" stroke-width="1px" opacity="0.25"></line><line x1="0" y1="340.2" x2="495" y2="340.2" fill="rgb(0, 0, 0)" stroke="rgb(60, 60, 60)" stroke-width="1px" opacity="0.25"></line><line x1="0" y1="302.3999999999999" x2="495" y2="302.3999999999999" fill="rgb(0, 0, 0)" stroke="rgb(60, 60, 60)" stroke-width="1px" opacity="0.25"></line><line x1="0" y1="264.5999999999999" x2="495" y2="264.5999999999999" fill="rgb(0, 0, 0)" stroke="rgb(60, 60, 60)" stroke-width="1px" opacity="0.25"></line><line x1="0" y1="226.7999999999998" x2="495" y2="226.7999999999998" fill="rgb(0, 0, 0)" stroke="rgb(60, 60, 60)" stroke-width="1px" opacity="0.25"></line><line x1="0" y1="188.9999999999998" x2="495" y2="188.9999999999998" fill="rgb(0, 0, 0)" stroke="rgb(60, 60, 60)" stroke-width="1px" opacity="0.25"></line><line x1="0" y1="151.19999999999976" x2="495" y2="151.19999999999976" fill="rgb(0, 0, 0)" stroke="rgb(60, 60, 60)" stroke-width="1px" opacity="0.25"></line><line x1="0" y1="113.39999999999972" x2="495" y2="113.39999999999972" fill="rgb(0, 0, 0)" stroke="rgb(60, 60, 60)" stroke-width="1px" opacity="0.25"></line><line x1="0" y1="75.59999999999965" x2="495" y2="75.59999999999965" fill="rgb(0, 0, 0)" stroke="rgb(60, 60, 60)" stroke-width="1px" opacity="0.25"></line><line x1="0" y1="37.80000000000003" x2="495" y2="37.80000000000003" fill="rgb(0, 0, 0)" stroke="rgb(60, 60, 60)" stroke-width="1px" opacity="0.25"></line><line x1="0" y1="0" x2="495" y2="0" fill="rgb(0, 0, 0)" stroke="rgb(60, 60, 60)" stroke-width="1px" opacity="0.25"></line></g></g></g><g><g><line x1="0" y1="3591.0000000000005" x2="495" y2="3591.0000000000005" fill="rgb(0, 0, 0)" stroke="rgb(153, 153, 153)" stroke-width="1.5px"></line></g></g><g><g><line x1="41.25" y1="0" x2="41.25" y2="378" fill="rgb(0, 0, 0)" stroke="rgb(153, 153, 153)" stroke-width="1.5px"></line></g></g><g><g><g><g><g><path stroke="rgb(0, 119, 187)" stroke-width="2px" d="M41.25,387.2313544750213L49.5,324.0694198608398L57.75,283.2571206092834L66,279.37014913558954L74.25,268.6812028884887L82.5,254.10551047325126L90.75,241.4730784893035L99,230.78413224220265L107.25,232.72761797904957L115.5,223.9819321632384L123.75,223.9819321632384L132,220.09518599510182L140.25,223.9819321632384L148.5,222.03867173194874L156.75,217.17995738983143L165,219.12344312667835L173.25,217.17995738983143L181.5,219.12344312667835L189.75,222.03867173194874L198,221.06692886352528L206.25,219.12344312667835L214.5,220.09518599510182L222.75,220.09518599510182L231,220.09518599510182L239.25,222.03867173194874L247.5,222.03867173194874L255.75000000000003,222.03867173194874L264,222.03867173194874L272.25,222.03867173194874L280.5,222.03867173194874L288.75,222.03867173194874L297,222.03867173194874L305.25,222.03867173194874L313.5,222.03867173194874L321.75,222.03867173194874L330,222.03867173194874L338.25,222.03867173194874L346.5,222.03867173194874L354.75,222.03867173194874L363,222.03867173194874L371.25,222.03867173194874L379.5,222.03867173194874L387.75,222.03867173194874L396,222.03867173194874L404.25,222.03867173194874L412.5,222.03867173194874L420.75,222.03867173194874L429,222.03867173194874L437.25,222.03867173194874L445.5,222.03867173194874" style="fill: none;" fill="none"></path></g><g><path stroke="rgb(255, 112, 67)" stroke-width="2px" d="M41.25,376.5424082279205L49.5,323.0976769924163L57.75,279.37014913558954L66,283.2571206092834L74.25,265.7659742832183L82.5,269.6529457569122L90.75,251.19028186798087L99,239.52959275245658L107.25,229.81238937377918L115.5,234.67087841033924L123.75,235.6426212787627L132,233.69913554191578L140.25,230.78413224220265L148.5,227.86890363693226L156.75,223.9819321632384L165,226.8971607685088L173.25,225.92541790008534L181.5,226.8971607685088L189.75,224.95367503166187L198,224.95367503166187L206.25,224.95367503166187L214.5,225.92541790008534L222.75,225.92541790008534L231,225.92541790008534L239.25,225.92541790008534L247.5,225.92541790008534L255.75000000000003,226.8971607685088L264,226.8971607685088L272.25,226.8971607685088L280.5,226.8971607685088L288.75,226.8971607685088L297,226.8971607685088L305.25,226.8971607685088L313.5,226.8971607685088L321.75,226.8971607685088L330,226.8971607685088L338.25,226.8971607685088L346.5,226.8971607685088L354.75,226.8971607685088L363,226.8971607685088L371.25,226.8971607685088L379.5,226.8971607685088L387.75,226.8971607685088L396,226.8971607685088L404.25,226.8971607685088L412.5,226.8971607685088L420.75,226.8971607685088L429,226.8971607685088L437.25,226.8971607685088L445.5,226.8971607685088" style="fill: none;" fill="none"></path></g><g><path stroke="rgb(51, 187, 238)" stroke-width="2px" d="M41.25,408.60924696922297L49.5,313.38047361373896L57.75,289.0873525142669L66,292.0025811195373L74.25,273.539917230606L82.5,268.6812028884887L90.75,240.50133562088004L99,230.78413224220265L107.25,230.78413224220265L115.5,230.78413224220265L123.75,228.84064650535572L132,231.7558751106261L140.25,226.8971607685088L148.5,228.84064650535572L156.75,225.92541790008534L165,225.92541790008534L173.25,228.84064650535572L181.5,229.81238937377918L189.75,228.84064650535572L198,228.84064650535572L206.25,228.84064650535572L214.5,227.86890363693226L222.75,227.86890363693226L231,227.86890363693226L239.25,227.86890363693226L247.5,228.84064650535572L255.75000000000003,227.86890363693226L264,228.84064650535572L272.25,230.78413224220265L280.5,230.78413224220265L288.75,230.78413224220265L297,230.78413224220265L305.25,230.78413224220265L313.5,230.78413224220265L321.75,230.78413224220265L330,230.78413224220265L338.25,230.78413224220265L346.5,230.78413224220265L354.75,230.78413224220265L363,230.78413224220265L371.25,230.78413224220265L379.5,230.78413224220265L387.75,230.78413224220265L396,230.78413224220265L404.25,230.78413224220265L412.5,230.78413224220265L420.75,230.78413224220265L429,230.78413224220265L437.25,230.78413224220265L445.5,230.78413224220265" style="fill: none;" fill="none"></path></g><g><path stroke="rgb(204, 51, 17)" stroke-width="2px" d="M41.25,368.76869058609003L49.5,307.5500164031982L57.75,291.03083825111383L66,274.5116600990295L74.25,265.7659742832183L82.5,257.9922566413879L90.75,246.33156752586356L99,241.4730784893035L107.25,238.55784988403312L115.5,238.55784988403312L123.75,228.84064650535572L132,222.03867173194874L140.25,225.92541790008534L148.5,226.8971607685088L156.75,226.8971607685088L165,224.95367503166187L173.25,227.86890363693226L181.5,228.84064650535572L189.75,230.78413224220265L198,227.86890363693226L206.25,230.78413224220265L214.5,227.86890363693226L222.75,229.81238937377918L231,229.81238937377918L239.25,227.86890363693226L247.5,229.81238937377918L255.75000000000003,229.81238937377918L264,229.81238937377918L272.25,229.81238937377918L280.5,229.81238937377918L288.75,229.81238937377918L297,229.81238937377918L305.25,229.81238937377918L313.5,229.81238937377918L321.75,229.81238937377918L330,229.81238937377918L338.25,229.81238937377918L346.5,229.81238937377918L354.75,229.81238937377918L363,229.81238937377918L371.25,229.81238937377918L379.5,229.81238937377918L387.75,229.81238937377918L396,229.81238937377918L404.25,229.81238937377918L412.5,229.81238937377918L420.75,229.81238937377918L429,229.81238937377918L437.25,229.81238937377918L445.5,229.81238937377918" style="fill: none;" fill="none"></path></g><g><path stroke="rgb(0, 153, 136)" stroke-width="2px" d="M41.25,370.71217632293695L49.5,323.0976769924163L57.75,292.0025811195373L66,270.62468862533564L74.25,279.37014913558954L82.5,280.341892004013L90.75,265.7659742832183L99,263.82271385192865L107.25,243.41656422615043L115.5,247.30331039428702L123.75,257.0205137729644L132,250.2185389995574L140.25,254.10551047325126L148.5,251.19028186798087L156.75,250.2185389995574L165,250.2185389995574L173.25,250.2185389995574L181.5,248.2750532627105L189.75,247.30331039428702L198,249.24679613113395L206.25,247.30331039428702L214.5,248.2750532627105L222.75,250.2185389995574L231,249.24679613113395L239.25,248.2750532627105L247.5,248.2750532627105L255.75000000000003,249.24679613113395L264,248.2750532627105L272.25,250.2185389995574L280.5,250.2185389995574L288.75,250.2185389995574L297,250.2185389995574L305.25,250.2185389995574L313.5,250.2185389995574L321.75,250.2185389995574L330,250.2185389995574L338.25,250.2185389995574L346.5,250.2185389995574L354.75,250.2185389995574L363,250.2185389995574L371.25,250.2185389995574L379.5,250.2185389995574L387.75,250.2185389995574L396,250.2185389995574L404.25,250.2185389995574L412.5,250.2185389995574L420.75,250.2185389995574L429,250.2185389995574L437.25,250.2185389995574L445.5,250.2185389995574" style="fill: none;" fill="none"></path></g></g></g></g></g></g><g transform="translate(50, 378)" clip-path="url(#clip_1)"><clipPath id="clip_1"><rect width="495" height="22"></rect></clipPath><g><g><line x1="0" y1="0" x2="0" y2="5" style="visibility: inherit;" fill="rgb(0, 0, 0)" stroke="rgb(204, 204, 204)" stroke-width="1px"></line><line x1="41.25" y1="0" x2="41.25" y2="5" style="visibility: inherit;" fill="rgb(0, 0, 0)" stroke="rgb(204, 204, 204)" stroke-width="1px"></line><line x1="82.5" y1="0" x2="82.5" y2="5" style="visibility: inherit;" fill="rgb(0, 0, 0)" stroke="rgb(204, 204, 204)" stroke-width="1px"></line><line x1="123.75" y1="0" x2="123.75" y2="5" style="visibility: inherit;" fill="rgb(0, 0, 0)" stroke="rgb(204, 204, 204)" stroke-width="1px"></line><line x1="165" y1="0" x2="165" y2="5" style="visibility: inherit;" fill="rgb(0, 0, 0)" stroke="rgb(204, 204, 204)" stroke-width="1px"></line><line x1="206.25" y1="0" x2="206.25" y2="5" style="visibility: inherit;" fill="rgb(0, 0, 0)" stroke="rgb(204, 204, 204)" stroke-width="1px"></line><line x1="247.5" y1="0" x2="247.5" y2="5" style="visibility: inherit;" fill="rgb(0, 0, 0)" stroke="rgb(204, 204, 204)" stroke-width="1px"></line><line x1="288.75" y1="0" x2="288.75" y2="5" style="visibility: inherit;" fill="rgb(0, 0, 0)" stroke="rgb(204, 204, 204)" stroke-width="1px"></line><line x1="330" y1="0" x2="330" y2="5" style="visibility: inherit;" fill="rgb(0, 0, 0)" stroke="rgb(204, 204, 204)" stroke-width="1px"></line><line x1="371.25" y1="0" x2="371.25" y2="5" style="visibility: inherit;" fill="rgb(0, 0, 0)" stroke="rgb(204, 204, 204)" stroke-width="1px"></line><line x1="412.5" y1="0" x2="412.5" y2="5" style="visibility: inherit;" fill="rgb(0, 0, 0)" stroke="rgb(204, 204, 204)" stroke-width="1px"></line><line x1="453.75" y1="0" x2="453.75" y2="5" style="visibility: inherit;" fill="rgb(0, 0, 0)" stroke="rgb(204, 204, 204)" stroke-width="1px"></line><line x1="495" y1="0" x2="495" y2="5" style="visibility: inherit;" fill="rgb(0, 0, 0)" stroke="rgb(204, 204, 204)" stroke-width="1px"></line></g><g transform="translate(0, 8)"><text x="0" y="0" dx="0em" dy="0.95em" style="text-anchor: middle; visibility: hidden; font-family: Roboto, sans-serif; font-size: 12px; font-weight: 200;" fill="rgb(50, 49, 63)" stroke="none" stroke-width="1px">-5</text><text x="41.25" y="0" dx="0em" dy="0.95em" style="text-anchor: middle; visibility: inherit; font-family: Roboto, sans-serif; font-size: 12px; font-weight: 200;" fill="rgb(50, 49, 63)" stroke="none" stroke-width="1px">0</text><text x="82.5" y="0" dx="0em" dy="0.95em" style="text-anchor: middle; visibility: inherit; font-family: Roboto, sans-serif; font-size: 12px; font-weight: 200;" fill="rgb(50, 49, 63)" stroke="none" stroke-width="1px">5</text><text x="123.75" y="0" dx="0em" dy="0.95em" style="text-anchor: middle; visibility: inherit; font-family: Roboto, sans-serif; font-size: 12px; font-weight: 200;" fill="rgb(50, 49, 63)" stroke="none" stroke-width="1px">10</text><text x="165" y="0" dx="0em" dy="0.95em" style="text-anchor: middle; visibility: inherit; font-family: Roboto, sans-serif; font-size: 12px; font-weight: 200;" fill="rgb(50, 49, 63)" stroke="none" stroke-width="1px">15</text><text x="206.25" y="0" dx="0em" dy="0.95em" style="text-anchor: middle; visibility: inherit; font-family: Roboto, sans-serif; font-size: 12px; font-weight: 200;" fill="rgb(50, 49, 63)" stroke="none" stroke-width="1px">20</text><text x="247.5" y="0" dx="0em" dy="0.95em" style="text-anchor: middle; visibility: inherit; font-family: Roboto, sans-serif; font-size: 12px; font-weight: 200;" fill="rgb(50, 49, 63)" stroke="none" stroke-width="1px">25</text><text x="288.75" y="0" dx="0em" dy="0.95em" style="text-anchor: middle; visibility: inherit; font-family: Roboto, sans-serif; font-size: 12px; font-weight: 200;" fill="rgb(50, 49, 63)" stroke="none" stroke-width="1px">30</text><text x="330" y="0" dx="0em" dy="0.95em" style="text-anchor: middle; visibility: inherit; font-family: Roboto, sans-serif; font-size: 12px; font-weight: 200;" fill="rgb(50, 49, 63)" stroke="none" stroke-width="1px">35</text><text x="371.25" y="0" dx="0em" dy="0.95em" style="text-anchor: middle; visibility: inherit; font-family: Roboto, sans-serif; font-size: 12px; font-weight: 200;" fill="rgb(50, 49, 63)" stroke="none" stroke-width="1px">40</text><text x="412.5" y="0" dx="0em" dy="0.95em" style="text-anchor: middle; visibility: inherit; font-family: Roboto, sans-serif; font-size: 12px; font-weight: 200;" fill="rgb(50, 49, 63)" stroke="none" stroke-width="1px">45</text><text x="453.75" y="0" dx="0em" dy="0.95em" style="text-anchor: middle; visibility: inherit; font-family: Roboto, sans-serif; font-size: 12px; font-weight: 200;" fill="rgb(50, 49, 63)" stroke="none" stroke-width="1px">50</text><text x="495" y="0" dx="0em" dy="0.95em" style="text-anchor: middle; visibility: hidden; font-family: Roboto, sans-serif; font-size: 12px; font-weight: 200;" fill="rgb(50, 49, 63)" stroke="none" stroke-width="1px">55</text></g><line x1="0" y1="0" x2="495" y2="0" fill="rgb(0, 0, 0)" stroke="rgb(204, 204, 204)" stroke-width="1px"></line></g></g></g></g></svg>