<svg viewBox="0 0 597 400" xmlns="http://www.w3.org/2000/svg"><g><g><g><g><g><line x1="60" y1="378" x2="55" y2="378" style="visibility: inherit;" fill="rgb(0, 0, 0)" stroke="rgb(204, 204, 204)" stroke-width="1px"></line><line x1="60" y1="340.2" x2="55" y2="340.2" style="visibility: inherit;" fill="rgb(0, 0, 0)" stroke="rgb(204, 204, 204)" stroke-width="1px"></line><line x1="60" y1="302.40000000000003" x2="55" y2="302.40000000000003" style="visibility: inherit;" fill="rgb(0, 0, 0)" stroke="rgb(204, 204, 204)" stroke-width="1px"></line><line x1="60" y1="264.59999999999997" x2="55" y2="264.59999999999997" style="visibility: inherit;" fill="rgb(0, 0, 0)" stroke="rgb(204, 204, 204)" stroke-width="1px"></line><line x1="60" y1="226.79999999999998" x2="55" y2="226.79999999999998" style="visibility: inherit;" fill="rgb(0, 0, 0)" stroke="rgb(204, 204, 204)" stroke-width="1px"></line><line x1="60" y1="189" x2="55" y2="189" style="visibility: inherit;" fill="rgb(0, 0, 0)" stroke="rgb(204, 204, 204)" stroke-width="1px"></line><line x1="60" y1="151.20000000000002" x2="55" y2="151.20000000000002" style="visibility: inherit;" fill="rgb(0, 0, 0)" stroke="rgb(204, 204, 204)" stroke-width="1px"></line><line x1="60" y1="113.40000000000002" x2="55" y2="113.40000000000002" style="visibility: inherit;" fill="rgb(0, 0, 0)" stroke="rgb(204, 204, 204)" stroke-width="1px"></line><line x1="60" y1="75.60000000000002" x2="55" y2="75.60000000000002" style="visibility: inherit;" fill="rgb(0, 0, 0)" stroke="rgb(204, 204, 204)" stroke-width="1px"></line><line x1="60" y1="37.79999999999999" x2="55" y2="37.79999999999999" style="visibility: inherit;" fill="rgb(0, 0, 0)" stroke="rgb(204, 204, 204)" stroke-width="1px"></line><line x1="60" y1="0" x2="55" y2="0" style="visibility: inherit;" fill="rgb(0, 0, 0)" stroke="rgb(204, 204, 204)" stroke-width="1px"></line></g><g transform="translate(50, 0)"><text x="0" y="378" dx="0em" dy="0.3em" style="text-anchor: end; visibility: hidden; font-family: Roboto, sans-serif; font-size: 12px; font-weight: 200;" fill="rgb(50, 49, 63)" stroke="none" stroke-width="1px">-0.05</text><text x="0" y="340.2" dx="0em" dy="0.3em" style="text-anchor: end; visibility: inherit; font-family: Roboto, sans-serif; font-size: 12px; font-weight: 200;" fill="rgb(50, 49, 63)" stroke="none" stroke-width="1px">0</text><text x="0" y="302.40000000000003" dx="0em" dy="0.3em" style="text-anchor: end; visibility: inherit; font-family: Roboto, sans-serif; font-size: 12px; font-weight: 200;" fill="rgb(50, 49, 63)" stroke="none" stroke-width="1px">0.05</text><text x="0" y="264.59999999999997" dx="0em" dy="0.3em" style="text-anchor: end; visibility: inherit; font-family: Roboto, sans-serif; font-size: 12px; font-weight: 200;" fill="rgb(50, 49, 63)" stroke="none" stroke-width="1px">0.1</text><text x="0" y="226.79999999999998" dx="0em" dy="0.3em" style="text-anchor: end; visibility: inherit; font-family: Roboto, sans-serif; font-size: 12px; font-weight: 200;" fill="rgb(50, 49, 63)" stroke="none" stroke-width="1px">0.15</text><text x="0" y="189" dx="0em" dy="0.3em" style="text-anchor: end; visibility: inherit; font-family: Roboto, sans-serif; font-size: 12px; font-weight: 200;" fill="rgb(50, 49, 63)" stroke="none" stroke-width="1px">0.2</text><text x="0" y="151.20000000000002" dx="0em" dy="0.3em" style="text-anchor: end; visibility: inherit; font-family: Roboto, sans-serif; font-size: 12px; font-weight: 200;" fill="rgb(50, 49, 63)" stroke="none" stroke-width="1px">0.25</text><text x="0" y="113.40000000000002" dx="0em" dy="0.3em" style="text-anchor: end; visibility: inherit; font-family: Roboto, sans-serif; font-size: 12px; font-weight: 200;" fill="rgb(50, 49, 63)" stroke="none" stroke-width="1px">0.3</text><text x="0" y="75.60000000000002" dx="0em" dy="0.3em" style="text-anchor: end; visibility: inherit; font-family: Roboto, sans-serif; font-size: 12px; font-weight: 200;" fill="rgb(50, 49, 63)" stroke="none" stroke-width="1px">0.35</text><text x="0" y="37.79999999999999" dx="0em" dy="0.3em" style="text-anchor: end; visibility: inherit; font-family: Roboto, sans-serif; font-size: 12px; font-weight: 200;" fill="rgb(50, 49, 63)" stroke="none" stroke-width="1px">0.4</text><text x="0" y="0" dx="0em" dy="0.3em" style="text-anchor: end; visibility: hidden; font-family: Roboto, sans-serif; font-size: 12px; font-weight: 200;" fill="rgb(50, 49, 63)" stroke="none" stroke-width="1px">0.45</text></g><line x1="60" y1="0" x2="60" y2="378" fill="rgb(0, 0, 0)" stroke="rgb(204, 204, 204)" stroke-width="1px"></line></g></g><g transform="translate(60, 0)" clip-path="url(#clip_0)"><clipPath id="clip_0"><rect width="537" height="378"></rect></clipPath><g><g><g><line x1="0" y1="0" x2="0" y2="378" fill="rgb(0, 0, 0)" stroke="rgb(60, 60, 60)" stroke-width="1px" opacity="0.25"></line><line x1="44.75" y1="0" x2="44.75" y2="378" fill="rgb(0, 0, 0)" stroke="rgb(60, 60, 60)" stroke-width="1px" opacity="0.25"></line><line x1="89.5" y1="0" x2="89.5" y2="378" fill="rgb(0, 0, 0)" stroke="rgb(60, 60, 60)" stroke-width="1px" opacity="0.25"></line><line x1="134.25" y1="0" x2="134.25" y2="378" fill="rgb(0, 0, 0)" stroke="rgb(60, 60, 60)" stroke-width="1px" opacity="0.25"></line><line x1="179" y1="0" x2="179" y2="378" fill="rgb(0, 0, 0)" stroke="rgb(60, 60, 60)" stroke-width="1px" opacity="0.25"></line><line x1="223.75" y1="0" x2="223.75" y2="378" fill="rgb(0, 0, 0)" stroke="rgb(60, 60, 60)" stroke-width="1px" opacity="0.25"></line><line x1="268.5" y1="0" x2="268.5" y2="378" fill="rgb(0, 0, 0)" stroke="rgb(60, 60, 60)" stroke-width="1px" opacity="0.25"></line><line x1="313.25" y1="0" x2="313.25" y2="378" fill="rgb(0, 0, 0)" stroke="rgb(60, 60, 60)" stroke-width="1px" opacity="0.25"></line><line x1="358" y1="0" x2="358" y2="378" fill="rgb(0, 0, 0)" stroke="rgb(60, 60, 60)" stroke-width="1px" opacity="0.25"></line><line x1="402.75" y1="0" x2="402.75" y2="378" fill="rgb(0, 0, 0)" stroke="rgb(60, 60, 60)" stroke-width="1px" opacity="0.25"></line><line x1="447.5" y1="0" x2="447.5" y2="378" fill="rgb(0, 0, 0)" stroke="rgb(60, 60, 60)" stroke-width="1px" opacity="0.25"></line><line x1="492.25" y1="0" x2="492.25" y2="378" fill="rgb(0, 0, 0)" stroke="rgb(60, 60, 60)" stroke-width="1px" opacity="0.25"></line><line x1="537" y1="0" x2="537" y2="378" fill="rgb(0, 0, 0)" stroke="rgb(60, 60, 60)" stroke-width="1px" opacity="0.25"></line></g><g><line x1="0" y1="378" x2="537" y2="378" fill="rgb(0, 0, 0)" stroke="rgb(60, 60, 60)" stroke-width="1px" opacity="0.25"></line><line x1="0" y1="340.2" x2="537" y2="340.2" fill="rgb(0, 0, 0)" stroke="rgb(60, 60, 60)" stroke-width="1px" opacity="0.25"></line><line x1="0" y1="302.40000000000003" x2="537" y2="302.40000000000003" fill="rgb(0, 0, 0)" stroke="rgb(60, 60, 60)" stroke-width="1px" opacity="0.25"></line><line x1="0" y1="264.59999999999997" x2="537" y2="264.59999999999997" fill="rgb(0, 0, 0)" stroke="rgb(60, 60, 60)" stroke-width="1px" opacity="0.25"></line><line x1="0" y1="226.79999999999998" x2="537" y2="226.79999999999998" fill="rgb(0, 0, 0)" stroke="rgb(60, 60, 60)" stroke-width="1px" opacity="0.25"></line><line x1="0" y1="189" x2="537" y2="189" fill="rgb(0, 0, 0)" stroke="rgb(60, 60, 60)" stroke-width="1px" opacity="0.25"></line><line x1="0" y1="151.20000000000002" x2="537" y2="151.20000000000002" fill="rgb(0, 0, 0)" stroke="rgb(60, 60, 60)" stroke-width="1px" opacity="0.25"></line><line x1="0" y1="113.40000000000002" x2="537" y2="113.40000000000002" fill="rgb(0, 0, 0)" stroke="rgb(60, 60, 60)" stroke-width="1px" opacity="0.25"></line><line x1="0" y1="75.60000000000002" x2="537" y2="75.60000000000002" fill="rgb(0, 0, 0)" stroke="rgb(60, 60, 60)" stroke-width="1px" opacity="0.25"></line><line x1="0" y1="37.79999999999999" x2="537" y2="37.79999999999999" fill="rgb(0, 0, 0)" stroke="rgb(60, 60, 60)" stroke-width="1px" opacity="0.25"></line><line x1="0" y1="0" x2="537" y2="0" fill="rgb(0, 0, 0)" stroke="rgb(60, 60, 60)" stroke-width="1px" opacity="0.25"></line></g></g></g><g><g><line x1="0" y1="340.2" x2="537" y2="340.2" fill="rgb(0, 0, 0)" stroke="rgb(153, 153, 153)" stroke-width="1.5px"></line></g></g><g><g><line x1="44.75" y1="0" x2="44.75" y2="378" fill="rgb(0, 0, 0)" stroke="rgb(153, 153, 153)" stroke-width="1.5px"></line></g></g><g><g><g><g><g><path stroke="rgb(0, 119, 187)" stroke-width="2px" d="M44.75,-25.01981263160709L53.7,16.919780445098887L62.65,54.60684378147126L71.6,55.66454071998597L80.55,62.81564898490907L89.5,71.02240390777588L98.44999999999999,79.91424543857575L107.4,84.31277318000794L116.35000000000001,84.22744996547699L125.3,86.88459105491638L134.25,86.06907505989075L143.2,86.19612486362458L152.15,87.12798864841461L161.1,86.56535561084748L170.04999999999998,87.79669554233551L179,88.0312611579895L187.95,89.0236870765686L196.89999999999998,89.22950370311737L205.85000000000002,89.06266493797303L214.8,89.1492723941803L223.75,89.30912668704987L232.70000000000002,89.31246120929718L241.65,89.2012503862381L250.6,89.24430627822876L259.55,89.31890494823456L268.5,89.31205565929413L277.45000000000005,89.32830018997193L286.4,89.37674088478089L295.35,89.4074500322342L304.3,89.41603417396546L313.25,89.4249562740326L322.2,89.42754728794098L331.15000000000003,89.43633420467377L340.09999999999997,89.43768603801728L349.05,89.44005174636841L358,89.44171900749207L366.95,89.44388194084168L375.9,89.44503099918366L384.85,89.44608993530274L393.79999999999995,89.44669826030731L402.75,89.44694609642029L411.70000000000005,89.44714887142182L420.65,89.44717140197754L429.6,89.44714887142182L438.55,89.44710381031037L447.5,89.44721646308899L456.45,89.44723899364472L465.40000000000003,89.44721646308899L474.34999999999997,89.44723899364472L483.3,89.44721646308899" style="fill: none;" fill="none"></path></g><g><path stroke="rgb(51, 187, 238)" stroke-width="2px" d="M44.75,37.92393608093263L53.7,54.12883551120759L62.65,78.61630518436432L71.6,87.71315224170685L80.55,96.27169926166535L89.5,101.83566505908966L98.44999999999999,102.21190280914307L107.4,110.964573097229L116.35000000000001,111.56215102672577L125.3,110.12783331871033L134.25,111.23813910484314L143.2,113.5595073223114L152.15,112.3651850938797L161.1,113.65258104801178L170.04999999999998,113.05209667682648L179,112.7215734243393L187.95,112.88870508670807L196.89999999999998,113.07314021587372L205.85000000000002,113.54427666664124L214.8,113.50766451358795L223.75,113.32482905387879L232.70000000000002,113.40681774616242L241.65,113.44376785755158L250.6,113.5831193447113L259.55,113.63151497840882L268.5,113.64974219799042L277.45000000000005,113.64701600074768L286.4,113.67463846206665L295.35,113.69004936218262L304.3,113.69818289279938L313.25,113.70057113170624L322.2,113.69894893169403L331.15000000000003,113.69714648723603L340.09999999999997,113.69991774559021L349.05,113.70352263450623L358,113.70491952896118L366.95,113.70476181507111L375.9,113.70663185119629L384.85,113.70724017620087L393.79999999999995,113.70658679008484L402.75,113.70667691230774L411.70000000000005,113.7069923400879L420.65,113.70683462619782L429.6,113.70685715675354L438.55,113.70687968730927L447.5,113.70687968730927L456.45,113.70696980953217L465.40000000000003,113.70694727897644L474.34999999999997,113.70694727897644L483.3,113.70696980953217" style="fill: none;" fill="none"></path></g><g><path stroke="rgb(0, 153, 136)" stroke-width="2px" d="M44.75,4.5474186658859335L53.7,61.445858788490305L62.65,72.1296680688858L71.6,84.8235408782959L80.55,85.11377949714661L89.5,94.24424214363098L98.44999999999999,98.17451734542847L107.4,100.02853424549103L116.35000000000001,101.8857054233551L125.3,104.60113306045533L134.25,108.29567105770111L143.2,107.01762528419495L152.15,106.43696780204773L161.1,107.71825797557831L170.04999999999998,107.86166496276856L179,108.22460968494416L187.95,108.31842691898346L196.89999999999998,108.59893233776093L205.85000000000002,109.05472548007965L214.8,108.95818204879761L223.75,109.04332501888275L232.70000000000002,109.04082412719727L241.65,108.91904647350312L250.6,109.0351013660431L259.55,109.00930387973786L268.5,108.95809192657471L277.45000000000005,108.96712667942047L286.4,109.00806469917298L295.35,109.02198858261109L304.3,109.0381655216217L313.25,109.0495659828186L322.2,109.05947942733765L331.15000000000003,109.05977232456208L340.09999999999997,109.05830783843994L349.05,109.05785722732544L358,109.0588035106659L366.95,109.0597047328949L375.9,109.05932171344757L384.85,109.05965967178345L393.79999999999995,109.0604257106781L402.75,109.06101150512696L411.70000000000005,109.06116921901703L420.65,109.06134946346283L429.6,109.06148464679718L438.55,109.06148464679718L447.5,109.06150717735291L456.45,109.06150717735291L465.40000000000003,109.06150717735291L474.34999999999997,109.06152970790863L483.3,109.06150717735291" style="fill: none;" fill="none"></path></g><g><path stroke="rgb(255, 112, 67)" stroke-width="2px" d="M44.75,40.86079401969911L53.7,58.99140257835389L62.65,91.31452639102936L71.6,88.87809462547303L80.55,96.1049506187439L89.5,99.0802456855774L98.44999999999999,109.23598380088806L107.4,111.48505146503449L116.35000000000001,114.46007616519928L125.3,115.00939364433289L134.25,115.63819892406464L143.2,116.0282253742218L152.15,117.76030690670014L161.1,117.66896803379059L170.04999999999998,119.21514995098114L179,119.05982429981232L187.95,119.27755959033966L196.89999999999998,119.53857607841492L205.85000000000002,119.1889018535614L214.8,119.63809354305268L223.75,119.58884174823761L232.70000000000002,119.75376541614533L241.65,119.67808527946472L250.6,119.72744972705841L259.55,119.76928896903992L268.5,119.83746643066407L277.45000000000005,119.87766094207764L286.4,119.90095753669739L295.35,119.9304049730301L304.3,119.94083662033081L313.25,119.93934960365296L322.2,119.94766337871552L331.15000000000003,119.94755072593689L340.09999999999997,119.94833929538727L349.05,119.95165128707886L358,119.95334107875824L366.95,119.95602221488953L375.9,119.95566172599793L384.85,119.95665307044983L393.79999999999995,119.95773453712464L402.75,119.95804996490479L411.70000000000005,119.95809502601624L420.65,119.95807249546051L429.6,119.95798237323761L438.55,119.95802743434906L447.5,119.95807249546051L456.45,119.95800490379334L465.40000000000003,119.95802743434906L474.34999999999997,119.95800490379334L483.3,119.95800490379334" style="fill: none;" fill="none"></path></g><g><path stroke="rgb(204, 51, 17)" stroke-width="2px" d="M44.75,59.45945234298707L53.7,97.18932373523712L62.65,116.29899759292603L71.6,126.44187076091767L80.55,126.67474658489228L89.5,128.67825372219087L98.44999999999999,131.24716515541078L107.4,133.9090827226639L116.35000000000001,135.21851356029512L125.3,134.34836096763613L134.25,133.7492058992386L143.2,135.7146589279175L152.15,136.59447712898256L161.1,136.4560719251633L170.04999999999998,136.8690344810486L179,137.17346735000612L187.95,137.33356947898866L196.89999999999998,137.3168067455292L205.85000000000002,137.5215869665146L214.8,137.5891786336899L223.75,137.73337419033052L232.70000000000002,137.76525492668154L241.65,137.71643121242525L250.6,137.66632325649263L259.55,137.6585727453232L268.5,137.69838423728945L277.45000000000005,137.70620234012605L286.4,137.7018539428711L295.35,137.69872219562532L304.3,137.70658535957338L313.25,137.70816249847414L322.2,137.70703597068788L331.15000000000003,137.7079371929169L340.09999999999997,137.70985229015352L349.05,137.70757670402529L358,137.70762176513674L366.95,137.70791466236116L375.9,137.70850045681001L384.85,137.7085680484772L393.79999999999995,137.70922143459322L402.75,137.70962698459627L411.70000000000005,137.70969457626344L420.65,137.7097396373749L429.6,137.70994241237642L438.55,137.70996494293215L447.5,137.70998747348787L456.45,137.71003253459932L465.40000000000003,137.70998747348787L474.34999999999997,137.70998747348787L483.3,137.70998747348787" style="fill: none;" fill="none"></path></g><g><path stroke="rgb(238, 51, 119)" stroke-width="2px" d="M44.75,62.70509154796601L53.7,86.50506384372711L62.65,121.49479157924652L71.6,129.86466772556307L80.55,124.40999765396118L89.5,131.95858998298647L98.44999999999999,133.34847743511202L107.4,137.31633360385896L116.35000000000001,137.4117955684662L125.3,138.12581140995027L134.25,140.0906561136246L143.2,138.64773173332216L152.15,138.61596364974977L161.1,139.31087357997896L170.04999999999998,139.34757585525514L179,139.2557863712311L187.95,139.3112565994263L196.89999999999998,139.39838225841524L205.85000000000002,139.41564066410066L214.8,139.41500980854036L223.75,139.42864079475405L232.70000000000002,139.39750356674196L241.65,139.43877954483034L250.6,139.45168955326082L259.55,139.4673708200455L268.5,139.46358568668367L277.45000000000005,139.47253031730654L286.4,139.49057729244234L295.35,139.50952548980715L304.3,139.51887567043306L313.25,139.52209753990175L322.2,139.52002472877504L331.15000000000003,139.52299876213075L340.09999999999997,139.52155680656435L349.05,139.5216919898987L358,139.523224067688L366.95,139.5228635787964L375.9,139.52281851768495L384.85,139.52263827323915L393.79999999999995,139.5227734565735L402.75,139.52315647602083L411.70000000000005,139.5233141899109L420.65,139.52342684268953L429.6,139.5234944343567L438.55,139.52344937324526L447.5,139.52353949546816L456.45,139.52353949546816L465.40000000000003,139.52351696491243L474.34999999999997,139.52351696491243L483.3,139.52353949546816" style="fill: none;" fill="none"></path></g></g></g></g></g><g><g opacity="0.992358"><span fill="rgb(0, 0, 0)" stroke="none" stroke-width="1px">Alt + Scroll to Zoom</span></g></g></g><g transform="translate(60, 378)" clip-path="url(#clip_1)"><clipPath id="clip_1"><rect width="537" height="22"></rect></clipPath><g><g><line x1="0" y1="0" x2="0" y2="5" style="visibility: inherit;" fill="rgb(0, 0, 0)" stroke="rgb(204, 204, 204)" stroke-width="1px"></line><line x1="44.75" y1="0" x2="44.75" y2="5" style="visibility: inherit;" fill="rgb(0, 0, 0)" stroke="rgb(204, 204, 204)" stroke-width="1px"></line><line x1="89.5" y1="0" x2="89.5" y2="5" style="visibility: inherit;" fill="rgb(0, 0, 0)" stroke="rgb(204, 204, 204)" stroke-width="1px"></line><line x1="134.25" y1="0" x2="134.25" y2="5" style="visibility: inherit;" fill="rgb(0, 0, 0)" stroke="rgb(204, 204, 204)" stroke-width="1px"></line><line x1="179" y1="0" x2="179" y2="5" style="visibility: inherit;" fill="rgb(0, 0, 0)" stroke="rgb(204, 204, 204)" stroke-width="1px"></line><line x1="223.75" y1="0" x2="223.75" y2="5" style="visibility: inherit;" fill="rgb(0, 0, 0)" stroke="rgb(204, 204, 204)" stroke-width="1px"></line><line x1="268.5" y1="0" x2="268.5" y2="5" style="visibility: inherit;" fill="rgb(0, 0, 0)" stroke="rgb(204, 204, 204)" stroke-width="1px"></line><line x1="313.25" y1="0" x2="313.25" y2="5" style="visibility: inherit;" fill="rgb(0, 0, 0)" stroke="rgb(204, 204, 204)" stroke-width="1px"></line><line x1="358" y1="0" x2="358" y2="5" style="visibility: inherit;" fill="rgb(0, 0, 0)" stroke="rgb(204, 204, 204)" stroke-width="1px"></line><line x1="402.75" y1="0" x2="402.75" y2="5" style="visibility: inherit;" fill="rgb(0, 0, 0)" stroke="rgb(204, 204, 204)" stroke-width="1px"></line><line x1="447.5" y1="0" x2="447.5" y2="5" style="visibility: inherit;" fill="rgb(0, 0, 0)" stroke="rgb(204, 204, 204)" stroke-width="1px"></line><line x1="492.25" y1="0" x2="492.25" y2="5" style="visibility: inherit;" fill="rgb(0, 0, 0)" stroke="rgb(204, 204, 204)" stroke-width="1px"></line><line x1="537" y1="0" x2="537" y2="5" style="visibility: inherit;" fill="rgb(0, 0, 0)" stroke="rgb(204, 204, 204)" stroke-width="1px"></line></g><g transform="translate(0, 8)"><text x="0" y="0" dx="0em" dy="0.95em" style="text-anchor: middle; visibility: hidden; font-family: Roboto, sans-serif; font-size: 12px; font-weight: 200;" fill="rgb(50, 49, 63)" stroke="none" stroke-width="1px">-5</text><text x="44.75" y="0" dx="0em" dy="0.95em" style="text-anchor: middle; visibility: inherit; font-family: Roboto, sans-serif; font-size: 12px; font-weight: 200;" fill="rgb(50, 49, 63)" stroke="none" stroke-width="1px">0</text><text x="89.5" y="0" dx="0em" dy="0.95em" style="text-anchor: middle; visibility: inherit; font-family: Roboto, sans-serif; font-size: 12px; font-weight: 200;" fill="rgb(50, 49, 63)" stroke="none" stroke-width="1px">5</text><text x="134.25" y="0" dx="0em" dy="0.95em" style="text-anchor: middle; visibility: inherit; font-family: Roboto, sans-serif; font-size: 12px; font-weight: 200;" fill="rgb(50, 49, 63)" stroke="none" stroke-width="1px">10</text><text x="179" y="0" dx="0em" dy="0.95em" style="text-anchor: middle; visibility: inherit; font-family: Roboto, sans-serif; font-size: 12px; font-weight: 200;" fill="rgb(50, 49, 63)" stroke="none" stroke-width="1px">15</text><text x="223.75" y="0" dx="0em" dy="0.95em" style="text-anchor: middle; visibility: inherit; font-family: Roboto, sans-serif; font-size: 12px; font-weight: 200;" fill="rgb(50, 49, 63)" stroke="none" stroke-width="1px">20</text><text x="268.5" y="0" dx="0em" dy="0.95em" style="text-anchor: middle; visibility: inherit; font-family: Roboto, sans-serif; font-size: 12px; font-weight: 200;" fill="rgb(50, 49, 63)" stroke="none" stroke-width="1px">25</text><text x="313.25" y="0" dx="0em" dy="0.95em" style="text-anchor: middle; visibility: inherit; font-family: Roboto, sans-serif; font-size: 12px; font-weight: 200;" fill="rgb(50, 49, 63)" stroke="none" stroke-width="1px">30</text><text x="358" y="0" dx="0em" dy="0.95em" style="text-anchor: middle; visibility: inherit; font-family: Roboto, sans-serif; font-size: 12px; font-weight: 200;" fill="rgb(50, 49, 63)" stroke="none" stroke-width="1px">35</text><text x="402.75" y="0" dx="0em" dy="0.95em" style="text-anchor: middle; visibility: inherit; font-family: Roboto, sans-serif; font-size: 12px; font-weight: 200;" fill="rgb(50, 49, 63)" stroke="none" stroke-width="1px">40</text><text x="447.5" y="0" dx="0em" dy="0.95em" style="text-anchor: middle; visibility: inherit; font-family: Roboto, sans-serif; font-size: 12px; font-weight: 200;" fill="rgb(50, 49, 63)" stroke="none" stroke-width="1px">45</text><text x="492.25" y="0" dx="0em" dy="0.95em" style="text-anchor: middle; visibility: inherit; font-family: Roboto, sans-serif; font-size: 12px; font-weight: 200;" fill="rgb(50, 49, 63)" stroke="none" stroke-width="1px">50</text><text x="537" y="0" dx="0em" dy="0.95em" style="text-anchor: middle; visibility: hidden; font-family: Roboto, sans-serif; font-size: 12px; font-weight: 200;" fill="rgb(50, 49, 63)" stroke="none" stroke-width="1px">55</text></g><line x1="0" y1="0" x2="537" y2="0" fill="rgb(0, 0, 0)" stroke="rgb(204, 204, 204)" stroke-width="1px"></line></g></g></g></g></svg>