<svg viewBox="0 0 597 400" xmlns="http://www.w3.org/2000/svg"><g><g><g><g><g><line x1="50" y1="378" x2="45" y2="378" style="visibility: inherit;" fill="rgb(0, 0, 0)" stroke="rgb(204, 204, 204)" stroke-width="1px"></line><line x1="50" y1="330.7500000000002" x2="45" y2="330.7500000000002" style="visibility: inherit;" fill="rgb(0, 0, 0)" stroke="rgb(204, 204, 204)" stroke-width="1px"></line><line x1="50" y1="283.5000000000001" x2="45" y2="283.5000000000001" style="visibility: inherit;" fill="rgb(0, 0, 0)" stroke="rgb(204, 204, 204)" stroke-width="1px"></line><line x1="50" y1="236.25000000000009" x2="45" y2="236.25000000000009" style="visibility: inherit;" fill="rgb(0, 0, 0)" stroke="rgb(204, 204, 204)" stroke-width="1px"></line><line x1="50" y1="189" x2="45" y2="189" style="visibility: inherit;" fill="rgb(0, 0, 0)" stroke="rgb(204, 204, 204)" stroke-width="1px"></line><line x1="50" y1="141.74999999999991" x2="45" y2="141.74999999999991" style="visibility: inherit;" fill="rgb(0, 0, 0)" stroke="rgb(204, 204, 204)" stroke-width="1px"></line><line x1="50" y1="94.49999999999987" x2="45" y2="94.49999999999987" style="visibility: inherit;" fill="rgb(0, 0, 0)" stroke="rgb(204, 204, 204)" stroke-width="1px"></line><line x1="50" y1="47.250000000000085" x2="45" y2="47.250000000000085" style="visibility: inherit;" fill="rgb(0, 0, 0)" stroke="rgb(204, 204, 204)" stroke-width="1px"></line><line x1="50" y1="0" x2="45" y2="0" style="visibility: inherit;" fill="rgb(0, 0, 0)" stroke="rgb(204, 204, 204)" stroke-width="1px"></line></g><g transform="translate(40, 0)"><text x="0" y="378" dx="0em" dy="0.3em" style="text-anchor: end; visibility: hidden; font-family: Roboto, sans-serif; font-size: 12px; font-weight: 200;" fill="rgb(50, 49, 63)" stroke="none" stroke-width="1px">0.8</text><text x="0" y="330.7500000000002" dx="0em" dy="0.3em" style="text-anchor: end; visibility: inherit; font-family: Roboto, sans-serif; font-size: 12px; font-weight: 200;" fill="rgb(50, 49, 63)" stroke="none" stroke-width="1px">0.82</text><text x="0" y="283.5000000000001" dx="0em" dy="0.3em" style="text-anchor: end; visibility: inherit; font-family: Roboto, sans-serif; font-size: 12px; font-weight: 200;" fill="rgb(50, 49, 63)" stroke="none" stroke-width="1px">0.84</text><text x="0" y="236.25000000000009" dx="0em" dy="0.3em" style="text-anchor: end; visibility: inherit; font-family: Roboto, sans-serif; font-size: 12px; font-weight: 200;" fill="rgb(50, 49, 63)" stroke="none" stroke-width="1px">0.86</text><text x="0" y="189" dx="0em" dy="0.3em" style="text-anchor: end; visibility: inherit; font-family: Roboto, sans-serif; font-size: 12px; font-weight: 200;" fill="rgb(50, 49, 63)" stroke="none" stroke-width="1px">0.88</text><text x="0" y="141.74999999999991" dx="0em" dy="0.3em" style="text-anchor: end; visibility: inherit; font-family: Roboto, sans-serif; font-size: 12px; font-weight: 200;" fill="rgb(50, 49, 63)" stroke="none" stroke-width="1px">0.9</text><text x="0" y="94.49999999999987" dx="0em" dy="0.3em" style="text-anchor: end; visibility: inherit; font-family: Roboto, sans-serif; font-size: 12px; font-weight: 200;" fill="rgb(50, 49, 63)" stroke="none" stroke-width="1px">0.92</text><text x="0" y="47.250000000000085" dx="0em" dy="0.3em" style="text-anchor: end; visibility: inherit; font-family: Roboto, sans-serif; font-size: 12px; font-weight: 200;" fill="rgb(50, 49, 63)" stroke="none" stroke-width="1px">0.94</text><text x="0" y="0" dx="0em" dy="0.3em" style="text-anchor: end; visibility: hidden; font-family: Roboto, sans-serif; font-size: 12px; font-weight: 200;" fill="rgb(50, 49, 63)" stroke="none" stroke-width="1px">0.96</text></g><line x1="50" y1="0" x2="50" y2="378" fill="rgb(0, 0, 0)" stroke="rgb(204, 204, 204)" stroke-width="1px"></line></g></g><g transform="translate(50, 0)" clip-path="url(#clip_0)"><clipPath id="clip_0"><rect width="547" height="378"></rect></clipPath><g><g><g><line x1="0" y1="0" x2="0" y2="378" fill="rgb(0, 0, 0)" stroke="rgb(60, 60, 60)" stroke-width="1px" opacity="0.25"></line><line x1="45.58333333333333" y1="0" x2="45.58333333333333" y2="378" fill="rgb(0, 0, 0)" stroke="rgb(60, 60, 60)" stroke-width="1px" opacity="0.25"></line><line x1="91.16666666666666" y1="0" x2="91.16666666666666" y2="378" fill="rgb(0, 0, 0)" stroke="rgb(60, 60, 60)" stroke-width="1px" opacity="0.25"></line><line x1="136.75" y1="0" x2="136.75" y2="378" fill="rgb(0, 0, 0)" stroke="rgb(60, 60, 60)" stroke-width="1px" opacity="0.25"></line><line x1="182.33333333333331" y1="0" x2="182.33333333333331" y2="378" fill="rgb(0, 0, 0)" stroke="rgb(60, 60, 60)" stroke-width="1px" opacity="0.25"></line><line x1="227.91666666666669" y1="0" x2="227.91666666666669" y2="378" fill="rgb(0, 0, 0)" stroke="rgb(60, 60, 60)" stroke-width="1px" opacity="0.25"></line><line x1="273.5" y1="0" x2="273.5" y2="378" fill="rgb(0, 0, 0)" stroke="rgb(60, 60, 60)" stroke-width="1px" opacity="0.25"></line><line x1="319.08333333333337" y1="0" x2="319.08333333333337" y2="378" fill="rgb(0, 0, 0)" stroke="rgb(60, 60, 60)" stroke-width="1px" opacity="0.25"></line><line x1="364.66666666666663" y1="0" x2="364.66666666666663" y2="378" fill="rgb(0, 0, 0)" stroke="rgb(60, 60, 60)" stroke-width="1px" opacity="0.25"></line><line x1="410.25" y1="0" x2="410.25" y2="378" fill="rgb(0, 0, 0)" stroke="rgb(60, 60, 60)" stroke-width="1px" opacity="0.25"></line><line x1="455.83333333333337" y1="0" x2="455.83333333333337" y2="378" fill="rgb(0, 0, 0)" stroke="rgb(60, 60, 60)" stroke-width="1px" opacity="0.25"></line><line x1="501.41666666666663" y1="0" x2="501.41666666666663" y2="378" fill="rgb(0, 0, 0)" stroke="rgb(60, 60, 60)" stroke-width="1px" opacity="0.25"></line><line x1="547" y1="0" x2="547" y2="378" fill="rgb(0, 0, 0)" stroke="rgb(60, 60, 60)" stroke-width="1px" opacity="0.25"></line></g><g><line x1="0" y1="378" x2="547" y2="378" fill="rgb(0, 0, 0)" stroke="rgb(60, 60, 60)" stroke-width="1px" opacity="0.25"></line><line x1="0" y1="330.7500000000002" x2="547" y2="330.7500000000002" fill="rgb(0, 0, 0)" stroke="rgb(60, 60, 60)" stroke-width="1px" opacity="0.25"></line><line x1="0" y1="283.5000000000001" x2="547" y2="283.5000000000001" fill="rgb(0, 0, 0)" stroke="rgb(60, 60, 60)" stroke-width="1px" opacity="0.25"></line><line x1="0" y1="236.25000000000009" x2="547" y2="236.25000000000009" fill="rgb(0, 0, 0)" stroke="rgb(60, 60, 60)" stroke-width="1px" opacity="0.25"></line><line x1="0" y1="189" x2="547" y2="189" fill="rgb(0, 0, 0)" stroke="rgb(60, 60, 60)" stroke-width="1px" opacity="0.25"></line><line x1="0" y1="141.74999999999991" x2="547" y2="141.74999999999991" fill="rgb(0, 0, 0)" stroke="rgb(60, 60, 60)" stroke-width="1px" opacity="0.25"></line><line x1="0" y1="94.49999999999987" x2="547" y2="94.49999999999987" fill="rgb(0, 0, 0)" stroke="rgb(60, 60, 60)" stroke-width="1px" opacity="0.25"></line><line x1="0" y1="47.250000000000085" x2="547" y2="47.250000000000085" fill="rgb(0, 0, 0)" stroke="rgb(60, 60, 60)" stroke-width="1px" opacity="0.25"></line><line x1="0" y1="0" x2="547" y2="0" fill="rgb(0, 0, 0)" stroke="rgb(60, 60, 60)" stroke-width="1px" opacity="0.25"></line></g></g></g><g><g><line x1="0" y1="2268.000000000001" x2="547" y2="2268.000000000001" fill="rgb(0, 0, 0)" stroke="rgb(153, 153, 153)" stroke-width="1.5px"></line></g></g><g><g><line x1="45.58333333333333" y1="0" x2="45.58333333333333" y2="378" fill="rgb(0, 0, 0)" stroke="rgb(153, 153, 153)" stroke-width="1.5px"></line></g></g><g><g><g><g><g><path stroke="rgb(0, 119, 187)" stroke-width="2px" d="M45.58333333333333,397.4344067573548L54.7,351.2776062190533L63.81666666666667,311.8013970851899L72.93333333333334,297.8328749835492L82.05,295.4036586284638L91.16666666666666,277.7911007702351L100.28333333333333,278.3984400629998L109.4,266.2519358396531L118.51666666666667,262.0007016062737L127.63333333333334,258.9640051424504L136.75,271.1105093657971L145.86666666666667,266.2519358396531L154.98333333333332,269.8958307802678L164.1,269.8958307802678L173.21666666666667,269.2884914875031L182.33333333333331,270.50317007303244L191.45,262.6079000830651L200.56666666666666,262.0007016062737L209.68333333333334,263.8225786685944L218.8,262.6079000830651L227.91666666666669,262.6079000830651L237.03333333333333,263.8225786685944L246.15,263.8225786685944L255.26666666666668,263.8225786685944L264.3833333333333,263.8225786685944L273.5,263.21523937582975L282.6166666666667,262.0007016062737L291.73333333333335,262.6079000830651L300.85,262.6079000830651L309.96666666666664,262.6079000830651L319.08333333333337,262.6079000830651L328.2,262.6079000830651L337.31666666666666,263.21523937582975L346.43333333333334,263.21523937582975L355.55,263.21523937582975L364.66666666666663,263.21523937582975L373.78333333333336,263.21523937582975L382.9,263.21523937582975L392.01666666666665,263.21523937582975L401.1333333333333,263.21523937582975L410.25,263.21523937582975L419.3666666666667,263.21523937582975L428.48333333333335,263.21523937582975L437.6,263.21523937582975L446.71666666666664,263.21523937582975L455.83333333333337,263.21523937582975L464.95,263.21523937582975L474.06666666666666,263.21523937582975L483.18333333333334,263.21523937582975L492.3,263.21523937582975" style="fill: none;" fill="none"></path></g><g><path stroke="rgb(51, 187, 238)" stroke-width="2px" d="M45.58333333333333,316.05263131856924L54.7,305.7281449735165L63.81666666666667,275.36188441514975L72.93333333333334,268.6812930107117L82.05,257.1419872641564L91.16666666666666,243.78080445528033L100.28333333333333,244.388143748045L109.4,240.7442488074303L118.51666666666667,235.885534465313L127.63333333333334,229.8122823536396L136.75,231.02696093916896L145.86666666666667,231.02696093916896L154.98333333333332,231.02696093916896L164.1,225.56104812026024L173.21666666666667,227.9904052913189L182.33333333333331,227.38306599855423L191.45,226.77572670578957L200.56666666666666,226.1683874130249L209.68333333333334,226.1683874130249L218.8,227.9904052913189L227.91666666666669,228.59774458408356L237.03333333333333,227.9904052913189L246.15,229.20494306087494L255.26666666666668,229.8122823536396L264.3833333333333,229.8122823536396L273.5,229.8122823536396L282.6166666666667,229.20494306087494L291.73333333333335,229.20494306087494L300.85,229.20494306087494L309.96666666666664,229.20494306087494L319.08333333333337,229.20494306087494L328.2,229.20494306087494L337.31666666666666,229.20494306087494L346.43333333333334,229.20494306087494L355.55,229.20494306087494L364.66666666666663,229.20494306087494L373.78333333333336,229.20494306087494L382.9,229.20494306087494L392.01666666666665,229.20494306087494L401.1333333333333,229.20494306087494L410.25,229.20494306087494L419.3666666666667,229.20494306087494L428.48333333333335,229.20494306087494L437.6,229.20494306087494L446.71666666666664,229.20494306087494L455.83333333333337,229.20494306087494L464.95,229.20494306087494L474.06666666666666,229.20494306087494L483.18333333333334,229.20494306087494L492.3,229.20494306087494" style="fill: none;" fill="none"></path></g><g><path stroke="rgb(0, 153, 136)" stroke-width="2px" d="M45.58333333333333,348.2410505712033L54.7,298.44021427631384L63.81666666666667,282.64967429637915L72.93333333333334,263.8225786685944L82.05,275.36188441514975L91.16666666666666,249.8540565669537L100.28333333333333,239.52957022190097L109.4,237.70755234360698L118.51666666666667,237.1002130508423L127.63333333333334,231.63430023193362L136.75,229.20494306087494L145.86666666666667,229.20494306087494L154.98333333333332,229.8122823536396L164.1,227.9904052913189L173.21666666666667,224.3463695347309L182.33333333333331,224.95370882749557L191.45,225.56104812026024L200.56666666666666,226.1683874130249L209.68333333333334,222.52435165643692L218.8,221.91715317964554L227.91666666666669,221.91715317964554L237.03333333333333,220.7024745941162L246.15,223.13169094920158L255.26666666666668,223.13169094920158L264.3833333333333,223.73903024196625L273.5,223.73903024196625L282.6166666666667,223.73903024196625L291.73333333333335,223.13169094920158L300.85,223.13169094920158L309.96666666666664,222.52435165643692L319.08333333333337,222.52435165643692L328.2,222.52435165643692L337.31666666666666,222.52435165643692L346.43333333333334,222.52435165643692L355.55,222.52435165643692L364.66666666666663,222.52435165643692L373.78333333333336,222.52435165643692L382.9,222.52435165643692L392.01666666666665,222.52435165643692L401.1333333333333,222.52435165643692L410.25,221.91715317964554L419.3666666666667,221.91715317964554L428.48333333333335,221.91715317964554L437.6,221.91715317964554L446.71666666666664,221.91715317964554L455.83333333333337,221.91715317964554L464.95,221.91715317964554L474.06666666666666,221.91715317964554L483.18333333333334,221.91715317964554L492.3,221.91715317964554" style="fill: none;" fill="none"></path></g><g><path stroke="rgb(255, 112, 67)" stroke-width="2px" d="M45.58333333333333,308.76484143733984L54.7,297.2255356907845L63.81666666666667,254.712770909071L72.93333333333334,249.8540565669537L82.05,252.28341373801234L91.16666666666666,244.99548304080966L100.28333333333333,220.09513530135155L109.4,220.7024745941162L118.51666666666667,220.09513530135155L127.63333333333334,215.8437602519989L136.75,212.80720460414886L145.86666666666667,214.0218831896782L154.98333333333332,214.0218831896782L164.1,214.0218831896782L173.21666666666667,209.16316884756088L182.33333333333331,208.5559703707695L191.45,207.34129178524017L200.56666666666666,207.34129178524017L209.68333333333334,207.94863107800484L218.8,207.94863107800484L227.91666666666669,206.7339524924755L237.03333333333333,207.94863107800484L246.15,207.94863107800484L255.26666666666668,207.94863107800484L264.3833333333333,207.94863107800484L273.5,207.94863107800484L282.6166666666667,207.94863107800484L291.73333333333335,207.94863107800484L300.85,207.94863107800484L309.96666666666664,207.94863107800484L319.08333333333337,207.94863107800484L328.2,207.94863107800484L337.31666666666666,207.94863107800484L346.43333333333334,207.94863107800484L355.55,207.94863107800484L364.66666666666663,207.94863107800484L373.78333333333336,207.94863107800484L382.9,207.94863107800484L392.01666666666665,207.94863107800484L401.1333333333333,207.94863107800484L410.25,207.94863107800484L419.3666666666667,207.94863107800484L428.48333333333335,207.94863107800484L437.6,207.94863107800484L446.71666666666664,207.94863107800484L455.83333333333337,207.94863107800484L464.95,207.94863107800484L474.06666666666666,207.94863107800484L483.18333333333334,207.94863107800484L492.3,207.94863107800484" style="fill: none;" fill="none"></path></g><g><path stroke="rgb(204, 51, 17)" stroke-width="2px" d="M45.58333333333333,294.79631933569914L54.7,262.0007016062737L63.81666666666667,223.73903024196625L72.93333333333334,215.23656177520752L82.05,209.16316884756088L91.16666666666666,207.94863107800484L100.28333333333333,201.26803967356682L109.4,192.7654303908348L118.51666666666667,191.55075180530548L127.63333333333334,194.5874482691288L136.75,186.0848389863968L145.86666666666667,187.29951757192612L154.98333333333332,187.90685686469078L164.1,187.90685686469078L173.21666666666667,189.1215354502201L182.33333333333331,187.29951757192612L191.45,187.29951757192612L200.56666666666666,186.69217827916145L209.68333333333334,185.47749969363213L218.8,186.69217827916145L227.91666666666669,187.90685686469078L237.03333333333333,186.69217827916145L246.15,187.90685686469078L255.26666666666668,187.90685686469078L264.3833333333333,187.29951757192612L273.5,187.90685686469078L282.6166666666667,187.90685686469078L291.73333333333335,188.51419615745544L300.85,189.1215354502201L309.96666666666664,188.51419615745544L319.08333333333337,188.51419615745544L328.2,189.1215354502201L337.31666666666666,189.1215354502201L346.43333333333334,189.1215354502201L355.55,189.1215354502201L364.66666666666663,189.1215354502201L373.78333333333336,189.1215354502201L382.9,189.1215354502201L392.01666666666665,189.1215354502201L401.1333333333333,189.1215354502201L410.25,189.1215354502201L419.3666666666667,189.1215354502201L428.48333333333335,189.1215354502201L437.6,189.1215354502201L446.71666666666664,189.1215354502201L455.83333333333337,189.1215354502201L464.95,189.1215354502201L474.06666666666666,189.1215354502201L483.18333333333334,189.1215354502201L492.3,189.1215354502201" style="fill: none;" fill="none"></path></g><g><path stroke="rgb(238, 51, 119)" stroke-width="2px" d="M45.58333333333333,286.9010493457318L54.7,259.57134443521505L63.81666666666667,210.3778474330902L72.93333333333334,207.94863107800484L82.05,200.66070038080215L91.16666666666666,190.94341251254082L100.28333333333333,188.51419615745544L109.4,178.7969082891941L118.51666666666667,176.97489041090012L127.63333333333334,175.1530133485794L136.75,178.18956899642944L145.86666666666667,177.58222970366478L154.98333333333332,175.76035264134407L164.1,176.97489041090012L173.21666666666667,178.7969082891941L182.33333333333331,180.6189261674881L191.45,179.40424758195877L200.56666666666666,177.58222970366478L209.68333333333334,178.18956899642944L218.8,178.18956899642944L227.91666666666669,178.18956899642944L237.03333333333333,178.18956899642944L246.15,178.18956899642944L255.26666666666668,178.18956899642944L264.3833333333333,178.18956899642944L273.5,178.18956899642944L282.6166666666667,178.18956899642944L291.73333333333335,178.18956899642944L300.85,178.18956899642944L309.96666666666664,178.18956899642944L319.08333333333337,178.18956899642944L328.2,178.18956899642944L337.31666666666666,178.18956899642944L346.43333333333334,178.18956899642944L355.55,178.18956899642944L364.66666666666663,178.18956899642944L373.78333333333336,178.18956899642944L382.9,178.18956899642944L392.01666666666665,178.18956899642944L401.1333333333333,178.18956899642944L410.25,178.18956899642944L419.3666666666667,178.18956899642944L428.48333333333335,178.18956899642944L437.6,178.18956899642944L446.71666666666664,178.18956899642944L455.83333333333337,178.18956899642944L464.95,178.18956899642944L474.06666666666666,178.18956899642944L483.18333333333334,178.18956899642944L492.3,178.18956899642944" style="fill: none;" fill="none"></path></g></g></g></g></g></g><g transform="translate(50, 378)" clip-path="url(#clip_1)"><clipPath id="clip_1"><rect width="547" height="22"></rect></clipPath><g><g><line x1="0" y1="0" x2="0" y2="5" style="visibility: inherit;" fill="rgb(0, 0, 0)" stroke="rgb(204, 204, 204)" stroke-width="1px"></line><line x1="45.58333333333333" y1="0" x2="45.58333333333333" y2="5" style="visibility: inherit;" fill="rgb(0, 0, 0)" stroke="rgb(204, 204, 204)" stroke-width="1px"></line><line x1="91.16666666666666" y1="0" x2="91.16666666666666" y2="5" style="visibility: inherit;" fill="rgb(0, 0, 0)" stroke="rgb(204, 204, 204)" stroke-width="1px"></line><line x1="136.75" y1="0" x2="136.75" y2="5" style="visibility: inherit;" fill="rgb(0, 0, 0)" stroke="rgb(204, 204, 204)" stroke-width="1px"></line><line x1="182.33333333333331" y1="0" x2="182.33333333333331" y2="5" style="visibility: inherit;" fill="rgb(0, 0, 0)" stroke="rgb(204, 204, 204)" stroke-width="1px"></line><line x1="227.91666666666669" y1="0" x2="227.91666666666669" y2="5" style="visibility: inherit;" fill="rgb(0, 0, 0)" stroke="rgb(204, 204, 204)" stroke-width="1px"></line><line x1="273.5" y1="0" x2="273.5" y2="5" style="visibility: inherit;" fill="rgb(0, 0, 0)" stroke="rgb(204, 204, 204)" stroke-width="1px"></line><line x1="319.08333333333337" y1="0" x2="319.08333333333337" y2="5" style="visibility: inherit;" fill="rgb(0, 0, 0)" stroke="rgb(204, 204, 204)" stroke-width="1px"></line><line x1="364.66666666666663" y1="0" x2="364.66666666666663" y2="5" style="visibility: inherit;" fill="rgb(0, 0, 0)" stroke="rgb(204, 204, 204)" stroke-width="1px"></line><line x1="410.25" y1="0" x2="410.25" y2="5" style="visibility: inherit;" fill="rgb(0, 0, 0)" stroke="rgb(204, 204, 204)" stroke-width="1px"></line><line x1="455.83333333333337" y1="0" x2="455.83333333333337" y2="5" style="visibility: inherit;" fill="rgb(0, 0, 0)" stroke="rgb(204, 204, 204)" stroke-width="1px"></line><line x1="501.41666666666663" y1="0" x2="501.41666666666663" y2="5" style="visibility: inherit;" fill="rgb(0, 0, 0)" stroke="rgb(204, 204, 204)" stroke-width="1px"></line><line x1="547" y1="0" x2="547" y2="5" style="visibility: inherit;" fill="rgb(0, 0, 0)" stroke="rgb(204, 204, 204)" stroke-width="1px"></line></g><g transform="translate(0, 8)"><text x="0" y="0" dx="0em" dy="0.95em" style="text-anchor: middle; visibility: hidden; font-family: Roboto, sans-serif; font-size: 12px; font-weight: 200;" fill="rgb(50, 49, 63)" stroke="none" stroke-width="1px">-5</text><text x="45.58333333333333" y="0" dx="0em" dy="0.95em" style="text-anchor: middle; visibility: inherit; font-family: Roboto, sans-serif; font-size: 12px; font-weight: 200;" fill="rgb(50, 49, 63)" stroke="none" stroke-width="1px">0</text><text x="91.16666666666666" y="0" dx="0em" dy="0.95em" style="text-anchor: middle; visibility: inherit; font-family: Roboto, sans-serif; font-size: 12px; font-weight: 200;" fill="rgb(50, 49, 63)" stroke="none" stroke-width="1px">5</text><text x="136.75" y="0" dx="0em" dy="0.95em" style="text-anchor: middle; visibility: inherit; font-family: Roboto, sans-serif; font-size: 12px; font-weight: 200;" fill="rgb(50, 49, 63)" stroke="none" stroke-width="1px">10</text><text x="182.33333333333331" y="0" dx="0em" dy="0.95em" style="text-anchor: middle; visibility: inherit; font-family: Roboto, sans-serif; font-size: 12px; font-weight: 200;" fill="rgb(50, 49, 63)" stroke="none" stroke-width="1px">15</text><text x="227.91666666666669" y="0" dx="0em" dy="0.95em" style="text-anchor: middle; visibility: inherit; font-family: Roboto, sans-serif; font-size: 12px; font-weight: 200;" fill="rgb(50, 49, 63)" stroke="none" stroke-width="1px">20</text><text x="273.5" y="0" dx="0em" dy="0.95em" style="text-anchor: middle; visibility: inherit; font-family: Roboto, sans-serif; font-size: 12px; font-weight: 200;" fill="rgb(50, 49, 63)" stroke="none" stroke-width="1px">25</text><text x="319.08333333333337" y="0" dx="0em" dy="0.95em" style="text-anchor: middle; visibility: inherit; font-family: Roboto, sans-serif; font-size: 12px; font-weight: 200;" fill="rgb(50, 49, 63)" stroke="none" stroke-width="1px">30</text><text x="364.66666666666663" y="0" dx="0em" dy="0.95em" style="text-anchor: middle; visibility: inherit; font-family: Roboto, sans-serif; font-size: 12px; font-weight: 200;" fill="rgb(50, 49, 63)" stroke="none" stroke-width="1px">35</text><text x="410.25" y="0" dx="0em" dy="0.95em" style="text-anchor: middle; visibility: inherit; font-family: Roboto, sans-serif; font-size: 12px; font-weight: 200;" fill="rgb(50, 49, 63)" stroke="none" stroke-width="1px">40</text><text x="455.83333333333337" y="0" dx="0em" dy="0.95em" style="text-anchor: middle; visibility: inherit; font-family: Roboto, sans-serif; font-size: 12px; font-weight: 200;" fill="rgb(50, 49, 63)" stroke="none" stroke-width="1px">45</text><text x="501.41666666666663" y="0" dx="0em" dy="0.95em" style="text-anchor: middle; visibility: inherit; font-family: Roboto, sans-serif; font-size: 12px; font-weight: 200;" fill="rgb(50, 49, 63)" stroke="none" stroke-width="1px">50</text><text x="547" y="0" dx="0em" dy="0.95em" style="text-anchor: middle; visibility: hidden; font-family: Roboto, sans-serif; font-size: 12px; font-weight: 200;" fill="rgb(50, 49, 63)" stroke="none" stroke-width="1px">55</text></g><line x1="0" y1="0" x2="547" y2="0" fill="rgb(0, 0, 0)" stroke="rgb(204, 204, 204)" stroke-width="1px"></line></g></g></g></g></svg>