<svg viewBox="0 0 553.6666870117188 400" xmlns="http://www.w3.org/2000/svg"><g><g><g><g><g><line x1="60" y1="378" x2="55" y2="378" style="visibility: inherit;" fill="rgb(0, 0, 0)" stroke="rgb(204, 204, 204)" stroke-width="1px"></line><line x1="60" y1="343.6363636363636" x2="55" y2="343.6363636363636" style="visibility: inherit;" fill="rgb(0, 0, 0)" stroke="rgb(204, 204, 204)" stroke-width="1px"></line><line x1="60" y1="309.27272727272725" x2="55" y2="309.27272727272725" style="visibility: inherit;" fill="rgb(0, 0, 0)" stroke="rgb(204, 204, 204)" stroke-width="1px"></line><line x1="60" y1="274.90909090909093" x2="55" y2="274.90909090909093" style="visibility: inherit;" fill="rgb(0, 0, 0)" stroke="rgb(204, 204, 204)" stroke-width="1px"></line><line x1="60" y1="240.54545454545453" x2="55" y2="240.54545454545453" style="visibility: inherit;" fill="rgb(0, 0, 0)" stroke="rgb(204, 204, 204)" stroke-width="1px"></line><line x1="60" y1="206.18181818181816" x2="55" y2="206.18181818181816" style="visibility: inherit;" fill="rgb(0, 0, 0)" stroke="rgb(204, 204, 204)" stroke-width="1px"></line><line x1="60" y1="171.81818181818184" x2="55" y2="171.81818181818184" style="visibility: inherit;" fill="rgb(0, 0, 0)" stroke="rgb(204, 204, 204)" stroke-width="1px"></line><line x1="60" y1="137.4545454545455" x2="55" y2="137.4545454545455" style="visibility: inherit;" fill="rgb(0, 0, 0)" stroke="rgb(204, 204, 204)" stroke-width="1px"></line><line x1="60" y1="103.09090909090912" x2="55" y2="103.09090909090912" style="visibility: inherit;" fill="rgb(0, 0, 0)" stroke="rgb(204, 204, 204)" stroke-width="1px"></line><line x1="60" y1="68.72727272727275" x2="55" y2="68.72727272727275" style="visibility: inherit;" fill="rgb(0, 0, 0)" stroke="rgb(204, 204, 204)" stroke-width="1px"></line><line x1="60" y1="34.363636363636374" x2="55" y2="34.363636363636374" style="visibility: inherit;" fill="rgb(0, 0, 0)" stroke="rgb(204, 204, 204)" stroke-width="1px"></line><line x1="60" y1="0" x2="55" y2="0" style="visibility: inherit;" fill="rgb(0, 0, 0)" stroke="rgb(204, 204, 204)" stroke-width="1px"></line></g><g transform="translate(50, 0)"><text x="0" y="378" dx="0em" dy="0.3em" style="text-anchor: end; visibility: hidden; font-family: Roboto, sans-serif; font-size: 12px; font-weight: 200;" fill="rgb(50, 49, 63)" stroke="none" stroke-width="1px">-0.05</text><text x="0" y="343.6363636363636" dx="0em" dy="0.3em" style="text-anchor: end; visibility: inherit; font-family: Roboto, sans-serif; font-size: 12px; font-weight: 200;" fill="rgb(50, 49, 63)" stroke="none" stroke-width="1px">0</text><text x="0" y="309.27272727272725" dx="0em" dy="0.3em" style="text-anchor: end; visibility: inherit; font-family: Roboto, sans-serif; font-size: 12px; font-weight: 200;" fill="rgb(50, 49, 63)" stroke="none" stroke-width="1px">0.05</text><text x="0" y="274.90909090909093" dx="0em" dy="0.3em" style="text-anchor: end; visibility: inherit; font-family: Roboto, sans-serif; font-size: 12px; font-weight: 200;" fill="rgb(50, 49, 63)" stroke="none" stroke-width="1px">0.1</text><text x="0" y="240.54545454545453" dx="0em" dy="0.3em" style="text-anchor: end; visibility: inherit; font-family: Roboto, sans-serif; font-size: 12px; font-weight: 200;" fill="rgb(50, 49, 63)" stroke="none" stroke-width="1px">0.15</text><text x="0" y="206.18181818181816" dx="0em" dy="0.3em" style="text-anchor: end; visibility: inherit; font-family: Roboto, sans-serif; font-size: 12px; font-weight: 200;" fill="rgb(50, 49, 63)" stroke="none" stroke-width="1px">0.2</text><text x="0" y="171.81818181818184" dx="0em" dy="0.3em" style="text-anchor: end; visibility: inherit; font-family: Roboto, sans-serif; font-size: 12px; font-weight: 200;" fill="rgb(50, 49, 63)" stroke="none" stroke-width="1px">0.25</text><text x="0" y="137.4545454545455" dx="0em" dy="0.3em" style="text-anchor: end; visibility: inherit; font-family: Roboto, sans-serif; font-size: 12px; font-weight: 200;" fill="rgb(50, 49, 63)" stroke="none" stroke-width="1px">0.3</text><text x="0" y="103.09090909090912" dx="0em" dy="0.3em" style="text-anchor: end; visibility: inherit; font-family: Roboto, sans-serif; font-size: 12px; font-weight: 200;" fill="rgb(50, 49, 63)" stroke="none" stroke-width="1px">0.35</text><text x="0" y="68.72727272727275" dx="0em" dy="0.3em" style="text-anchor: end; visibility: inherit; font-family: Roboto, sans-serif; font-size: 12px; font-weight: 200;" fill="rgb(50, 49, 63)" stroke="none" stroke-width="1px">0.4</text><text x="0" y="34.363636363636374" dx="0em" dy="0.3em" style="text-anchor: end; visibility: inherit; font-family: Roboto, sans-serif; font-size: 12px; font-weight: 200;" fill="rgb(50, 49, 63)" stroke="none" stroke-width="1px">0.45</text><text x="0" y="0" dx="0em" dy="0.3em" style="text-anchor: end; visibility: hidden; font-family: Roboto, sans-serif; font-size: 12px; font-weight: 200;" fill="rgb(50, 49, 63)" stroke="none" stroke-width="1px">0.5</text></g><line x1="60" y1="0" x2="60" y2="378" fill="rgb(0, 0, 0)" stroke="rgb(204, 204, 204)" stroke-width="1px"></line></g></g><g transform="translate(60, 0)" clip-path="url(#clip_0)"><clipPath id="clip_0"><rect width="493" height="378"></rect></clipPath><g><g><g><line x1="0" y1="0" x2="0" y2="378" fill="rgb(0, 0, 0)" stroke="rgb(60, 60, 60)" stroke-width="1px" opacity="0.25"></line><line x1="41.13891666666667" y1="0" x2="41.13891666666667" y2="378" fill="rgb(0, 0, 0)" stroke="rgb(60, 60, 60)" stroke-width="1px" opacity="0.25"></line><line x1="82.27783333333333" y1="0" x2="82.27783333333333" y2="378" fill="rgb(0, 0, 0)" stroke="rgb(60, 60, 60)" stroke-width="1px" opacity="0.25"></line><line x1="123.41675000000001" y1="0" x2="123.41675000000001" y2="378" fill="rgb(0, 0, 0)" stroke="rgb(60, 60, 60)" stroke-width="1px" opacity="0.25"></line><line x1="164.55566666666667" y1="0" x2="164.55566666666667" y2="378" fill="rgb(0, 0, 0)" stroke="rgb(60, 60, 60)" stroke-width="1px" opacity="0.25"></line><line x1="205.69458333333336" y1="0" x2="205.69458333333336" y2="378" fill="rgb(0, 0, 0)" stroke="rgb(60, 60, 60)" stroke-width="1px" opacity="0.25"></line><line x1="246.83350000000002" y1="0" x2="246.83350000000002" y2="378" fill="rgb(0, 0, 0)" stroke="rgb(60, 60, 60)" stroke-width="1px" opacity="0.25"></line><line x1="287.9724166666667" y1="0" x2="287.9724166666667" y2="378" fill="rgb(0, 0, 0)" stroke="rgb(60, 60, 60)" stroke-width="1px" opacity="0.25"></line><line x1="329.11133333333333" y1="0" x2="329.11133333333333" y2="378" fill="rgb(0, 0, 0)" stroke="rgb(60, 60, 60)" stroke-width="1px" opacity="0.25"></line><line x1="370.25025000000005" y1="0" x2="370.25025000000005" y2="378" fill="rgb(0, 0, 0)" stroke="rgb(60, 60, 60)" stroke-width="1px" opacity="0.25"></line><line x1="411.3891666666667" y1="0" x2="411.3891666666667" y2="378" fill="rgb(0, 0, 0)" stroke="rgb(60, 60, 60)" stroke-width="1px" opacity="0.25"></line><line x1="452.52808333333337" y1="0" x2="452.52808333333337" y2="378" fill="rgb(0, 0, 0)" stroke="rgb(60, 60, 60)" stroke-width="1px" opacity="0.25"></line><line x1="493.66700000000003" y1="0" x2="493.66700000000003" y2="378" fill="rgb(0, 0, 0)" stroke="rgb(60, 60, 60)" stroke-width="1px" opacity="0.25"></line></g><g><line x1="0" y1="378" x2="493.66700000000003" y2="378" fill="rgb(0, 0, 0)" stroke="rgb(60, 60, 60)" stroke-width="1px" opacity="0.25"></line><line x1="0" y1="343.6363636363636" x2="493.66700000000003" y2="343.6363636363636" fill="rgb(0, 0, 0)" stroke="rgb(60, 60, 60)" stroke-width="1px" opacity="0.25"></line><line x1="0" y1="309.27272727272725" x2="493.66700000000003" y2="309.27272727272725" fill="rgb(0, 0, 0)" stroke="rgb(60, 60, 60)" stroke-width="1px" opacity="0.25"></line><line x1="0" y1="274.90909090909093" x2="493.66700000000003" y2="274.90909090909093" fill="rgb(0, 0, 0)" stroke="rgb(60, 60, 60)" stroke-width="1px" opacity="0.25"></line><line x1="0" y1="240.54545454545453" x2="493.66700000000003" y2="240.54545454545453" fill="rgb(0, 0, 0)" stroke="rgb(60, 60, 60)" stroke-width="1px" opacity="0.25"></line><line x1="0" y1="206.18181818181816" x2="493.66700000000003" y2="206.18181818181816" fill="rgb(0, 0, 0)" stroke="rgb(60, 60, 60)" stroke-width="1px" opacity="0.25"></line><line x1="0" y1="171.81818181818184" x2="493.66700000000003" y2="171.81818181818184" fill="rgb(0, 0, 0)" stroke="rgb(60, 60, 60)" stroke-width="1px" opacity="0.25"></line><line x1="0" y1="137.4545454545455" x2="493.66700000000003" y2="137.4545454545455" fill="rgb(0, 0, 0)" stroke="rgb(60, 60, 60)" stroke-width="1px" opacity="0.25"></line><line x1="0" y1="103.09090909090912" x2="493.66700000000003" y2="103.09090909090912" fill="rgb(0, 0, 0)" stroke="rgb(60, 60, 60)" stroke-width="1px" opacity="0.25"></line><line x1="0" y1="68.72727272727275" x2="493.66700000000003" y2="68.72727272727275" fill="rgb(0, 0, 0)" stroke="rgb(60, 60, 60)" stroke-width="1px" opacity="0.25"></line><line x1="0" y1="34.363636363636374" x2="493.66700000000003" y2="34.363636363636374" fill="rgb(0, 0, 0)" stroke="rgb(60, 60, 60)" stroke-width="1px" opacity="0.25"></line><line x1="0" y1="0" x2="493.66700000000003" y2="0" fill="rgb(0, 0, 0)" stroke="rgb(60, 60, 60)" stroke-width="1px" opacity="0.25"></line></g></g></g><g><g><line x1="0" y1="343.6363636363636" x2="493.66700000000003" y2="343.6363636363636" fill="rgb(0, 0, 0)" stroke="rgb(153, 153, 153)" stroke-width="1.5px"></line></g></g><g><g><line x1="41.13891666666667" y1="0" x2="41.13891666666667" y2="378" fill="rgb(0, 0, 0)" stroke="rgb(153, 153, 153)" stroke-width="1.5px"></line></g></g><g><g><g><g><g><path stroke="rgb(0, 119, 187)" stroke-width="2px" d="M41.13891666666667,23.001014210961063L49.36670000000001,41.884159716692885L57.594483333333336,56.11038273031064L65.82226666666666,63.63534255461264L74.05005,74.31847182187173L82.27783333333333,80.48242222179067L90.50561666666667,85.5748603560708L98.73340000000002,87.37802169539714L106.96118333333334,89.53509710051799L115.18896666666667,90.84887428717184L123.41675000000001,91.79466605186467L131.64453333333333,94.64834527535876L139.87231666666668,93.55606393380603L148.1001,95.75516906651589L156.32788333333335,95.88693185286093L164.55566666666667,95.94479441642765L172.78345,96.69067870486867L181.01123333333334,96.73301566730849L189.23901666666669,96.82551383972172L197.46680000000003,96.65563344955449L205.69458333333336,96.71546231616628L213.92236666666668,96.8383972211318L222.15015000000002,96.80931232192302L230.37793333333335,96.73674345016484L238.6057166666667,96.75654985687952L246.83350000000002,96.77156339992177L255.06128333333336,96.80320858955388L263.28906666666666,96.79565061222426L271.51685000000003,96.78780588236725L279.74463333333335,96.78895289247687L287.9724166666667,96.77774906158452L296.2002,96.78327928889883L304.4279833333334,96.7832383242521L312.6557666666667,96.7859215086157L320.88355,96.78672031922778L329.11133333333333,96.78594199093911L337.3391166666667,96.78510221568024L345.5669,96.78461063991897L353.79468333333335,96.78442629900849L362.0224666666667,96.78442629900849L370.25025000000005,96.78418051112783L378.47803333333337,96.7841190641577L386.7058166666667,96.7841190641577L394.93360000000007,96.7842214757746L403.16138333333333,96.78424195809802L411.3891666666667,96.78432388739157L419.61695000000003,96.78430340506816L427.84473333333335,96.78430340506816L436.0725166666667,96.78434436971494L444.30030000000005,96.78432388739157" style="fill: none;" fill="none"></path></g><g><path stroke="rgb(51, 187, 238)" stroke-width="2px" d="M41.13891666666667,46.46984468806879L49.36670000000001,72.57401282137091L57.594483333333336,83.81336006251252L65.82226666666666,97.24134596911347L74.05005,104.97952677986841L82.27783333333333,109.96129892089152L90.50561666666667,111.39782667160038L98.73340000000002,117.34761389819062L106.96118333333334,119.18438673019413L115.18896666666667,121.24812418764289L123.41675000000001,122.08566687323832L131.64453333333333,124.24020247025928L139.87231666666668,123.07795351201841L148.1001,123.57514142990117L156.32788333333335,124.95964407920842L164.55566666666667,124.95450301603842L172.78345,124.91697939959442L181.01123333333334,125.33883333206181L189.23901666666669,125.59371536428282L197.46680000000003,125.34358523108745L205.69458333333336,125.38713065060703L213.92236666666668,125.30430013483222L222.15015000000002,125.33184885978703L230.37793333333335,125.34139362248509L238.6057166666667,125.42090600187132L246.83350000000002,125.42428558523008L255.06128333333336,125.44112205505375L263.28906666666666,125.47266483306889L271.51685000000003,125.47530705278571L279.74463333333335,125.47391425479543L287.9724166666667,125.48737114126035L296.2002,125.49146760593764L304.4279833333334,125.49157001755457L312.6557666666667,125.49171339381826L320.88355,125.4915495352312L329.11133333333333,125.4921435226094L337.3391166666667,125.49216400493276L345.5669,125.49181580543522L353.79468333333335,125.49165194684812L362.0224666666667,125.4915495352312L370.25025000000005,125.49163146452474L378.47803333333337,125.49163146452474L386.7058166666667,125.49177484078845L394.93360000000007,125.491856770082L403.16138333333333,125.49181580543522L411.3891666666667,125.49183628775859L419.61695000000003,125.491856770082L427.84473333333335,125.491856770082L436.0725166666667,125.491856770082L444.30030000000005,125.49187725240537" style="fill: none;" fill="none"></path></g><g><path stroke="rgb(0, 153, 136)" stroke-width="2px" d="M41.13891666666667,71.93770896304738L49.36670000000001,96.36482542211363L57.594483333333336,117.57269414988434L65.82226666666666,127.67938939007847L74.05005,130.53222883831373L82.27783333333333,140.52147843620995L90.50561666666667,145.80223105170512L98.73340000000002,145.35192717205396L106.96118333333334,147.36959988420662L115.18896666666667,147.94111815365878L123.41675000000001,148.75025185671723L131.64453333333333,150.2535724639893L139.87231666666668,150.23923483761874L148.1001,150.4584366625006L156.32788333333335,150.57000387798658L164.55566666666667,150.8217521147295L172.78345,150.82054365764967L181.01123333333334,151.00170980800283L189.23901666666669,151.03499358350584L197.46680000000003,150.89602101932874L205.69458333333336,150.91857205737722L213.92236666666668,151.0466685078361L222.15015000000002,151.04883963411507L230.37793333333335,151.02223309603608L238.6057166666667,150.99947723475373L246.83350000000002,151.01954991167244L255.06128333333336,150.99374218420553L263.28906666666666,150.9895023432645L271.51685000000003,151.00097244436094L279.74463333333335,151.00429058074954L287.9724166666667,151.01526910608467L296.2002,151.01467511870646L304.4279833333334,151.01365100253713L312.6557666666667,151.01696913892576L320.88355,151.0182595252991L329.11133333333333,151.02073788642886L337.3391166666667,151.02270418947396L345.5669,151.02268370715058L353.79468333333335,151.0229499773546L362.0224666666667,151.02297045967796L370.25025000000005,151.02303190664816L378.47803333333337,151.02335962382233L386.7058166666667,151.02335962382233L394.93360000000007,151.02344155311587L403.16138333333333,151.02346203543925L411.3891666666667,151.02350300008604L419.61695000000003,151.02350300008604L427.84473333333335,151.02348251776266L436.0725166666667,151.02350300008604L444.30030000000005,151.02350300008604" style="fill: none;" fill="none"></path></g><g><path stroke="rgb(255, 112, 67)" stroke-width="2px" d="M41.13891666666667,105.9281246228652L49.36670000000001,141.02118567986926L57.594483333333336,159.33322256261656L65.82226666666666,164.70970955761996L74.05005,167.2549659555609L82.27783333333333,167.3858684843237L90.50561666666667,167.15013742446902L98.73340000000002,169.4164860248566L106.96118333333334,169.06656601212242L115.18896666666667,170.22447271780536L123.41675000000001,172.57019032131544L131.64453333333333,173.07397354732862L139.87231666666668,172.71137497641826L148.1001,173.3189421350306L156.32788333333335,173.3828469839963L164.55566666666667,173.32381692799655L172.78345,172.90817938067698L181.01123333333334,173.18446544083682L189.23901666666669,173.16174030303958L197.46680000000003,173.15300459211525L205.69458333333336,173.16947238011798L213.92236666666668,173.24459130113777L222.15015000000002,173.363962281834L230.37793333333335,173.37793122638357L238.6057166666667,173.3684171871706L246.83350000000002,173.39370261539113L255.06128333333336,173.40614562684843L263.28906666666666,173.41595665975055L271.51685000000003,173.41853743249723L279.74463333333335,173.418578397144L287.9724166666667,173.4229820966721L296.2002,173.42136399312457L304.4279833333334,173.42104651711205L312.6557666666667,173.4226338971745L320.88355,173.42255196788096L329.11133333333333,173.42296161434868L337.3391166666667,173.4232688491995L345.5669,173.42339174313983L353.79468333333335,173.4235556017269L362.0224666666667,173.42368873682892L370.25025000000005,173.4234327077866L378.47803333333337,173.42359656637367L386.7058166666667,173.42361704869708L394.93360000000007,173.423719460314L403.16138333333333,173.42366825450551L411.3891666666667,173.42368873682892L419.61695000000003,173.423719460314L427.84473333333335,173.4237297014757L436.0725166666667,173.4237297014757L444.30030000000005,173.42373994263735" style="fill: none;" fill="none"></path></g></g></g></g></g></g><g transform="translate(60, 378)" clip-path="url(#clip_1)"><clipPath id="clip_1"><rect width="493" height="22"></rect></clipPath><g><g><line x1="0" y1="0" x2="0" y2="5" style="visibility: inherit;" fill="rgb(0, 0, 0)" stroke="rgb(204, 204, 204)" stroke-width="1px"></line><line x1="41.13891666666667" y1="0" x2="41.13891666666667" y2="5" style="visibility: inherit;" fill="rgb(0, 0, 0)" stroke="rgb(204, 204, 204)" stroke-width="1px"></line><line x1="82.27783333333333" y1="0" x2="82.27783333333333" y2="5" style="visibility: inherit;" fill="rgb(0, 0, 0)" stroke="rgb(204, 204, 204)" stroke-width="1px"></line><line x1="123.41675000000001" y1="0" x2="123.41675000000001" y2="5" style="visibility: inherit;" fill="rgb(0, 0, 0)" stroke="rgb(204, 204, 204)" stroke-width="1px"></line><line x1="164.55566666666667" y1="0" x2="164.55566666666667" y2="5" style="visibility: inherit;" fill="rgb(0, 0, 0)" stroke="rgb(204, 204, 204)" stroke-width="1px"></line><line x1="205.69458333333336" y1="0" x2="205.69458333333336" y2="5" style="visibility: inherit;" fill="rgb(0, 0, 0)" stroke="rgb(204, 204, 204)" stroke-width="1px"></line><line x1="246.83350000000002" y1="0" x2="246.83350000000002" y2="5" style="visibility: inherit;" fill="rgb(0, 0, 0)" stroke="rgb(204, 204, 204)" stroke-width="1px"></line><line x1="287.9724166666667" y1="0" x2="287.9724166666667" y2="5" style="visibility: inherit;" fill="rgb(0, 0, 0)" stroke="rgb(204, 204, 204)" stroke-width="1px"></line><line x1="329.11133333333333" y1="0" x2="329.11133333333333" y2="5" style="visibility: inherit;" fill="rgb(0, 0, 0)" stroke="rgb(204, 204, 204)" stroke-width="1px"></line><line x1="370.25025000000005" y1="0" x2="370.25025000000005" y2="5" style="visibility: inherit;" fill="rgb(0, 0, 0)" stroke="rgb(204, 204, 204)" stroke-width="1px"></line><line x1="411.3891666666667" y1="0" x2="411.3891666666667" y2="5" style="visibility: inherit;" fill="rgb(0, 0, 0)" stroke="rgb(204, 204, 204)" stroke-width="1px"></line><line x1="452.52808333333337" y1="0" x2="452.52808333333337" y2="5" style="visibility: inherit;" fill="rgb(0, 0, 0)" stroke="rgb(204, 204, 204)" stroke-width="1px"></line><line x1="493.66700000000003" y1="0" x2="493.66700000000003" y2="5" style="visibility: inherit;" fill="rgb(0, 0, 0)" stroke="rgb(204, 204, 204)" stroke-width="1px"></line></g><g transform="translate(0, 8)"><text x="0" y="0" dx="0em" dy="0.95em" style="text-anchor: middle; visibility: hidden; font-family: Roboto, sans-serif; font-size: 12px; font-weight: 200;" fill="rgb(50, 49, 63)" stroke="none" stroke-width="1px">-5</text><text x="41.13891666666667" y="0" dx="0em" dy="0.95em" style="text-anchor: middle; visibility: inherit; font-family: Roboto, sans-serif; font-size: 12px; font-weight: 200;" fill="rgb(50, 49, 63)" stroke="none" stroke-width="1px">0</text><text x="82.27783333333333" y="0" dx="0em" dy="0.95em" style="text-anchor: middle; visibility: inherit; font-family: Roboto, sans-serif; font-size: 12px; font-weight: 200;" fill="rgb(50, 49, 63)" stroke="none" stroke-width="1px">5</text><text x="123.41675000000001" y="0" dx="0em" dy="0.95em" style="text-anchor: middle; visibility: inherit; font-family: Roboto, sans-serif; font-size: 12px; font-weight: 200;" fill="rgb(50, 49, 63)" stroke="none" stroke-width="1px">10</text><text x="164.55566666666667" y="0" dx="0em" dy="0.95em" style="text-anchor: middle; visibility: inherit; font-family: Roboto, sans-serif; font-size: 12px; font-weight: 200;" fill="rgb(50, 49, 63)" stroke="none" stroke-width="1px">15</text><text x="205.69458333333336" y="0" dx="0em" dy="0.95em" style="text-anchor: middle; visibility: inherit; font-family: Roboto, sans-serif; font-size: 12px; font-weight: 200;" fill="rgb(50, 49, 63)" stroke="none" stroke-width="1px">20</text><text x="246.83350000000002" y="0" dx="0em" dy="0.95em" style="text-anchor: middle; visibility: inherit; font-family: Roboto, sans-serif; font-size: 12px; font-weight: 200;" fill="rgb(50, 49, 63)" stroke="none" stroke-width="1px">25</text><text x="287.9724166666667" y="0" dx="0em" dy="0.95em" style="text-anchor: middle; visibility: inherit; font-family: Roboto, sans-serif; font-size: 12px; font-weight: 200;" fill="rgb(50, 49, 63)" stroke="none" stroke-width="1px">30</text><text x="329.11133333333333" y="0" dx="0em" dy="0.95em" style="text-anchor: middle; visibility: inherit; font-family: Roboto, sans-serif; font-size: 12px; font-weight: 200;" fill="rgb(50, 49, 63)" stroke="none" stroke-width="1px">35</text><text x="370.25025000000005" y="0" dx="0em" dy="0.95em" style="text-anchor: middle; visibility: inherit; font-family: Roboto, sans-serif; font-size: 12px; font-weight: 200;" fill="rgb(50, 49, 63)" stroke="none" stroke-width="1px">40</text><text x="411.3891666666667" y="0" dx="0em" dy="0.95em" style="text-anchor: middle; visibility: inherit; font-family: Roboto, sans-serif; font-size: 12px; font-weight: 200;" fill="rgb(50, 49, 63)" stroke="none" stroke-width="1px">45</text><text x="452.52808333333337" y="0" dx="0em" dy="0.95em" style="text-anchor: middle; visibility: inherit; font-family: Roboto, sans-serif; font-size: 12px; font-weight: 200;" fill="rgb(50, 49, 63)" stroke="none" stroke-width="1px">50</text><text x="493.66700000000003" y="0" dx="0em" dy="0.95em" style="text-anchor: middle; visibility: hidden; font-family: Roboto, sans-serif; font-size: 12px; font-weight: 200;" fill="rgb(50, 49, 63)" stroke="none" stroke-width="1px">55</text></g><line x1="0" y1="0" x2="493.66700000000003" y2="0" fill="rgb(0, 0, 0)" stroke="rgb(204, 204, 204)" stroke-width="1px"></line></g></g></g></g></svg>