<svg viewBox="0 0 553.6666870117188 400" xmlns="http://www.w3.org/2000/svg"><g><g><g><g><g><line x1="50" y1="378" x2="45" y2="378" style="visibility: inherit;" fill="rgb(0, 0, 0)" stroke="rgb(204, 204, 204)" stroke-width="1px"></line><line x1="50" y1="330.7500000000002" x2="45" y2="330.7500000000002" style="visibility: inherit;" fill="rgb(0, 0, 0)" stroke="rgb(204, 204, 204)" stroke-width="1px"></line><line x1="50" y1="283.5000000000001" x2="45" y2="283.5000000000001" style="visibility: inherit;" fill="rgb(0, 0, 0)" stroke="rgb(204, 204, 204)" stroke-width="1px"></line><line x1="50" y1="236.25000000000009" x2="45" y2="236.25000000000009" style="visibility: inherit;" fill="rgb(0, 0, 0)" stroke="rgb(204, 204, 204)" stroke-width="1px"></line><line x1="50" y1="189" x2="45" y2="189" style="visibility: inherit;" fill="rgb(0, 0, 0)" stroke="rgb(204, 204, 204)" stroke-width="1px"></line><line x1="50" y1="141.74999999999991" x2="45" y2="141.74999999999991" style="visibility: inherit;" fill="rgb(0, 0, 0)" stroke="rgb(204, 204, 204)" stroke-width="1px"></line><line x1="50" y1="94.49999999999987" x2="45" y2="94.49999999999987" style="visibility: inherit;" fill="rgb(0, 0, 0)" stroke="rgb(204, 204, 204)" stroke-width="1px"></line><line x1="50" y1="47.250000000000085" x2="45" y2="47.250000000000085" style="visibility: inherit;" fill="rgb(0, 0, 0)" stroke="rgb(204, 204, 204)" stroke-width="1px"></line><line x1="50" y1="0" x2="45" y2="0" style="visibility: inherit;" fill="rgb(0, 0, 0)" stroke="rgb(204, 204, 204)" stroke-width="1px"></line></g><g transform="translate(40, 0)"><text x="0" y="378" dx="0em" dy="0.3em" style="text-anchor: end; visibility: hidden; font-family: Roboto, sans-serif; font-size: 12px; font-weight: 200;" fill="rgb(50, 49, 63)" stroke="none" stroke-width="1px">0.8</text><text x="0" y="330.7500000000002" dx="0em" dy="0.3em" style="text-anchor: end; visibility: inherit; font-family: Roboto, sans-serif; font-size: 12px; font-weight: 200;" fill="rgb(50, 49, 63)" stroke="none" stroke-width="1px">0.82</text><text x="0" y="283.5000000000001" dx="0em" dy="0.3em" style="text-anchor: end; visibility: inherit; font-family: Roboto, sans-serif; font-size: 12px; font-weight: 200;" fill="rgb(50, 49, 63)" stroke="none" stroke-width="1px">0.84</text><text x="0" y="236.25000000000009" dx="0em" dy="0.3em" style="text-anchor: end; visibility: inherit; font-family: Roboto, sans-serif; font-size: 12px; font-weight: 200;" fill="rgb(50, 49, 63)" stroke="none" stroke-width="1px">0.86</text><text x="0" y="189" dx="0em" dy="0.3em" style="text-anchor: end; visibility: inherit; font-family: Roboto, sans-serif; font-size: 12px; font-weight: 200;" fill="rgb(50, 49, 63)" stroke="none" stroke-width="1px">0.88</text><text x="0" y="141.74999999999991" dx="0em" dy="0.3em" style="text-anchor: end; visibility: inherit; font-family: Roboto, sans-serif; font-size: 12px; font-weight: 200;" fill="rgb(50, 49, 63)" stroke="none" stroke-width="1px">0.9</text><text x="0" y="94.49999999999987" dx="0em" dy="0.3em" style="text-anchor: end; visibility: inherit; font-family: Roboto, sans-serif; font-size: 12px; font-weight: 200;" fill="rgb(50, 49, 63)" stroke="none" stroke-width="1px">0.92</text><text x="0" y="47.250000000000085" dx="0em" dy="0.3em" style="text-anchor: end; visibility: inherit; font-family: Roboto, sans-serif; font-size: 12px; font-weight: 200;" fill="rgb(50, 49, 63)" stroke="none" stroke-width="1px">0.94</text><text x="0" y="0" dx="0em" dy="0.3em" style="text-anchor: end; visibility: hidden; font-family: Roboto, sans-serif; font-size: 12px; font-weight: 200;" fill="rgb(50, 49, 63)" stroke="none" stroke-width="1px">0.96</text></g><line x1="50" y1="0" x2="50" y2="378" fill="rgb(0, 0, 0)" stroke="rgb(204, 204, 204)" stroke-width="1px"></line></g></g><g transform="translate(50, 0)" clip-path="url(#clip_0)"><clipPath id="clip_0"><rect width="503" height="378"></rect></clipPath><g><g><g><line x1="0" y1="0" x2="0" y2="378" fill="rgb(0, 0, 0)" stroke="rgb(60, 60, 60)" stroke-width="1px" opacity="0.25"></line><line x1="41.97225" y1="0" x2="41.97225" y2="378" fill="rgb(0, 0, 0)" stroke="rgb(60, 60, 60)" stroke-width="1px" opacity="0.25"></line><line x1="83.9445" y1="0" x2="83.9445" y2="378" fill="rgb(0, 0, 0)" stroke="rgb(60, 60, 60)" stroke-width="1px" opacity="0.25"></line><line x1="125.91675000000001" y1="0" x2="125.91675000000001" y2="378" fill="rgb(0, 0, 0)" stroke="rgb(60, 60, 60)" stroke-width="1px" opacity="0.25"></line><line x1="167.889" y1="0" x2="167.889" y2="378" fill="rgb(0, 0, 0)" stroke="rgb(60, 60, 60)" stroke-width="1px" opacity="0.25"></line><line x1="209.86125" y1="0" x2="209.86125" y2="378" fill="rgb(0, 0, 0)" stroke="rgb(60, 60, 60)" stroke-width="1px" opacity="0.25"></line><line x1="251.83350000000002" y1="0" x2="251.83350000000002" y2="378" fill="rgb(0, 0, 0)" stroke="rgb(60, 60, 60)" stroke-width="1px" opacity="0.25"></line><line x1="293.80575000000005" y1="0" x2="293.80575000000005" y2="378" fill="rgb(0, 0, 0)" stroke="rgb(60, 60, 60)" stroke-width="1px" opacity="0.25"></line><line x1="335.778" y1="0" x2="335.778" y2="378" fill="rgb(0, 0, 0)" stroke="rgb(60, 60, 60)" stroke-width="1px" opacity="0.25"></line><line x1="377.75025000000005" y1="0" x2="377.75025000000005" y2="378" fill="rgb(0, 0, 0)" stroke="rgb(60, 60, 60)" stroke-width="1px" opacity="0.25"></line><line x1="419.7225" y1="0" x2="419.7225" y2="378" fill="rgb(0, 0, 0)" stroke="rgb(60, 60, 60)" stroke-width="1px" opacity="0.25"></line><line x1="461.69475" y1="0" x2="461.69475" y2="378" fill="rgb(0, 0, 0)" stroke="rgb(60, 60, 60)" stroke-width="1px" opacity="0.25"></line><line x1="503.66700000000003" y1="0" x2="503.66700000000003" y2="378" fill="rgb(0, 0, 0)" stroke="rgb(60, 60, 60)" stroke-width="1px" opacity="0.25"></line></g><g><line x1="0" y1="378" x2="503.66700000000003" y2="378" fill="rgb(0, 0, 0)" stroke="rgb(60, 60, 60)" stroke-width="1px" opacity="0.25"></line><line x1="0" y1="330.7500000000002" x2="503.66700000000003" y2="330.7500000000002" fill="rgb(0, 0, 0)" stroke="rgb(60, 60, 60)" stroke-width="1px" opacity="0.25"></line><line x1="0" y1="283.5000000000001" x2="503.66700000000003" y2="283.5000000000001" fill="rgb(0, 0, 0)" stroke="rgb(60, 60, 60)" stroke-width="1px" opacity="0.25"></line><line x1="0" y1="236.25000000000009" x2="503.66700000000003" y2="236.25000000000009" fill="rgb(0, 0, 0)" stroke="rgb(60, 60, 60)" stroke-width="1px" opacity="0.25"></line><line x1="0" y1="189" x2="503.66700000000003" y2="189" fill="rgb(0, 0, 0)" stroke="rgb(60, 60, 60)" stroke-width="1px" opacity="0.25"></line><line x1="0" y1="141.74999999999991" x2="503.66700000000003" y2="141.74999999999991" fill="rgb(0, 0, 0)" stroke="rgb(60, 60, 60)" stroke-width="1px" opacity="0.25"></line><line x1="0" y1="94.49999999999987" x2="503.66700000000003" y2="94.49999999999987" fill="rgb(0, 0, 0)" stroke="rgb(60, 60, 60)" stroke-width="1px" opacity="0.25"></line><line x1="0" y1="47.250000000000085" x2="503.66700000000003" y2="47.250000000000085" fill="rgb(0, 0, 0)" stroke="rgb(60, 60, 60)" stroke-width="1px" opacity="0.25"></line><line x1="0" y1="0" x2="503.66700000000003" y2="0" fill="rgb(0, 0, 0)" stroke="rgb(60, 60, 60)" stroke-width="1px" opacity="0.25"></line></g></g></g><g><g><line x1="0" y1="2268.000000000001" x2="503.66700000000003" y2="2268.000000000001" fill="rgb(0, 0, 0)" stroke="rgb(153, 153, 153)" stroke-width="1.5px"></line></g></g><g><g><line x1="41.97225" y1="0" x2="41.97225" y2="378" fill="rgb(0, 0, 0)" stroke="rgb(153, 153, 153)" stroke-width="1.5px"></line></g></g><g><g><g><g><g><path stroke="rgb(0, 119, 187)" stroke-width="2px" d="M41.97225,360.38755479455L50.36670000000001,331.84317129850393L58.76115000000001,335.4872070550919L67.1556,316.6599706113339L75.55005,309.9793792068959L83.9445,294.79631933569914L92.33895,285.68637076020246L100.73340000000002,280.2204579412938L109.12785000000001,285.68637076020246L117.52230000000002,280.82779723405844L125.91675000000001,275.9690828919411L134.3112,277.18376147747045L142.70565,272.9325272440911L151.1001,275.9690828919411L159.49455,274.7545451223851L167.889,273.53986653685575L176.28345,274.1472058296204L184.6779,274.1472058296204L193.07235000000003,274.7545451223851L201.46680000000003,274.7545451223851L209.86125,275.9690828919411L218.25570000000002,276.5764221847058L226.65015000000002,275.9690828919411L235.04460000000003,276.5764221847058L243.43905,275.9690828919411L251.83350000000002,275.9690828919411L260.22795,275.9690828919411L268.6224,275.9690828919411L277.01685000000003,275.36188441514975L285.4113,275.36188441514975L293.80575000000005,275.36188441514975L302.2002,275.9690828919411L310.59465000000006,275.9690828919411L318.9891,275.9690828919411L327.38355,275.9690828919411L335.778,275.9690828919411L344.17245,275.9690828919411L352.5669,275.9690828919411L360.96135000000004,275.9690828919411L369.3558,275.9690828919411L377.75025000000005,275.9690828919411L386.14470000000006,275.9690828919411L394.53915,275.9690828919411L402.93360000000007,275.9690828919411L411.32805,275.9690828919411L419.7225,275.9690828919411L428.11695000000003,275.9690828919411L436.51140000000004,275.9690828919411L444.90585,275.9690828919411L453.30030000000005,275.9690828919411" style="fill: none;" fill="none"></path></g><g><path stroke="rgb(51, 187, 238)" stroke-width="2px" d="M41.97225,337.3090841174126L50.36670000000001,310.58671849966055L58.76115000000001,302.0842500329018L67.1556,277.7911007702351L75.55005,269.2884914875031L83.9445,271.1105093657971L92.33895,268.6812930107117L100.73340000000002,261.39336231350904L109.12785000000001,259.57134443521505L117.52230000000002,258.9640051424504L125.91675000000001,254.712770909071L134.3112,250.46139585971835L142.70565,252.890753030777L151.1001,253.49809232354167L159.49455,252.28341373801234L167.889,252.28341373801234L176.28345,252.890753030777L184.6779,253.49809232354167L193.07235000000003,252.890753030777L201.46680000000003,252.28341373801234L209.86125,252.28341373801234L218.25570000000002,252.890753030777L226.65015000000002,252.890753030777L235.04460000000003,252.890753030777L243.43905,253.49809232354167L251.83350000000002,254.10543161630633L260.22795,254.10543161630633L268.6224,254.10543161630633L277.01685000000003,254.10543161630633L285.4113,254.10543161630633L293.80575000000005,254.10543161630633L302.2002,254.10543161630633L310.59465000000006,254.10543161630633L318.9891,254.10543161630633L327.38355,254.10543161630633L335.778,254.10543161630633L344.17245,254.10543161630633L352.5669,254.10543161630633L360.96135000000004,254.10543161630633L369.3558,254.10543161630633L377.75025000000005,254.10543161630633L386.14470000000006,254.10543161630633L394.53915,254.10543161630633L402.93360000000007,254.10543161630633L411.32805,254.10543161630633L419.7225,254.10543161630633L428.11695000000003,254.10543161630633L436.51140000000004,254.10543161630633L444.90585,254.10543161630633L453.30030000000005,254.10543161630633" style="fill: none;" fill="none"></path></g><g><path stroke="rgb(0, 153, 136)" stroke-width="2px" d="M41.97225,309.9793792068959L50.36670000000001,282.04247581958776L58.76115000000001,249.24671727418902L67.1556,240.7442488074303L75.55005,243.17346516251567L83.9445,221.91715317964554L92.33895,212.80720460414886L100.73340000000002,212.80720460414886L109.12785000000001,207.34129178524017L117.52230000000002,212.80720460414886L125.91675000000001,214.0218831896782L134.3112,212.1998653113842L142.70565,212.80720460414886L151.1001,210.3778474330902L159.49455,212.80720460414886L167.889,212.80720460414886L176.28345,212.80720460414886L184.6779,210.98518672585487L193.07235000000003,210.98518672585487L201.46680000000003,211.59252601861954L209.86125,211.59252601861954L218.25570000000002,211.59252601861954L226.65015000000002,210.98518672585487L235.04460000000003,212.1998653113842L243.43905,212.1998653113842L251.83350000000002,212.1998653113842L260.22795,212.1998653113842L268.6224,211.59252601861954L277.01685000000003,211.59252601861954L285.4113,211.59252601861954L293.80575000000005,211.59252601861954L302.2002,211.59252601861954L310.59465000000006,211.59252601861954L318.9891,211.59252601861954L327.38355,211.59252601861954L335.778,211.59252601861954L344.17245,211.59252601861954L352.5669,211.59252601861954L360.96135000000004,211.59252601861954L369.3558,211.59252601861954L377.75025000000005,211.59252601861954L386.14470000000006,211.59252601861954L394.53915,211.59252601861954L402.93360000000007,211.59252601861954L411.32805,211.59252601861954L419.7225,211.59252601861954L428.11695000000003,211.59252601861954L436.51140000000004,211.59252601861954L444.90585,211.59252601861954L453.30030000000005,211.59252601861954" style="fill: none;" fill="none"></path></g><g><path stroke="rgb(255, 112, 67)" stroke-width="2px" d="M41.97225,265.6445965468884L50.36670000000001,226.1683874130249L58.76115000000001,200.66070038080215L67.1556,198.2313432097435L75.55005,191.55075180530548L83.9445,182.4409440457821L92.33895,174.54567405581474L100.73340000000002,167.86508265137672L109.12785000000001,169.07976123690605L117.52230000000002,163.61370760202408L125.91675000000001,163.61370760202408L134.3112,161.1844912469387L142.70565,163.61370760202408L151.1001,162.39916983246803L159.49455,159.36247336864471L167.889,160.57715195417404L176.28345,159.36247336864471L184.6779,160.57715195417404L193.07235000000003,162.39916983246803L201.46680000000003,161.79183053970337L209.86125,160.57715195417404L218.25570000000002,161.1844912469387L226.65015000000002,161.1844912469387L235.04460000000003,161.1844912469387L243.43905,162.39916983246803L251.83350000000002,162.39916983246803L260.22795,162.39916983246803L268.6224,162.39916983246803L277.01685000000003,162.39916983246803L285.4113,162.39916983246803L293.80575000000005,162.39916983246803L302.2002,162.39916983246803L310.59465000000006,162.39916983246803L318.9891,162.39916983246803L327.38355,162.39916983246803L335.778,162.39916983246803L344.17245,162.39916983246803L352.5669,162.39916983246803L360.96135000000004,162.39916983246803L369.3558,162.39916983246803L377.75025000000005,162.39916983246803L386.14470000000006,162.39916983246803L394.53915,162.39916983246803L402.93360000000007,162.39916983246803L411.32805,162.39916983246803L419.7225,162.39916983246803L428.11695000000003,162.39916983246803L436.51140000000004,162.39916983246803L444.90585,162.39916983246803L453.30030000000005,162.39916983246803" style="fill: none;" fill="none"></path></g></g></g></g></g></g><g transform="translate(50, 378)" clip-path="url(#clip_1)"><clipPath id="clip_1"><rect width="503" height="22"></rect></clipPath><g><g><line x1="0" y1="0" x2="0" y2="5" style="visibility: inherit;" fill="rgb(0, 0, 0)" stroke="rgb(204, 204, 204)" stroke-width="1px"></line><line x1="41.97225" y1="0" x2="41.97225" y2="5" style="visibility: inherit;" fill="rgb(0, 0, 0)" stroke="rgb(204, 204, 204)" stroke-width="1px"></line><line x1="83.9445" y1="0" x2="83.9445" y2="5" style="visibility: inherit;" fill="rgb(0, 0, 0)" stroke="rgb(204, 204, 204)" stroke-width="1px"></line><line x1="125.91675000000001" y1="0" x2="125.91675000000001" y2="5" style="visibility: inherit;" fill="rgb(0, 0, 0)" stroke="rgb(204, 204, 204)" stroke-width="1px"></line><line x1="167.889" y1="0" x2="167.889" y2="5" style="visibility: inherit;" fill="rgb(0, 0, 0)" stroke="rgb(204, 204, 204)" stroke-width="1px"></line><line x1="209.86125" y1="0" x2="209.86125" y2="5" style="visibility: inherit;" fill="rgb(0, 0, 0)" stroke="rgb(204, 204, 204)" stroke-width="1px"></line><line x1="251.83350000000002" y1="0" x2="251.83350000000002" y2="5" style="visibility: inherit;" fill="rgb(0, 0, 0)" stroke="rgb(204, 204, 204)" stroke-width="1px"></line><line x1="293.80575000000005" y1="0" x2="293.80575000000005" y2="5" style="visibility: inherit;" fill="rgb(0, 0, 0)" stroke="rgb(204, 204, 204)" stroke-width="1px"></line><line x1="335.778" y1="0" x2="335.778" y2="5" style="visibility: inherit;" fill="rgb(0, 0, 0)" stroke="rgb(204, 204, 204)" stroke-width="1px"></line><line x1="377.75025000000005" y1="0" x2="377.75025000000005" y2="5" style="visibility: inherit;" fill="rgb(0, 0, 0)" stroke="rgb(204, 204, 204)" stroke-width="1px"></line><line x1="419.7225" y1="0" x2="419.7225" y2="5" style="visibility: inherit;" fill="rgb(0, 0, 0)" stroke="rgb(204, 204, 204)" stroke-width="1px"></line><line x1="461.69475" y1="0" x2="461.69475" y2="5" style="visibility: inherit;" fill="rgb(0, 0, 0)" stroke="rgb(204, 204, 204)" stroke-width="1px"></line><line x1="503.66700000000003" y1="0" x2="503.66700000000003" y2="5" style="visibility: inherit;" fill="rgb(0, 0, 0)" stroke="rgb(204, 204, 204)" stroke-width="1px"></line></g><g transform="translate(0, 8)"><text x="0" y="0" dx="0em" dy="0.95em" style="text-anchor: middle; visibility: hidden; font-family: Roboto, sans-serif; font-size: 12px; font-weight: 200;" fill="rgb(50, 49, 63)" stroke="none" stroke-width="1px">-5</text><text x="41.97225" y="0" dx="0em" dy="0.95em" style="text-anchor: middle; visibility: inherit; font-family: Roboto, sans-serif; font-size: 12px; font-weight: 200;" fill="rgb(50, 49, 63)" stroke="none" stroke-width="1px">0</text><text x="83.9445" y="0" dx="0em" dy="0.95em" style="text-anchor: middle; visibility: inherit; font-family: Roboto, sans-serif; font-size: 12px; font-weight: 200;" fill="rgb(50, 49, 63)" stroke="none" stroke-width="1px">5</text><text x="125.91675000000001" y="0" dx="0em" dy="0.95em" style="text-anchor: middle; visibility: inherit; font-family: Roboto, sans-serif; font-size: 12px; font-weight: 200;" fill="rgb(50, 49, 63)" stroke="none" stroke-width="1px">10</text><text x="167.889" y="0" dx="0em" dy="0.95em" style="text-anchor: middle; visibility: inherit; font-family: Roboto, sans-serif; font-size: 12px; font-weight: 200;" fill="rgb(50, 49, 63)" stroke="none" stroke-width="1px">15</text><text x="209.86125" y="0" dx="0em" dy="0.95em" style="text-anchor: middle; visibility: inherit; font-family: Roboto, sans-serif; font-size: 12px; font-weight: 200;" fill="rgb(50, 49, 63)" stroke="none" stroke-width="1px">20</text><text x="251.83350000000002" y="0" dx="0em" dy="0.95em" style="text-anchor: middle; visibility: inherit; font-family: Roboto, sans-serif; font-size: 12px; font-weight: 200;" fill="rgb(50, 49, 63)" stroke="none" stroke-width="1px">25</text><text x="293.80575000000005" y="0" dx="0em" dy="0.95em" style="text-anchor: middle; visibility: inherit; font-family: Roboto, sans-serif; font-size: 12px; font-weight: 200;" fill="rgb(50, 49, 63)" stroke="none" stroke-width="1px">30</text><text x="335.778" y="0" dx="0em" dy="0.95em" style="text-anchor: middle; visibility: inherit; font-family: Roboto, sans-serif; font-size: 12px; font-weight: 200;" fill="rgb(50, 49, 63)" stroke="none" stroke-width="1px">35</text><text x="377.75025000000005" y="0" dx="0em" dy="0.95em" style="text-anchor: middle; visibility: inherit; font-family: Roboto, sans-serif; font-size: 12px; font-weight: 200;" fill="rgb(50, 49, 63)" stroke="none" stroke-width="1px">40</text><text x="419.7225" y="0" dx="0em" dy="0.95em" style="text-anchor: middle; visibility: inherit; font-family: Roboto, sans-serif; font-size: 12px; font-weight: 200;" fill="rgb(50, 49, 63)" stroke="none" stroke-width="1px">45</text><text x="461.69475" y="0" dx="0em" dy="0.95em" style="text-anchor: middle; visibility: inherit; font-family: Roboto, sans-serif; font-size: 12px; font-weight: 200;" fill="rgb(50, 49, 63)" stroke="none" stroke-width="1px">50</text><text x="503.66700000000003" y="0" dx="0em" dy="0.95em" style="text-anchor: middle; visibility: hidden; font-family: Roboto, sans-serif; font-size: 12px; font-weight: 200;" fill="rgb(50, 49, 63)" stroke="none" stroke-width="1px">55</text></g><line x1="0" y1="0" x2="503.66700000000003" y2="0" fill="rgb(0, 0, 0)" stroke="rgb(204, 204, 204)" stroke-width="1px"></line></g></g></g></g></svg>