<svg viewBox="0 0 529 400" xmlns="http://www.w3.org/2000/svg"><g><g><g><g><g><line x1="50" y1="378" x2="45" y2="378" style="visibility: inherit;" fill="rgb(0, 0, 0)" stroke="rgb(204, 204, 204)" stroke-width="1px"></line><line x1="50" y1="340.2" x2="45" y2="340.2" style="visibility: inherit;" fill="rgb(0, 0, 0)" stroke="rgb(204, 204, 204)" stroke-width="1px"></line><line x1="50" y1="302.3999999999999" x2="45" y2="302.3999999999999" style="visibility: inherit;" fill="rgb(0, 0, 0)" stroke="rgb(204, 204, 204)" stroke-width="1px"></line><line x1="50" y1="264.5999999999999" x2="45" y2="264.5999999999999" style="visibility: inherit;" fill="rgb(0, 0, 0)" stroke="rgb(204, 204, 204)" stroke-width="1px"></line><line x1="50" y1="226.7999999999998" x2="45" y2="226.7999999999998" style="visibility: inherit;" fill="rgb(0, 0, 0)" stroke="rgb(204, 204, 204)" stroke-width="1px"></line><line x1="50" y1="188.9999999999998" x2="45" y2="188.9999999999998" style="visibility: inherit;" fill="rgb(0, 0, 0)" stroke="rgb(204, 204, 204)" stroke-width="1px"></line><line x1="50" y1="151.19999999999976" x2="45" y2="151.19999999999976" style="visibility: inherit;" fill="rgb(0, 0, 0)" stroke="rgb(204, 204, 204)" stroke-width="1px"></line><line x1="50" y1="113.39999999999972" x2="45" y2="113.39999999999972" style="visibility: inherit;" fill="rgb(0, 0, 0)" stroke="rgb(204, 204, 204)" stroke-width="1px"></line><line x1="50" y1="75.59999999999965" x2="45" y2="75.59999999999965" style="visibility: inherit;" fill="rgb(0, 0, 0)" stroke="rgb(204, 204, 204)" stroke-width="1px"></line><line x1="50" y1="37.80000000000003" x2="45" y2="37.80000000000003" style="visibility: inherit;" fill="rgb(0, 0, 0)" stroke="rgb(204, 204, 204)" stroke-width="1px"></line><line x1="50" y1="0" x2="45" y2="0" style="visibility: inherit;" fill="rgb(0, 0, 0)" stroke="rgb(204, 204, 204)" stroke-width="1px"></line></g><g transform="translate(40, 0)"><text x="0" y="378" dx="0em" dy="0.3em" style="text-anchor: end; visibility: hidden; font-family: Roboto, sans-serif; font-size: 12px; font-weight: 200;" fill="rgb(50, 49, 63)" stroke="none" stroke-width="1px">0.85</text><text x="0" y="340.2" dx="0em" dy="0.3em" style="text-anchor: end; visibility: inherit; font-family: Roboto, sans-serif; font-size: 12px; font-weight: 200;" fill="rgb(50, 49, 63)" stroke="none" stroke-width="1px">0.86</text><text x="0" y="302.3999999999999" dx="0em" dy="0.3em" style="text-anchor: end; visibility: inherit; font-family: Roboto, sans-serif; font-size: 12px; font-weight: 200;" fill="rgb(50, 49, 63)" stroke="none" stroke-width="1px">0.87</text><text x="0" y="264.5999999999999" dx="0em" dy="0.3em" style="text-anchor: end; visibility: inherit; font-family: Roboto, sans-serif; font-size: 12px; font-weight: 200;" fill="rgb(50, 49, 63)" stroke="none" stroke-width="1px">0.88</text><text x="0" y="226.7999999999998" dx="0em" dy="0.3em" style="text-anchor: end; visibility: inherit; font-family: Roboto, sans-serif; font-size: 12px; font-weight: 200;" fill="rgb(50, 49, 63)" stroke="none" stroke-width="1px">0.89</text><text x="0" y="188.9999999999998" dx="0em" dy="0.3em" style="text-anchor: end; visibility: inherit; font-family: Roboto, sans-serif; font-size: 12px; font-weight: 200;" fill="rgb(50, 49, 63)" stroke="none" stroke-width="1px">0.9</text><text x="0" y="151.19999999999976" dx="0em" dy="0.3em" style="text-anchor: end; visibility: inherit; font-family: Roboto, sans-serif; font-size: 12px; font-weight: 200;" fill="rgb(50, 49, 63)" stroke="none" stroke-width="1px">0.91</text><text x="0" y="113.39999999999972" dx="0em" dy="0.3em" style="text-anchor: end; visibility: inherit; font-family: Roboto, sans-serif; font-size: 12px; font-weight: 200;" fill="rgb(50, 49, 63)" stroke="none" stroke-width="1px">0.92</text><text x="0" y="75.59999999999965" dx="0em" dy="0.3em" style="text-anchor: end; visibility: inherit; font-family: Roboto, sans-serif; font-size: 12px; font-weight: 200;" fill="rgb(50, 49, 63)" stroke="none" stroke-width="1px">0.93</text><text x="0" y="37.80000000000003" dx="0em" dy="0.3em" style="text-anchor: end; visibility: inherit; font-family: Roboto, sans-serif; font-size: 12px; font-weight: 200;" fill="rgb(50, 49, 63)" stroke="none" stroke-width="1px">0.94</text><text x="0" y="0" dx="0em" dy="0.3em" style="text-anchor: end; visibility: hidden; font-family: Roboto, sans-serif; font-size: 12px; font-weight: 200;" fill="rgb(50, 49, 63)" stroke="none" stroke-width="1px">0.95</text></g><line x1="50" y1="0" x2="50" y2="378" fill="rgb(0, 0, 0)" stroke="rgb(204, 204, 204)" stroke-width="1px"></line></g></g><g transform="translate(50, 0)" clip-path="url(#clip_0)"><clipPath id="clip_0"><rect width="479" height="378"></rect></clipPath><g><g><g><line x1="0" y1="0" x2="0" y2="378" fill="rgb(0, 0, 0)" stroke="rgb(60, 60, 60)" stroke-width="1px" opacity="0.25"></line><line x1="39.916666666666664" y1="0" x2="39.916666666666664" y2="378" fill="rgb(0, 0, 0)" stroke="rgb(60, 60, 60)" stroke-width="1px" opacity="0.25"></line><line x1="79.83333333333333" y1="0" x2="79.83333333333333" y2="378" fill="rgb(0, 0, 0)" stroke="rgb(60, 60, 60)" stroke-width="1px" opacity="0.25"></line><line x1="119.75" y1="0" x2="119.75" y2="378" fill="rgb(0, 0, 0)" stroke="rgb(60, 60, 60)" stroke-width="1px" opacity="0.25"></line><line x1="159.66666666666666" y1="0" x2="159.66666666666666" y2="378" fill="rgb(0, 0, 0)" stroke="rgb(60, 60, 60)" stroke-width="1px" opacity="0.25"></line><line x1="199.58333333333334" y1="0" x2="199.58333333333334" y2="378" fill="rgb(0, 0, 0)" stroke="rgb(60, 60, 60)" stroke-width="1px" opacity="0.25"></line><line x1="239.5" y1="0" x2="239.5" y2="378" fill="rgb(0, 0, 0)" stroke="rgb(60, 60, 60)" stroke-width="1px" opacity="0.25"></line><line x1="279.4166666666667" y1="0" x2="279.4166666666667" y2="378" fill="rgb(0, 0, 0)" stroke="rgb(60, 60, 60)" stroke-width="1px" opacity="0.25"></line><line x1="319.3333333333333" y1="0" x2="319.3333333333333" y2="378" fill="rgb(0, 0, 0)" stroke="rgb(60, 60, 60)" stroke-width="1px" opacity="0.25"></line><line x1="359.25" y1="0" x2="359.25" y2="378" fill="rgb(0, 0, 0)" stroke="rgb(60, 60, 60)" stroke-width="1px" opacity="0.25"></line><line x1="399.1666666666667" y1="0" x2="399.1666666666667" y2="378" fill="rgb(0, 0, 0)" stroke="rgb(60, 60, 60)" stroke-width="1px" opacity="0.25"></line><line x1="439.0833333333333" y1="0" x2="439.0833333333333" y2="378" fill="rgb(0, 0, 0)" stroke="rgb(60, 60, 60)" stroke-width="1px" opacity="0.25"></line><line x1="479" y1="0" x2="479" y2="378" fill="rgb(0, 0, 0)" stroke="rgb(60, 60, 60)" stroke-width="1px" opacity="0.25"></line></g><g><line x1="0" y1="378" x2="479" y2="378" fill="rgb(0, 0, 0)" stroke="rgb(60, 60, 60)" stroke-width="1px" opacity="0.25"></line><line x1="0" y1="340.2" x2="479" y2="340.2" fill="rgb(0, 0, 0)" stroke="rgb(60, 60, 60)" stroke-width="1px" opacity="0.25"></line><line x1="0" y1="302.3999999999999" x2="479" y2="302.3999999999999" fill="rgb(0, 0, 0)" stroke="rgb(60, 60, 60)" stroke-width="1px" opacity="0.25"></line><line x1="0" y1="264.5999999999999" x2="479" y2="264.5999999999999" fill="rgb(0, 0, 0)" stroke="rgb(60, 60, 60)" stroke-width="1px" opacity="0.25"></line><line x1="0" y1="226.7999999999998" x2="479" y2="226.7999999999998" fill="rgb(0, 0, 0)" stroke="rgb(60, 60, 60)" stroke-width="1px" opacity="0.25"></line><line x1="0" y1="188.9999999999998" x2="479" y2="188.9999999999998" fill="rgb(0, 0, 0)" stroke="rgb(60, 60, 60)" stroke-width="1px" opacity="0.25"></line><line x1="0" y1="151.19999999999976" x2="479" y2="151.19999999999976" fill="rgb(0, 0, 0)" stroke="rgb(60, 60, 60)" stroke-width="1px" opacity="0.25"></line><line x1="0" y1="113.39999999999972" x2="479" y2="113.39999999999972" fill="rgb(0, 0, 0)" stroke="rgb(60, 60, 60)" stroke-width="1px" opacity="0.25"></line><line x1="0" y1="75.59999999999965" x2="479" y2="75.59999999999965" fill="rgb(0, 0, 0)" stroke="rgb(60, 60, 60)" stroke-width="1px" opacity="0.25"></line><line x1="0" y1="37.80000000000003" x2="479" y2="37.80000000000003" fill="rgb(0, 0, 0)" stroke="rgb(60, 60, 60)" stroke-width="1px" opacity="0.25"></line><line x1="0" y1="0" x2="479" y2="0" fill="rgb(0, 0, 0)" stroke="rgb(60, 60, 60)" stroke-width="1px" opacity="0.25"></line></g></g></g><g><g><line x1="0" y1="3591.0000000000005" x2="479" y2="3591.0000000000005" fill="rgb(0, 0, 0)" stroke="rgb(153, 153, 153)" stroke-width="1.5px"></line></g></g><g><g><line x1="39.916666666666664" y1="0" x2="39.916666666666664" y2="378" fill="rgb(0, 0, 0)" stroke="rgb(153, 153, 153)" stroke-width="1.5px"></line></g></g><g><g><g><g><g><path stroke="rgb(0, 119, 187)" stroke-width="2px" d="M39.916666666666664,326.0129055976867L47.900000000000006,274.5116600990295L55.88333333333333,234.67087841033924L63.86666666666667,217.17995738983143L71.85,207.46275401115406L79.83333333333333,199.68903636932362L87.81666666666666,192.88683629035938L95.80000000000001,182.19789004325855L103.78333333333333,184.14137578010548L111.76666666666667,192.88683629035938L119.75,185.11311864852894L127.73333333333333,188.02834725379932L135.71666666666667,188.02834725379932L143.7,187.05660438537586L151.68333333333334,188.02834725379932L159.66666666666666,188.02834725379932L167.64999999999998,188.02834725379932L175.63333333333333,187.05660438537586L183.61666666666667,187.05660438537586L191.60000000000002,187.05660438537586L199.58333333333334,187.05660438537586L207.56666666666666,185.11311864852894L215.55,185.11311864852894L223.53333333333333,185.11311864852894L231.51666666666668,185.11311864852894L239.5,185.11311864852894L247.48333333333335,185.11311864852894L255.46666666666667,185.11311864852894L263.45000000000005,185.11311864852894L271.43333333333334,185.11311864852894L279.4166666666667,185.11311864852894L287.4,185.11311864852894L295.3833333333333,185.11311864852894L303.3666666666667,185.11311864852894L311.35,185.11311864852894L319.3333333333333,185.11311864852894L327.31666666666666,185.11311864852894L335.29999999999995,185.11311864852894L343.28333333333336,185.11311864852894L351.26666666666665,185.11311864852894L359.25,185.11311864852894L367.23333333333335,185.11311864852894L375.21666666666664,185.11311864852894L383.20000000000005,185.11311864852894L391.18333333333334,185.11311864852894L399.1666666666667,185.11311864852894L407.15,185.11311864852894L415.1333333333333,185.11311864852894L423.1166666666667,185.11311864852894L431.1,185.11311864852894" style="fill: none;" fill="none"></path></g><g><path stroke="rgb(51, 187, 238)" stroke-width="2px" d="M39.916666666666664,387.2313544750213L47.900000000000006,324.0694198608398L55.88333333333333,283.2571206092834L63.86666666666667,279.37014913558954L71.85,268.6812028884887L79.83333333333333,254.10551047325126L87.81666666666666,241.4730784893035L95.80000000000001,230.78413224220265L103.78333333333333,232.72761797904957L111.76666666666667,223.9819321632384L119.75,223.9819321632384L127.73333333333333,220.09518599510182L135.71666666666667,223.9819321632384L143.7,222.03867173194874L151.68333333333334,217.17995738983143L159.66666666666666,219.12344312667835L167.64999999999998,217.17995738983143L175.63333333333333,219.12344312667835L183.61666666666667,222.03867173194874L191.60000000000002,221.06692886352528L199.58333333333334,219.12344312667835L207.56666666666666,220.09518599510182L215.55,220.09518599510182L223.53333333333333,220.09518599510182L231.51666666666668,222.03867173194874L239.5,222.03867173194874L247.48333333333335,222.03867173194874L255.46666666666667,222.03867173194874L263.45000000000005,222.03867173194874L271.43333333333334,222.03867173194874L279.4166666666667,222.03867173194874L287.4,222.03867173194874L295.3833333333333,222.03867173194874L303.3666666666667,222.03867173194874L311.35,222.03867173194874L319.3333333333333,222.03867173194874L327.31666666666666,222.03867173194874L335.29999999999995,222.03867173194874L343.28333333333336,222.03867173194874L351.26666666666665,222.03867173194874L359.25,222.03867173194874L367.23333333333335,222.03867173194874L375.21666666666664,222.03867173194874L383.20000000000005,222.03867173194874L391.18333333333334,222.03867173194874L399.1666666666667,222.03867173194874L407.15,222.03867173194874L415.1333333333333,222.03867173194874L423.1166666666667,222.03867173194874L431.1,222.03867173194874" style="fill: none;" fill="none"></path></g><g><path stroke="rgb(0, 153, 136)" stroke-width="2px" d="M39.916666666666664,376.5424082279205L47.900000000000006,290.0590953826904L55.88333333333333,262.8509709835052L63.86666666666667,247.30331039428702L71.85,235.6426212787627L79.83333333333333,233.69913554191578L87.81666666666666,217.17995738983143L95.80000000000001,217.17995738983143L103.78333333333333,210.37798261642445L111.76666666666667,200.66077923774708L119.75,206.4910111427306L127.73333333333333,209.40623974800098L135.71666666666667,209.40623974800098L143.7,208.43449687957752L151.68333333333334,203.5757825374602L159.66666666666666,203.5757825374602L167.64999999999998,202.60403966903675L175.63333333333333,201.6322968006133L183.61666666666667,202.60403966903675L191.60000000000002,202.60403966903675L199.58333333333334,202.60403966903675L207.56666666666666,202.60403966903675L215.55,202.60403966903675L223.53333333333333,202.60403966903675L231.51666666666668,202.60403966903675L239.5,202.60403966903675L247.48333333333335,202.60403966903675L255.46666666666667,202.60403966903675L263.45000000000005,202.60403966903675L271.43333333333334,202.60403966903675L279.4166666666667,202.60403966903675L287.4,202.60403966903675L295.3833333333333,202.60403966903675L303.3666666666667,202.60403966903675L311.35,202.60403966903675L319.3333333333333,202.60403966903675L327.31666666666666,202.60403966903675L335.29999999999995,202.60403966903675L343.28333333333336,202.60403966903675L351.26666666666665,202.60403966903675L359.25,202.60403966903675L367.23333333333335,202.60403966903675L375.21666666666664,202.60403966903675L383.20000000000005,202.60403966903675L391.18333333333334,202.60403966903675L399.1666666666667,202.60403966903675L407.15,202.60403966903675L415.1333333333333,202.60403966903675L423.1166666666667,202.60403966903675L431.1,202.60403966903675" style="fill: none;" fill="none"></path></g><g><path stroke="rgb(255, 112, 67)" stroke-width="2px" d="M39.916666666666664,371.68369388580317L47.900000000000006,301.71978449821466L55.88333333333333,274.5116600990295L63.86666666666667,259.9357423782348L71.85,232.72761797904957L79.83333333333333,242.44482135772697L87.81666666666666,234.67087841033924L95.80000000000001,222.03867173194874L103.78333333333333,216.20821452140797L111.76666666666667,216.20821452140797L119.75,214.26472878456104L127.73333333333333,212.32124304771412L135.71666666666667,214.26472878456104L143.7,209.40623974800098L151.68333333333334,208.43449687957752L159.66666666666666,212.32124304771412L167.64999999999998,206.4910111427306L175.63333333333333,206.4910111427306L183.61666666666667,208.43449687957752L191.60000000000002,209.40623974800098L199.58333333333334,209.40623974800098L207.56666666666666,209.40623974800098L215.55,209.40623974800098L223.53333333333333,209.40623974800098L231.51666666666668,210.37798261642445L239.5,210.37798261642445L247.48333333333335,209.40623974800098L255.46666666666667,209.40623974800098L263.45000000000005,210.37798261642445L271.43333333333334,210.37798261642445L279.4166666666667,210.37798261642445L287.4,210.37798261642445L295.3833333333333,210.37798261642445L303.3666666666667,210.37798261642445L311.35,210.37798261642445L319.3333333333333,210.37798261642445L327.31666666666666,210.37798261642445L335.29999999999995,210.37798261642445L343.28333333333336,210.37798261642445L351.26666666666665,210.37798261642445L359.25,210.37798261642445L367.23333333333335,210.37798261642445L375.21666666666664,210.37798261642445L383.20000000000005,210.37798261642445L391.18333333333334,210.37798261642445L399.1666666666667,210.37798261642445L407.15,210.37798261642445L415.1333333333333,210.37798261642445L423.1166666666667,210.37798261642445L431.1,210.37798261642445" style="fill: none;" fill="none"></path></g><g><path stroke="rgb(204, 51, 17)" stroke-width="2px" d="M39.916666666666664,421.2416789531707L47.900000000000006,377.51415109634394L55.88333333333333,298.8045558929443L63.86666666666667,294.9178097248077L71.85,283.2571206092834L79.83333333333333,267.70946002006525L87.81666666666666,263.82271385192865L95.80000000000001,248.2750532627105L103.78333333333333,245.3598246574401L111.76666666666667,242.44482135772697L119.75,247.30331039428702L127.73333333333333,246.33156752586356L135.71666666666667,243.41656422615043L143.7,245.3598246574401L151.68333333333334,248.2750532627105L159.66666666666666,251.19028186798087L167.64999999999998,249.24679613113395L175.63333333333333,246.33156752586356L183.61666666666667,247.30331039428702L191.60000000000002,247.30331039428702L199.58333333333334,247.30331039428702L207.56666666666666,247.30331039428702L215.55,247.30331039428702L223.53333333333333,247.30331039428702L231.51666666666668,247.30331039428702L239.5,247.30331039428702L247.48333333333335,247.30331039428702L255.46666666666667,247.30331039428702L263.45000000000005,247.30331039428702L271.43333333333334,247.30331039428702L279.4166666666667,247.30331039428702L287.4,247.30331039428702L295.3833333333333,247.30331039428702L303.3666666666667,247.30331039428702L311.35,247.30331039428702L319.3333333333333,247.30331039428702L327.31666666666666,247.30331039428702L335.29999999999995,247.30331039428702L343.28333333333336,247.30331039428702L351.26666666666665,247.30331039428702L359.25,247.30331039428702L367.23333333333335,247.30331039428702L375.21666666666664,247.30331039428702L383.20000000000005,247.30331039428702L391.18333333333334,247.30331039428702L399.1666666666667,247.30331039428702L407.15,247.30331039428702L415.1333333333333,247.30331039428702L423.1166666666667,247.30331039428702L431.1,247.30331039428702" style="fill: none;" fill="none"></path></g></g></g></g></g></g><g transform="translate(50, 378)" clip-path="url(#clip_1)"><clipPath id="clip_1"><rect width="479" height="22"></rect></clipPath><g><g><line x1="0" y1="0" x2="0" y2="5" style="visibility: inherit;" fill="rgb(0, 0, 0)" stroke="rgb(204, 204, 204)" stroke-width="1px"></line><line x1="39.916666666666664" y1="0" x2="39.916666666666664" y2="5" style="visibility: inherit;" fill="rgb(0, 0, 0)" stroke="rgb(204, 204, 204)" stroke-width="1px"></line><line x1="79.83333333333333" y1="0" x2="79.83333333333333" y2="5" style="visibility: inherit;" fill="rgb(0, 0, 0)" stroke="rgb(204, 204, 204)" stroke-width="1px"></line><line x1="119.75" y1="0" x2="119.75" y2="5" style="visibility: inherit;" fill="rgb(0, 0, 0)" stroke="rgb(204, 204, 204)" stroke-width="1px"></line><line x1="159.66666666666666" y1="0" x2="159.66666666666666" y2="5" style="visibility: inherit;" fill="rgb(0, 0, 0)" stroke="rgb(204, 204, 204)" stroke-width="1px"></line><line x1="199.58333333333334" y1="0" x2="199.58333333333334" y2="5" style="visibility: inherit;" fill="rgb(0, 0, 0)" stroke="rgb(204, 204, 204)" stroke-width="1px"></line><line x1="239.5" y1="0" x2="239.5" y2="5" style="visibility: inherit;" fill="rgb(0, 0, 0)" stroke="rgb(204, 204, 204)" stroke-width="1px"></line><line x1="279.4166666666667" y1="0" x2="279.4166666666667" y2="5" style="visibility: inherit;" fill="rgb(0, 0, 0)" stroke="rgb(204, 204, 204)" stroke-width="1px"></line><line x1="319.3333333333333" y1="0" x2="319.3333333333333" y2="5" style="visibility: inherit;" fill="rgb(0, 0, 0)" stroke="rgb(204, 204, 204)" stroke-width="1px"></line><line x1="359.25" y1="0" x2="359.25" y2="5" style="visibility: inherit;" fill="rgb(0, 0, 0)" stroke="rgb(204, 204, 204)" stroke-width="1px"></line><line x1="399.1666666666667" y1="0" x2="399.1666666666667" y2="5" style="visibility: inherit;" fill="rgb(0, 0, 0)" stroke="rgb(204, 204, 204)" stroke-width="1px"></line><line x1="439.0833333333333" y1="0" x2="439.0833333333333" y2="5" style="visibility: inherit;" fill="rgb(0, 0, 0)" stroke="rgb(204, 204, 204)" stroke-width="1px"></line><line x1="479" y1="0" x2="479" y2="5" style="visibility: inherit;" fill="rgb(0, 0, 0)" stroke="rgb(204, 204, 204)" stroke-width="1px"></line></g><g transform="translate(0, 8)"><text x="0" y="0" dx="0em" dy="0.95em" style="text-anchor: middle; visibility: hidden; font-family: Roboto, sans-serif; font-size: 12px; font-weight: 200;" fill="rgb(50, 49, 63)" stroke="none" stroke-width="1px">-5</text><text x="39.916666666666664" y="0" dx="0em" dy="0.95em" style="text-anchor: middle; visibility: inherit; font-family: Roboto, sans-serif; font-size: 12px; font-weight: 200;" fill="rgb(50, 49, 63)" stroke="none" stroke-width="1px">0</text><text x="79.83333333333333" y="0" dx="0em" dy="0.95em" style="text-anchor: middle; visibility: inherit; font-family: Roboto, sans-serif; font-size: 12px; font-weight: 200;" fill="rgb(50, 49, 63)" stroke="none" stroke-width="1px">5</text><text x="119.75" y="0" dx="0em" dy="0.95em" style="text-anchor: middle; visibility: inherit; font-family: Roboto, sans-serif; font-size: 12px; font-weight: 200;" fill="rgb(50, 49, 63)" stroke="none" stroke-width="1px">10</text><text x="159.66666666666666" y="0" dx="0em" dy="0.95em" style="text-anchor: middle; visibility: inherit; font-family: Roboto, sans-serif; font-size: 12px; font-weight: 200;" fill="rgb(50, 49, 63)" stroke="none" stroke-width="1px">15</text><text x="199.58333333333334" y="0" dx="0em" dy="0.95em" style="text-anchor: middle; visibility: inherit; font-family: Roboto, sans-serif; font-size: 12px; font-weight: 200;" fill="rgb(50, 49, 63)" stroke="none" stroke-width="1px">20</text><text x="239.5" y="0" dx="0em" dy="0.95em" style="text-anchor: middle; visibility: inherit; font-family: Roboto, sans-serif; font-size: 12px; font-weight: 200;" fill="rgb(50, 49, 63)" stroke="none" stroke-width="1px">25</text><text x="279.4166666666667" y="0" dx="0em" dy="0.95em" style="text-anchor: middle; visibility: inherit; font-family: Roboto, sans-serif; font-size: 12px; font-weight: 200;" fill="rgb(50, 49, 63)" stroke="none" stroke-width="1px">30</text><text x="319.3333333333333" y="0" dx="0em" dy="0.95em" style="text-anchor: middle; visibility: inherit; font-family: Roboto, sans-serif; font-size: 12px; font-weight: 200;" fill="rgb(50, 49, 63)" stroke="none" stroke-width="1px">35</text><text x="359.25" y="0" dx="0em" dy="0.95em" style="text-anchor: middle; visibility: inherit; font-family: Roboto, sans-serif; font-size: 12px; font-weight: 200;" fill="rgb(50, 49, 63)" stroke="none" stroke-width="1px">40</text><text x="399.1666666666667" y="0" dx="0em" dy="0.95em" style="text-anchor: middle; visibility: inherit; font-family: Roboto, sans-serif; font-size: 12px; font-weight: 200;" fill="rgb(50, 49, 63)" stroke="none" stroke-width="1px">45</text><text x="439.0833333333333" y="0" dx="0em" dy="0.95em" style="text-anchor: middle; visibility: inherit; font-family: Roboto, sans-serif; font-size: 12px; font-weight: 200;" fill="rgb(50, 49, 63)" stroke="none" stroke-width="1px">50</text><text x="479" y="0" dx="0em" dy="0.95em" style="text-anchor: middle; visibility: hidden; font-family: Roboto, sans-serif; font-size: 12px; font-weight: 200;" fill="rgb(50, 49, 63)" stroke="none" stroke-width="1px">55</text></g><line x1="0" y1="0" x2="479" y2="0" fill="rgb(0, 0, 0)" stroke="rgb(204, 204, 204)" stroke-width="1px"></line></g></g></g></g></svg>