<svg viewBox="0 0 529 400" xmlns="http://www.w3.org/2000/svg"><g><g><g><g><g><line x1="60" y1="378" x2="55" y2="378" style="visibility: inherit;" fill="rgb(0, 0, 0)" stroke="rgb(204, 204, 204)" stroke-width="1px"></line><line x1="60" y1="330.75" x2="55" y2="330.75" style="visibility: inherit;" fill="rgb(0, 0, 0)" stroke="rgb(204, 204, 204)" stroke-width="1px"></line><line x1="60" y1="283.5" x2="55" y2="283.5" style="visibility: inherit;" fill="rgb(0, 0, 0)" stroke="rgb(204, 204, 204)" stroke-width="1px"></line><line x1="60" y1="236.24999999999997" x2="55" y2="236.24999999999997" style="visibility: inherit;" fill="rgb(0, 0, 0)" stroke="rgb(204, 204, 204)" stroke-width="1px"></line><line x1="60" y1="188.99999999999997" x2="55" y2="188.99999999999997" style="visibility: inherit;" fill="rgb(0, 0, 0)" stroke="rgb(204, 204, 204)" stroke-width="1px"></line><line x1="60" y1="141.75" x2="55" y2="141.75" style="visibility: inherit;" fill="rgb(0, 0, 0)" stroke="rgb(204, 204, 204)" stroke-width="1px"></line><line x1="60" y1="94.5" x2="55" y2="94.5" style="visibility: inherit;" fill="rgb(0, 0, 0)" stroke="rgb(204, 204, 204)" stroke-width="1px"></line><line x1="60" y1="47.25" x2="55" y2="47.25" style="visibility: inherit;" fill="rgb(0, 0, 0)" stroke="rgb(204, 204, 204)" stroke-width="1px"></line><line x1="60" y1="0" x2="55" y2="0" style="visibility: inherit;" fill="rgb(0, 0, 0)" stroke="rgb(204, 204, 204)" stroke-width="1px"></line></g><g transform="translate(50, 0)"><text x="0" y="378" dx="0em" dy="0.3em" style="text-anchor: end; visibility: hidden; font-family: Roboto, sans-serif; font-size: 12px; font-weight: 200;" fill="rgb(50, 49, 63)" stroke="none" stroke-width="1px">-0.05</text><text x="0" y="330.75" dx="0em" dy="0.3em" style="text-anchor: end; visibility: inherit; font-family: Roboto, sans-serif; font-size: 12px; font-weight: 200;" fill="rgb(50, 49, 63)" stroke="none" stroke-width="1px">0</text><text x="0" y="283.5" dx="0em" dy="0.3em" style="text-anchor: end; visibility: inherit; font-family: Roboto, sans-serif; font-size: 12px; font-weight: 200;" fill="rgb(50, 49, 63)" stroke="none" stroke-width="1px">0.05</text><text x="0" y="236.24999999999997" dx="0em" dy="0.3em" style="text-anchor: end; visibility: inherit; font-family: Roboto, sans-serif; font-size: 12px; font-weight: 200;" fill="rgb(50, 49, 63)" stroke="none" stroke-width="1px">0.1</text><text x="0" y="188.99999999999997" dx="0em" dy="0.3em" style="text-anchor: end; visibility: inherit; font-family: Roboto, sans-serif; font-size: 12px; font-weight: 200;" fill="rgb(50, 49, 63)" stroke="none" stroke-width="1px">0.15</text><text x="0" y="141.75" dx="0em" dy="0.3em" style="text-anchor: end; visibility: inherit; font-family: Roboto, sans-serif; font-size: 12px; font-weight: 200;" fill="rgb(50, 49, 63)" stroke="none" stroke-width="1px">0.2</text><text x="0" y="94.5" dx="0em" dy="0.3em" style="text-anchor: end; visibility: inherit; font-family: Roboto, sans-serif; font-size: 12px; font-weight: 200;" fill="rgb(50, 49, 63)" stroke="none" stroke-width="1px">0.25</text><text x="0" y="47.25" dx="0em" dy="0.3em" style="text-anchor: end; visibility: inherit; font-family: Roboto, sans-serif; font-size: 12px; font-weight: 200;" fill="rgb(50, 49, 63)" stroke="none" stroke-width="1px">0.3</text><text x="0" y="0" dx="0em" dy="0.3em" style="text-anchor: end; visibility: hidden; font-family: Roboto, sans-serif; font-size: 12px; font-weight: 200;" fill="rgb(50, 49, 63)" stroke="none" stroke-width="1px">0.35</text></g><line x1="60" y1="0" x2="60" y2="378" fill="rgb(0, 0, 0)" stroke="rgb(204, 204, 204)" stroke-width="1px"></line></g></g><g transform="translate(60, 0)" clip-path="url(#clip_0)"><clipPath id="clip_0"><rect width="469" height="378"></rect></clipPath><g><g><g><line x1="0" y1="0" x2="0" y2="378" fill="rgb(0, 0, 0)" stroke="rgb(60, 60, 60)" stroke-width="1px" opacity="0.25"></line><line x1="39.08333333333333" y1="0" x2="39.08333333333333" y2="378" fill="rgb(0, 0, 0)" stroke="rgb(60, 60, 60)" stroke-width="1px" opacity="0.25"></line><line x1="78.16666666666666" y1="0" x2="78.16666666666666" y2="378" fill="rgb(0, 0, 0)" stroke="rgb(60, 60, 60)" stroke-width="1px" opacity="0.25"></line><line x1="117.25" y1="0" x2="117.25" y2="378" fill="rgb(0, 0, 0)" stroke="rgb(60, 60, 60)" stroke-width="1px" opacity="0.25"></line><line x1="156.33333333333331" y1="0" x2="156.33333333333331" y2="378" fill="rgb(0, 0, 0)" stroke="rgb(60, 60, 60)" stroke-width="1px" opacity="0.25"></line><line x1="195.41666666666669" y1="0" x2="195.41666666666669" y2="378" fill="rgb(0, 0, 0)" stroke="rgb(60, 60, 60)" stroke-width="1px" opacity="0.25"></line><line x1="234.5" y1="0" x2="234.5" y2="378" fill="rgb(0, 0, 0)" stroke="rgb(60, 60, 60)" stroke-width="1px" opacity="0.25"></line><line x1="273.58333333333337" y1="0" x2="273.58333333333337" y2="378" fill="rgb(0, 0, 0)" stroke="rgb(60, 60, 60)" stroke-width="1px" opacity="0.25"></line><line x1="312.66666666666663" y1="0" x2="312.66666666666663" y2="378" fill="rgb(0, 0, 0)" stroke="rgb(60, 60, 60)" stroke-width="1px" opacity="0.25"></line><line x1="351.75" y1="0" x2="351.75" y2="378" fill="rgb(0, 0, 0)" stroke="rgb(60, 60, 60)" stroke-width="1px" opacity="0.25"></line><line x1="390.83333333333337" y1="0" x2="390.83333333333337" y2="378" fill="rgb(0, 0, 0)" stroke="rgb(60, 60, 60)" stroke-width="1px" opacity="0.25"></line><line x1="429.91666666666663" y1="0" x2="429.91666666666663" y2="378" fill="rgb(0, 0, 0)" stroke="rgb(60, 60, 60)" stroke-width="1px" opacity="0.25"></line><line x1="469" y1="0" x2="469" y2="378" fill="rgb(0, 0, 0)" stroke="rgb(60, 60, 60)" stroke-width="1px" opacity="0.25"></line></g><g><line x1="0" y1="378" x2="469" y2="378" fill="rgb(0, 0, 0)" stroke="rgb(60, 60, 60)" stroke-width="1px" opacity="0.25"></line><line x1="0" y1="330.75" x2="469" y2="330.75" fill="rgb(0, 0, 0)" stroke="rgb(60, 60, 60)" stroke-width="1px" opacity="0.25"></line><line x1="0" y1="283.5" x2="469" y2="283.5" fill="rgb(0, 0, 0)" stroke="rgb(60, 60, 60)" stroke-width="1px" opacity="0.25"></line><line x1="0" y1="236.24999999999997" x2="469" y2="236.24999999999997" fill="rgb(0, 0, 0)" stroke="rgb(60, 60, 60)" stroke-width="1px" opacity="0.25"></line><line x1="0" y1="188.99999999999997" x2="469" y2="188.99999999999997" fill="rgb(0, 0, 0)" stroke="rgb(60, 60, 60)" stroke-width="1px" opacity="0.25"></line><line x1="0" y1="141.75" x2="469" y2="141.75" fill="rgb(0, 0, 0)" stroke="rgb(60, 60, 60)" stroke-width="1px" opacity="0.25"></line><line x1="0" y1="94.5" x2="469" y2="94.5" fill="rgb(0, 0, 0)" stroke="rgb(60, 60, 60)" stroke-width="1px" opacity="0.25"></line><line x1="0" y1="47.25" x2="469" y2="47.25" fill="rgb(0, 0, 0)" stroke="rgb(60, 60, 60)" stroke-width="1px" opacity="0.25"></line><line x1="0" y1="0" x2="469" y2="0" fill="rgb(0, 0, 0)" stroke="rgb(60, 60, 60)" stroke-width="1px" opacity="0.25"></line></g></g></g><g><g><line x1="0" y1="330.75" x2="469" y2="330.75" fill="rgb(0, 0, 0)" stroke="rgb(153, 153, 153)" stroke-width="1.5px"></line></g></g><g><g><line x1="39.08333333333333" y1="0" x2="39.08333333333333" y2="378" fill="rgb(0, 0, 0)" stroke="rgb(153, 153, 153)" stroke-width="1.5px"></line></g></g><g><g><g><g><g><path stroke="rgb(0, 119, 187)" stroke-width="2px" d="M39.08333333333333,39.474862933158875L46.900000000000006,90.17331656813622L54.71666666666667,103.95199057459831L62.53333333333333,116.76301945745945L70.35,115.7371750921011L78.16666666666666,115.94597701728344L85.98333333333333,119.65163384377956L93.80000000000001,120.23735788464546L101.61666666666667,118.46064050495625L109.43333333333334,119.6469587534666L117.25,120.75068843364716L125.06666666666666,119.85457782447338L132.88333333333333,120.54029528796673L140.7,120.62378507852554L148.51666666666665,120.12229715287685L156.33333333333331,119.9889303445816L164.14999999999998,120.1833690404892L171.96666666666667,120.09092335402966L179.78333333333333,120.06315444409847L187.60000000000002,119.90513075888157L195.41666666666669,119.86954656243324L203.23333333333335,119.8783193975687L211.05,119.80539080500603L218.86666666666667,119.83186420798302L226.68333333333334,119.8509870171547L234.5,119.84377723932266L242.3166666666667,119.84774824976921L250.13333333333333,119.83642664551735L257.95000000000005,119.83231481909752L265.76666666666665,119.82219015061855L273.58333333333337,119.82483749091625L281.4,119.82687932252884L289.2166666666667,119.82430239021778L297.0333333333333,119.82244361937046L304.85,119.82107770442963L312.66666666666663,119.820063829422L320.48333333333335,119.81979627907276L328.29999999999995,119.81966954469681L336.1166666666667,119.81990893185139L343.93333333333334,119.81988076865673L351.75,119.8197681158781L359.56666666666666,119.8198666870594L367.3833333333333,119.81978219747543L375.20000000000005,119.81979627907276L383.01666666666665,119.8197681158781L390.83333333333337,119.81981036067009L398.65,119.81978219747543L406.4666666666667,119.81973995268345L414.2833333333333,119.81973995268345L422.1,119.81978219747543" style="fill: none;" fill="none"></path></g><g><path stroke="rgb(51, 187, 238)" stroke-width="2px" d="M39.08333333333333,3.9011713564395905L46.900000000000006,52.154130309820175L54.71666666666667,77.33318102359772L62.53333333333333,84.72585064172745L70.35,88.22557818889618L78.16666666666666,88.40556916594505L85.98333333333333,88.08143895864487L93.80000000000001,91.19766828417778L101.61666666666667,90.71652826666832L109.43333333333334,92.30864998698235L117.25,95.5340116918087L125.06666666666666,96.22671362757683L132.88333333333333,95.72814059257507L140.7,96.56354543566704L148.51666666666665,96.65141460299492L156.33333333333331,96.57024827599525L164.14999999999998,95.99874664843082L171.96666666666667,96.37863998115063L179.78333333333333,96.34739291667938L187.60000000000002,96.33538131415844L195.41666666666669,96.35802452266216L203.23333333333335,96.46131303906441L211.05,96.62544813752174L218.86666666666667,96.64465543627739L226.68333333333334,96.6315736323595L234.5,96.6663410961628L242.3166666666667,96.68345023691654L250.13333333333333,96.69694040715694L257.95000000000005,96.70048896968365L265.76666666666665,96.70054529607296L273.58333333333337,96.70660038292408L281.4,96.70437549054623L289.2166666666667,96.70393896102905L297.0333333333333,96.70612160861492L304.85,96.7060089558363L312.66666666666663,96.70657221972942L320.48333333333335,96.70699466764927L328.29999999999995,96.70716364681721L336.1166666666667,96.70738895237446L343.93333333333334,96.70757201313972L351.75,96.70721997320652L359.56666666666666,96.70744527876377L367.3833333333333,96.70747344195843L375.20000000000005,96.70761425793171L383.01666666666665,96.70754384994507L390.83333333333337,96.70757201313972L398.65,96.70761425793171L406.4666666666667,96.70762833952904L414.2833333333333,96.70762833952904L422.1,96.70764242112637" style="fill: none;" fill="none"></path></g><g><path stroke="rgb(0, 153, 136)" stroke-width="2px" d="M39.08333333333333,20.218250423669815L46.900000000000006,70.46062928438187L54.71666666666667,90.2216164469719L62.53333333333333,102.84134683012962L70.35,104.46337786316872L78.16666666666666,103.39737278223038L85.98333333333333,103.80769644677639L93.80000000000001,106.70302775502205L101.61666666666667,106.47776444256306L109.43333333333334,107.02073675394058L117.25,108.27171769738197L125.06666666666666,106.88496199250221L132.88333333333333,107.20750097930431L140.7,107.61110772192478L148.51666666666665,107.63755296170712L156.33333333333331,107.61375506222248L164.14999999999998,107.7268725335598L171.96666666666667,107.75462736189365L179.78333333333333,107.65331026911736L187.60000000000002,107.70294789969921L195.41666666666669,107.78224137425423L203.23333333333335,107.71245297789574L211.05,107.70856645703316L218.86666666666667,107.70651054382324L226.68333333333334,107.70073708891869L234.5,107.69727301597595L242.3166666666667,107.6973997503519L250.13333333333333,107.70215933024883L257.95000000000005,107.70196218788624L265.76666666666665,107.7019903510809L273.58333333333337,107.70375055074692L281.4,107.70403218269348L289.2166666666667,107.70455320179462L297.0333333333333,107.70238463580608L304.85,107.70093423128128L312.66666666666663,107.70211708545685L320.48333333333335,107.70166647434235L328.29999999999995,107.70184953510761L336.1166666666667,107.70161014795303L343.93333333333334,107.70193402469158L351.75,107.7019903510809L359.56666666666666,107.70222973823547L367.3833333333333,107.70235647261143L375.20000000000005,107.70241279900074L383.01666666666665,107.70239871740341L390.83333333333337,107.70242688059807L398.65,107.70239871740341L406.4666666666667,107.70245504379272L414.2833333333333,107.7024409621954L422.1,107.7024409621954" style="fill: none;" fill="none"></path></g><g><path stroke="rgb(255, 112, 67)" stroke-width="2px" d="M39.08333333333333,18.407779455184937L46.900000000000006,72.14766097068787L54.71666666666667,87.61967521905899L62.53333333333333,98.43807359039783L70.35,102.47716856002808L78.16666666666666,99.78052859008312L85.98333333333333,102.6257575750351L93.80000000000001,103.49026907980442L101.61666666666667,105.9060515910387L109.43333333333334,106.88601811230183L117.25,106.80885095894337L125.06666666666666,107.4416075348854L132.88333333333333,106.82756540179253L140.7,107.02165205776691L148.51666666666665,107.41099414229393L156.33333333333331,106.99546028673649L164.14999999999998,106.88266669213772L171.96666666666667,107.26905164122581L179.78333333333333,107.37148118019104L187.60000000000002,107.3347422927618L195.41666666666669,107.26881225407124L203.23333333333335,107.14106400310993L211.05,107.16036987304688L218.86666666666667,107.15970803797245L226.68333333333334,107.16410149633884L234.5,107.19372917711735L242.3166666666667,107.18692776560783L250.13333333333333,107.20036160945892L257.95000000000005,107.20675465464592L265.76666666666665,107.19672855734825L273.58333333333337,107.19775651395321L281.4,107.19555978477001L289.2166666666667,107.20002365112305L297.0333333333333,107.19993916153908L304.85,107.201051607728L312.66666666666663,107.20193874835968L320.48333333333335,107.2016007900238L328.29999999999995,107.20165711641312L336.1166666666667,107.20213589072227L343.93333333333334,107.20240344107151L351.75,107.20286813378334L359.56666666666666,107.2030511945486L367.3833333333333,107.20313568413258L375.20000000000005,107.20322017371655L383.01666666666665,107.20323425531387L390.83333333333337,107.20327650010586L398.65,107.20327650010586L406.4666666666667,107.20327650010586L414.2833333333333,107.20329058170319L422.1,107.2032483369112" style="fill: none;" fill="none"></path></g><g><path stroke="rgb(204, 51, 17)" stroke-width="2px" d="M39.08333333333333,-16.118635565042496L46.900000000000006,13.63132980465889L54.71666666666667,57.36848947405815L62.53333333333333,67.83083465695381L70.35,61.01249706745148L78.16666666666666,70.44823747873306L85.98333333333333,72.18559679389L93.80000000000001,77.14541700482368L101.61666666666667,77.26474446058273L109.43333333333334,78.15726426243782L117.25,80.61332014203072L125.06666666666666,78.80966466665268L132.88333333333333,78.7699545621872L140.7,79.63859197497368L148.51666666666665,79.68446981906891L156.33333333333331,79.56973296403885L164.14999999999998,79.63907074928284L171.96666666666667,79.74797782301903L179.78333333333333,79.76955083012581L187.60000000000002,79.76876226067543L195.41666666666669,79.78580099344254L203.23333333333335,79.74687945842743L211.05,79.7984744310379L218.86666666666667,79.814611941576L226.68333333333334,79.83421352505684L234.5,79.82948210835457L242.3166666666667,79.84066289663315L250.13333333333333,79.8632216155529L257.95000000000005,79.88690686225891L265.76666666666665,79.8985945880413L273.58333333333337,79.90262192487717L281.4,79.90003091096878L289.2166666666667,79.90374845266342L297.0333333333333,79.90194600820541L304.85,79.90211498737335L312.66666666666663,79.90403008460999L320.48333333333335,79.90357947349548L328.29999999999995,79.90352314710617L336.1166666666667,79.90329784154892L343.93333333333334,79.90346682071686L351.75,79.90394559502602L359.56666666666666,79.90414273738861L367.3833333333333,79.90428355336189L375.20000000000005,79.90436804294586L383.01666666666665,79.90431171655655L390.83333333333337,79.90442436933517L398.65,79.90442436933517L406.4666666666667,79.90439620614052L414.2833333333333,79.90439620614052L422.1,79.90442436933517" style="fill: none;" fill="none"></path></g></g></g></g></g><g><g opacity="0.781356"><span fill="rgb(0, 0, 0)" stroke="none" stroke-width="1px">Alt + Scroll to Zoom</span></g></g></g><g transform="translate(60, 378)" clip-path="url(#clip_1)"><clipPath id="clip_1"><rect width="469" height="22"></rect></clipPath><g><g><line x1="0" y1="0" x2="0" y2="5" style="visibility: inherit;" fill="rgb(0, 0, 0)" stroke="rgb(204, 204, 204)" stroke-width="1px"></line><line x1="39.08333333333333" y1="0" x2="39.08333333333333" y2="5" style="visibility: inherit;" fill="rgb(0, 0, 0)" stroke="rgb(204, 204, 204)" stroke-width="1px"></line><line x1="78.16666666666666" y1="0" x2="78.16666666666666" y2="5" style="visibility: inherit;" fill="rgb(0, 0, 0)" stroke="rgb(204, 204, 204)" stroke-width="1px"></line><line x1="117.25" y1="0" x2="117.25" y2="5" style="visibility: inherit;" fill="rgb(0, 0, 0)" stroke="rgb(204, 204, 204)" stroke-width="1px"></line><line x1="156.33333333333331" y1="0" x2="156.33333333333331" y2="5" style="visibility: inherit;" fill="rgb(0, 0, 0)" stroke="rgb(204, 204, 204)" stroke-width="1px"></line><line x1="195.41666666666669" y1="0" x2="195.41666666666669" y2="5" style="visibility: inherit;" fill="rgb(0, 0, 0)" stroke="rgb(204, 204, 204)" stroke-width="1px"></line><line x1="234.5" y1="0" x2="234.5" y2="5" style="visibility: inherit;" fill="rgb(0, 0, 0)" stroke="rgb(204, 204, 204)" stroke-width="1px"></line><line x1="273.58333333333337" y1="0" x2="273.58333333333337" y2="5" style="visibility: inherit;" fill="rgb(0, 0, 0)" stroke="rgb(204, 204, 204)" stroke-width="1px"></line><line x1="312.66666666666663" y1="0" x2="312.66666666666663" y2="5" style="visibility: inherit;" fill="rgb(0, 0, 0)" stroke="rgb(204, 204, 204)" stroke-width="1px"></line><line x1="351.75" y1="0" x2="351.75" y2="5" style="visibility: inherit;" fill="rgb(0, 0, 0)" stroke="rgb(204, 204, 204)" stroke-width="1px"></line><line x1="390.83333333333337" y1="0" x2="390.83333333333337" y2="5" style="visibility: inherit;" fill="rgb(0, 0, 0)" stroke="rgb(204, 204, 204)" stroke-width="1px"></line><line x1="429.91666666666663" y1="0" x2="429.91666666666663" y2="5" style="visibility: inherit;" fill="rgb(0, 0, 0)" stroke="rgb(204, 204, 204)" stroke-width="1px"></line><line x1="469" y1="0" x2="469" y2="5" style="visibility: inherit;" fill="rgb(0, 0, 0)" stroke="rgb(204, 204, 204)" stroke-width="1px"></line></g><g transform="translate(0, 8)"><text x="0" y="0" dx="0em" dy="0.95em" style="text-anchor: middle; visibility: hidden; font-family: Roboto, sans-serif; font-size: 12px; font-weight: 200;" fill="rgb(50, 49, 63)" stroke="none" stroke-width="1px">-5</text><text x="39.08333333333333" y="0" dx="0em" dy="0.95em" style="text-anchor: middle; visibility: inherit; font-family: Roboto, sans-serif; font-size: 12px; font-weight: 200;" fill="rgb(50, 49, 63)" stroke="none" stroke-width="1px">0</text><text x="78.16666666666666" y="0" dx="0em" dy="0.95em" style="text-anchor: middle; visibility: inherit; font-family: Roboto, sans-serif; font-size: 12px; font-weight: 200;" fill="rgb(50, 49, 63)" stroke="none" stroke-width="1px">5</text><text x="117.25" y="0" dx="0em" dy="0.95em" style="text-anchor: middle; visibility: inherit; font-family: Roboto, sans-serif; font-size: 12px; font-weight: 200;" fill="rgb(50, 49, 63)" stroke="none" stroke-width="1px">10</text><text x="156.33333333333331" y="0" dx="0em" dy="0.95em" style="text-anchor: middle; visibility: inherit; font-family: Roboto, sans-serif; font-size: 12px; font-weight: 200;" fill="rgb(50, 49, 63)" stroke="none" stroke-width="1px">15</text><text x="195.41666666666669" y="0" dx="0em" dy="0.95em" style="text-anchor: middle; visibility: inherit; font-family: Roboto, sans-serif; font-size: 12px; font-weight: 200;" fill="rgb(50, 49, 63)" stroke="none" stroke-width="1px">20</text><text x="234.5" y="0" dx="0em" dy="0.95em" style="text-anchor: middle; visibility: inherit; font-family: Roboto, sans-serif; font-size: 12px; font-weight: 200;" fill="rgb(50, 49, 63)" stroke="none" stroke-width="1px">25</text><text x="273.58333333333337" y="0" dx="0em" dy="0.95em" style="text-anchor: middle; visibility: inherit; font-family: Roboto, sans-serif; font-size: 12px; font-weight: 200;" fill="rgb(50, 49, 63)" stroke="none" stroke-width="1px">30</text><text x="312.66666666666663" y="0" dx="0em" dy="0.95em" style="text-anchor: middle; visibility: inherit; font-family: Roboto, sans-serif; font-size: 12px; font-weight: 200;" fill="rgb(50, 49, 63)" stroke="none" stroke-width="1px">35</text><text x="351.75" y="0" dx="0em" dy="0.95em" style="text-anchor: middle; visibility: inherit; font-family: Roboto, sans-serif; font-size: 12px; font-weight: 200;" fill="rgb(50, 49, 63)" stroke="none" stroke-width="1px">40</text><text x="390.83333333333337" y="0" dx="0em" dy="0.95em" style="text-anchor: middle; visibility: inherit; font-family: Roboto, sans-serif; font-size: 12px; font-weight: 200;" fill="rgb(50, 49, 63)" stroke="none" stroke-width="1px">45</text><text x="429.91666666666663" y="0" dx="0em" dy="0.95em" style="text-anchor: middle; visibility: inherit; font-family: Roboto, sans-serif; font-size: 12px; font-weight: 200;" fill="rgb(50, 49, 63)" stroke="none" stroke-width="1px">50</text><text x="469" y="0" dx="0em" dy="0.95em" style="text-anchor: middle; visibility: hidden; font-family: Roboto, sans-serif; font-size: 12px; font-weight: 200;" fill="rgb(50, 49, 63)" stroke="none" stroke-width="1px">55</text></g><line x1="0" y1="0" x2="469" y2="0" fill="rgb(0, 0, 0)" stroke="rgb(204, 204, 204)" stroke-width="1px"></line></g></g></g></g></svg>