<svg viewBox="0 0 579.6666870117188 400" xmlns="http://www.w3.org/2000/svg"><g><g><g><g><g><line x1="50" y1="378" x2="45" y2="378" style="visibility: inherit;" fill="rgb(0, 0, 0)" stroke="rgb(204, 204, 204)" stroke-width="1px"></line><line x1="50" y1="346.5" x2="45" y2="346.5" style="visibility: inherit;" fill="rgb(0, 0, 0)" stroke="rgb(204, 204, 204)" stroke-width="1px"></line><line x1="50" y1="315" x2="45" y2="315" style="visibility: inherit;" fill="rgb(0, 0, 0)" stroke="rgb(204, 204, 204)" stroke-width="1px"></line><line x1="50" y1="283.5" x2="45" y2="283.5" style="visibility: inherit;" fill="rgb(0, 0, 0)" stroke="rgb(204, 204, 204)" stroke-width="1px"></line><line x1="50" y1="252.00000000000003" x2="45" y2="252.00000000000003" style="visibility: inherit;" fill="rgb(0, 0, 0)" stroke="rgb(204, 204, 204)" stroke-width="1px"></line><line x1="50" y1="220.5" x2="45" y2="220.5" style="visibility: inherit;" fill="rgb(0, 0, 0)" stroke="rgb(204, 204, 204)" stroke-width="1px"></line><line x1="50" y1="189.00000000000003" x2="45" y2="189.00000000000003" style="visibility: inherit;" fill="rgb(0, 0, 0)" stroke="rgb(204, 204, 204)" stroke-width="1px"></line><line x1="50" y1="157.50000000000003" x2="45" y2="157.50000000000003" style="visibility: inherit;" fill="rgb(0, 0, 0)" stroke="rgb(204, 204, 204)" stroke-width="1px"></line><line x1="50" y1="126.00000000000006" x2="45" y2="126.00000000000006" style="visibility: inherit;" fill="rgb(0, 0, 0)" stroke="rgb(204, 204, 204)" stroke-width="1px"></line><line x1="50" y1="94.50000000000004" x2="45" y2="94.50000000000004" style="visibility: inherit;" fill="rgb(0, 0, 0)" stroke="rgb(204, 204, 204)" stroke-width="1px"></line><line x1="50" y1="63.00000000000003" x2="45" y2="63.00000000000003" style="visibility: inherit;" fill="rgb(0, 0, 0)" stroke="rgb(204, 204, 204)" stroke-width="1px"></line><line x1="50" y1="31.500000000000014" x2="45" y2="31.500000000000014" style="visibility: inherit;" fill="rgb(0, 0, 0)" stroke="rgb(204, 204, 204)" stroke-width="1px"></line><line x1="50" y1="0" x2="45" y2="0" style="visibility: inherit;" fill="rgb(0, 0, 0)" stroke="rgb(204, 204, 204)" stroke-width="1px"></line></g><g transform="translate(40, 0)"><text x="0" y="378" dx="0em" dy="0.3em" style="text-anchor: end; visibility: hidden; font-family: Roboto, sans-serif; font-size: 12px; font-weight: 200;" fill="rgb(50, 49, 63)" stroke="none" stroke-width="1px">-0.1</text><text x="0" y="346.5" dx="0em" dy="0.3em" style="text-anchor: end; visibility: inherit; font-family: Roboto, sans-serif; font-size: 12px; font-weight: 200;" fill="rgb(50, 49, 63)" stroke="none" stroke-width="1px">0</text><text x="0" y="315" dx="0em" dy="0.3em" style="text-anchor: end; visibility: inherit; font-family: Roboto, sans-serif; font-size: 12px; font-weight: 200;" fill="rgb(50, 49, 63)" stroke="none" stroke-width="1px">0.1</text><text x="0" y="283.5" dx="0em" dy="0.3em" style="text-anchor: end; visibility: inherit; font-family: Roboto, sans-serif; font-size: 12px; font-weight: 200;" fill="rgb(50, 49, 63)" stroke="none" stroke-width="1px">0.2</text><text x="0" y="252.00000000000003" dx="0em" dy="0.3em" style="text-anchor: end; visibility: inherit; font-family: Roboto, sans-serif; font-size: 12px; font-weight: 200;" fill="rgb(50, 49, 63)" stroke="none" stroke-width="1px">0.3</text><text x="0" y="220.5" dx="0em" dy="0.3em" style="text-anchor: end; visibility: inherit; font-family: Roboto, sans-serif; font-size: 12px; font-weight: 200;" fill="rgb(50, 49, 63)" stroke="none" stroke-width="1px">0.4</text><text x="0" y="189.00000000000003" dx="0em" dy="0.3em" style="text-anchor: end; visibility: inherit; font-family: Roboto, sans-serif; font-size: 12px; font-weight: 200;" fill="rgb(50, 49, 63)" stroke="none" stroke-width="1px">0.5</text><text x="0" y="157.50000000000003" dx="0em" dy="0.3em" style="text-anchor: end; visibility: inherit; font-family: Roboto, sans-serif; font-size: 12px; font-weight: 200;" fill="rgb(50, 49, 63)" stroke="none" stroke-width="1px">0.6</text><text x="0" y="126.00000000000006" dx="0em" dy="0.3em" style="text-anchor: end; visibility: inherit; font-family: Roboto, sans-serif; font-size: 12px; font-weight: 200;" fill="rgb(50, 49, 63)" stroke="none" stroke-width="1px">0.7</text><text x="0" y="94.50000000000004" dx="0em" dy="0.3em" style="text-anchor: end; visibility: inherit; font-family: Roboto, sans-serif; font-size: 12px; font-weight: 200;" fill="rgb(50, 49, 63)" stroke="none" stroke-width="1px">0.8</text><text x="0" y="63.00000000000003" dx="0em" dy="0.3em" style="text-anchor: end; visibility: inherit; font-family: Roboto, sans-serif; font-size: 12px; font-weight: 200;" fill="rgb(50, 49, 63)" stroke="none" stroke-width="1px">0.9</text><text x="0" y="31.500000000000014" dx="0em" dy="0.3em" style="text-anchor: end; visibility: inherit; font-family: Roboto, sans-serif; font-size: 12px; font-weight: 200;" fill="rgb(50, 49, 63)" stroke="none" stroke-width="1px">1</text><text x="0" y="0" dx="0em" dy="0.3em" style="text-anchor: end; visibility: hidden; font-family: Roboto, sans-serif; font-size: 12px; font-weight: 200;" fill="rgb(50, 49, 63)" stroke="none" stroke-width="1px">1.1</text></g><line x1="50" y1="0" x2="50" y2="378" fill="rgb(0, 0, 0)" stroke="rgb(204, 204, 204)" stroke-width="1px"></line></g></g><g transform="translate(50, 0)" clip-path="url(#clip_0)"><clipPath id="clip_0"><rect width="529" height="378"></rect></clipPath><g><g><g><line x1="0" y1="0" x2="0" y2="378" fill="rgb(0, 0, 0)" stroke="rgb(60, 60, 60)" stroke-width="1px" opacity="0.25"></line><line x1="44.13891666666667" y1="0" x2="44.13891666666667" y2="378" fill="rgb(0, 0, 0)" stroke="rgb(60, 60, 60)" stroke-width="1px" opacity="0.25"></line><line x1="88.27783333333333" y1="0" x2="88.27783333333333" y2="378" fill="rgb(0, 0, 0)" stroke="rgb(60, 60, 60)" stroke-width="1px" opacity="0.25"></line><line x1="132.41675" y1="0" x2="132.41675" y2="378" fill="rgb(0, 0, 0)" stroke="rgb(60, 60, 60)" stroke-width="1px" opacity="0.25"></line><line x1="176.55566666666667" y1="0" x2="176.55566666666667" y2="378" fill="rgb(0, 0, 0)" stroke="rgb(60, 60, 60)" stroke-width="1px" opacity="0.25"></line><line x1="220.69458333333336" y1="0" x2="220.69458333333336" y2="378" fill="rgb(0, 0, 0)" stroke="rgb(60, 60, 60)" stroke-width="1px" opacity="0.25"></line><line x1="264.8335" y1="0" x2="264.8335" y2="378" fill="rgb(0, 0, 0)" stroke="rgb(60, 60, 60)" stroke-width="1px" opacity="0.25"></line><line x1="308.97241666666673" y1="0" x2="308.97241666666673" y2="378" fill="rgb(0, 0, 0)" stroke="rgb(60, 60, 60)" stroke-width="1px" opacity="0.25"></line><line x1="353.11133333333333" y1="0" x2="353.11133333333333" y2="378" fill="rgb(0, 0, 0)" stroke="rgb(60, 60, 60)" stroke-width="1px" opacity="0.25"></line><line x1="397.25025000000005" y1="0" x2="397.25025000000005" y2="378" fill="rgb(0, 0, 0)" stroke="rgb(60, 60, 60)" stroke-width="1px" opacity="0.25"></line><line x1="441.3891666666667" y1="0" x2="441.3891666666667" y2="378" fill="rgb(0, 0, 0)" stroke="rgb(60, 60, 60)" stroke-width="1px" opacity="0.25"></line><line x1="485.5280833333333" y1="0" x2="485.5280833333333" y2="378" fill="rgb(0, 0, 0)" stroke="rgb(60, 60, 60)" stroke-width="1px" opacity="0.25"></line><line x1="529.667" y1="0" x2="529.667" y2="378" fill="rgb(0, 0, 0)" stroke="rgb(60, 60, 60)" stroke-width="1px" opacity="0.25"></line></g><g><line x1="0" y1="378" x2="529.667" y2="378" fill="rgb(0, 0, 0)" stroke="rgb(60, 60, 60)" stroke-width="1px" opacity="0.25"></line><line x1="0" y1="346.5" x2="529.667" y2="346.5" fill="rgb(0, 0, 0)" stroke="rgb(60, 60, 60)" stroke-width="1px" opacity="0.25"></line><line x1="0" y1="315" x2="529.667" y2="315" fill="rgb(0, 0, 0)" stroke="rgb(60, 60, 60)" stroke-width="1px" opacity="0.25"></line><line x1="0" y1="283.5" x2="529.667" y2="283.5" fill="rgb(0, 0, 0)" stroke="rgb(60, 60, 60)" stroke-width="1px" opacity="0.25"></line><line x1="0" y1="252.00000000000003" x2="529.667" y2="252.00000000000003" fill="rgb(0, 0, 0)" stroke="rgb(60, 60, 60)" stroke-width="1px" opacity="0.25"></line><line x1="0" y1="220.5" x2="529.667" y2="220.5" fill="rgb(0, 0, 0)" stroke="rgb(60, 60, 60)" stroke-width="1px" opacity="0.25"></line><line x1="0" y1="189.00000000000003" x2="529.667" y2="189.00000000000003" fill="rgb(0, 0, 0)" stroke="rgb(60, 60, 60)" stroke-width="1px" opacity="0.25"></line><line x1="0" y1="157.50000000000003" x2="529.667" y2="157.50000000000003" fill="rgb(0, 0, 0)" stroke="rgb(60, 60, 60)" stroke-width="1px" opacity="0.25"></line><line x1="0" y1="126.00000000000006" x2="529.667" y2="126.00000000000006" fill="rgb(0, 0, 0)" stroke="rgb(60, 60, 60)" stroke-width="1px" opacity="0.25"></line><line x1="0" y1="94.50000000000004" x2="529.667" y2="94.50000000000004" fill="rgb(0, 0, 0)" stroke="rgb(60, 60, 60)" stroke-width="1px" opacity="0.25"></line><line x1="0" y1="63.00000000000003" x2="529.667" y2="63.00000000000003" fill="rgb(0, 0, 0)" stroke="rgb(60, 60, 60)" stroke-width="1px" opacity="0.25"></line><line x1="0" y1="31.500000000000014" x2="529.667" y2="31.500000000000014" fill="rgb(0, 0, 0)" stroke="rgb(60, 60, 60)" stroke-width="1px" opacity="0.25"></line><line x1="0" y1="0" x2="529.667" y2="0" fill="rgb(0, 0, 0)" stroke="rgb(60, 60, 60)" stroke-width="1px" opacity="0.25"></line></g></g></g><g><g><line x1="0" y1="346.5" x2="529.667" y2="346.5" fill="rgb(0, 0, 0)" stroke="rgb(153, 153, 153)" stroke-width="1.5px"></line></g></g><g><g><line x1="44.13891666666667" y1="0" x2="44.13891666666667" y2="378" fill="rgb(0, 0, 0)" stroke="rgb(153, 153, 153)" stroke-width="1.5px"></line></g></g><g><g><g><g><g><path stroke="rgb(51, 187, 238)" stroke-width="2px" d="M52.9667,-5.148840308189392L61.79448333333334,18.191463589668317L70.62226666666668,32.42172503471376L79.45005,44.738109648227706L88.27783333333333,56.64445692300799L97.10561666666666,62.141799867153196L105.9334,64.21554976701742L114.76118333333335,66.90830790996559L123.58896666666668,69.67560464143759L132.41675,69.9615361690522L141.24453333333335,71.13477730751042L150.07231666666667,72.19775015115745L158.9001,72.55010926723486L167.72788333333332,72.85539829730993L176.55566666666667,73.19838845729835L185.38345,73.47196573019035L194.21123333333333,73.39678877592091L203.0390166666667,73.52994436025624L211.8668,73.44444090127949L220.69458333333336,73.53856229782109L229.5223666666667,73.58604544401173L238.35015,73.57977443933494L247.17793333333336,73.58281606435783L256.0057166666667,73.56576794385914L264.8335,73.57622587680824L273.66128333333336,73.59242910146719L282.4890666666667,73.59541440010076L291.31685000000004,73.6071115136147L300.14463333333333,73.60328131914143L308.97241666666673,73.60260540246968L317.8002,73.60728049278264L326.62798333333336,73.60872620344169L335.45576666666665,73.61148619651802L344.28355000000005,73.61469680070884L353.11133333333333,73.61490333080297L361.9391166666667,73.61593598127372L370.7669,73.61655557155616L379.59468333333336,73.61681842803961L388.42246666666665,73.61702495813374L397.25025000000005,73.61734414100654L406.0780333333334,73.61749434471136L414.9058166666667,73.61768209934242L423.7336,73.61768209934242L432.56138333333337,73.61771965026861L441.3891666666667,73.61779475212104L450.21695,73.61777597665792L459.0447333333334,73.61779475212104L467.8725166666667,73.61779475212104L476.7003,73.61777597665792" style="fill: none;" fill="none"></path></g><g><path stroke="rgb(255, 112, 67)" stroke-width="2px" d="M52.9667,-0.08487260341644287L61.79448333333334,16.84511268138887L70.62226666666668,31.143153548240704L79.45005,46.20419168472293L88.27783333333333,53.318045675754576L97.10561666666666,57.890621960163145L105.9334,62.89621675014497L114.76118333333335,65.16004943847663L123.58896666666668,65.22521907091148L132.41675,67.93874287605293L141.24453333333335,68.53304260969169L150.07231666666667,69.64933776855473L158.9001,70.84049069881445L167.72788333333332,70.78557246923452L176.55566666666667,70.71161592006689L185.38345,70.92591905593876L194.21123333333333,71.15191930532461L203.0390166666667,71.22249627113348L211.8668,71.35745429992681L220.69458333333336,71.38313913345343L229.5223666666667,71.39594399929054L238.35015,71.4723038077355L247.17793333333336,71.51796573400502L256.0057166666667,71.53270447254188L264.8335,71.54318118095405L273.66128333333336,71.55204319953923L282.4890666666667,71.55797624588018L291.31685000000004,71.5505787134171L300.14463333333333,71.54768729209907L308.97241666666673,71.55196809768684L317.8002,71.5532260537148L326.62798333333336,71.55713135004049L335.45576666666665,71.55861461162574L344.28355000000005,71.56062358617788L353.11133333333333,71.5607737898827L361.9391166666667,71.56116807460789L370.7669,71.56114929914482L379.59468333333336,71.56131827831275L388.42246666666665,71.5616750121117L397.25025000000005,71.56186276674276L406.0780333333334,71.56195664405827L414.9058166666667,71.5619378685952L423.7336,71.56197541952139L432.56138333333337,71.56195664405827L441.3891666666667,71.56197541952139L450.21695,71.56195664405827L459.0447333333334,71.5619378685952L467.8725166666667,71.56197541952139L476.7003,71.56195664405827" style="fill: none;" fill="none"></path></g><g><path stroke="rgb(0, 153, 136)" stroke-width="2px" d="M44.13891666666667,249.10963574051857L52.9667,265.0980127751827L61.79448333333334,268.81775119900703L70.62226666666668,272.8580524921417L79.45005,272.10945600271225L88.27783333333333,272.80488976836205L97.10561666666666,273.1298460960388L105.9334,274.0858034938574L114.76118333333335,274.5459666252136L123.58896666666668,274.70041827857494L132.41675,274.8364465087652L141.24453333333335,274.8386714011431L150.07231666666667,274.7276614755392L158.9001,274.8901208639145L167.72788333333332,274.8776445686817L176.55566666666667,274.8556491136551L185.38345,274.7783082872629L194.21123333333333,274.76532036066055L203.0390166666667,274.75416304171085L211.8668,274.71506313979626L220.69458333333336,274.7243663817644L229.5223666666667,274.7235637307167L238.35015,274.68880565464497L247.17793333333336,274.6691759079695L256.0057166666667,274.6698189675808L264.8335,274.66588550806046L273.66128333333336,274.66653326153755L282.4890666666667,274.6634822487831L291.31685000000004,274.6590136885643L300.14463333333333,274.65894797444344L308.97241666666673,274.65920144319534L317.8002,274.65806083381176L326.62798333333336,274.65799981355667L335.45576666666665,274.65682634711266L344.28355000000005,274.6561504304409L353.11133333333333,274.65606124699116L361.9391166666667,274.65633349120617L370.7669,274.6564790010452L379.59468333333336,274.6563710421324L388.42246666666665,274.6564649194479L397.25025000000005,274.65645083785057L406.0780333333334,274.6564461439848L414.9058166666667,274.65645083785057L423.7336,274.656483694911L432.56138333333337,274.656483694911L441.3891666666667,274.65651655197144L450.21695,274.65651655197144L459.0447333333334,274.656525939703L467.8725166666667,274.65653063356876L476.7003,274.65653532743454" style="fill: none;" fill="none"></path></g><g><path stroke="rgb(0, 119, 187)" stroke-width="2px" d="M44.13891666666667,249.40828764438632L52.9667,266.30777218937874L61.79448333333334,270.9006635248661L70.62226666666668,275.1710064858198L79.45005,274.8290583640337L88.27783333333333,274.89865900576115L97.10561666666666,276.1338779479265L105.9334,276.3291192948818L114.76118333333335,275.73688016831875L123.58896666666668,276.13231958448887L132.41675,276.5002294778824L141.24453333333335,276.2015259414911L150.07231666666667,276.43009842932224L158.9001,276.4579283595085L167.72788333333332,276.2907657176256L176.55566666666667,276.24631011486053L185.38345,276.3111230134964L194.21123333333333,276.28030778467655L203.0390166666667,276.27105148136616L211.8668,276.2183769196272L220.69458333333336,276.2065155208111L229.5223666666667,276.20943979918957L238.35015,276.18513026833534L247.17793333333336,276.19395473599434L256.0057166666667,276.20032900571823L264.8335,276.1979257464409L273.66128333333336,276.19924941658974L282.4890666666667,276.1954755485058L291.31685000000004,276.1941049396992L300.14463333333333,276.1907300502062L308.97241666666673,276.1916124969721L317.8002,276.1922931075096L326.62798333333336,276.1914341300726L335.45576666666665,276.19081453979015L344.28355000000005,276.1903592348099L353.11133333333333,276.190021276474L361.9391166666667,276.18993209302425L370.7669,276.18988984823227L379.59468333333336,276.18996964395046L388.42246666666665,276.1899602562189L397.25025000000005,276.1899227052927L406.0780333333334,276.18995556235313L414.9058166666667,276.1899273991585L423.7336,276.18993209302425L432.56138333333337,276.1899227052927L441.3891666666667,276.18993678689003L450.21695,276.1899273991585L459.0447333333334,276.18991331756115L467.8725166666667,276.18991331756115L476.7003,276.1899273991585" style="fill: none;" fill="none"></path></g><g><path stroke="rgb(204, 51, 17)" stroke-width="2px" d="M44.13891666666667,218.7910085320473L52.9667,238.0408806502819L61.79448333333334,251.15648040175438L70.62226666666668,256.22048565745354L79.45005,255.58529296517375L88.27783333333333,257.75026345252996L97.10561666666666,259.6185910105705L105.9334,259.7291127741337L114.76118333333335,259.4082870483399L123.58896666666668,259.78506365418434L132.41675,260.186633259058L141.24453333333335,260.5907844901085L150.07231666666667,260.5814530849457L158.9001,260.64028599858284L167.72788333333332,260.5365421772003L176.55566666666667,260.7692922055721L185.38345,260.7164580523968L194.21123333333333,260.69051975011826L203.0390166666667,260.6614271700382L211.8668,260.62975296378136L220.69458333333336,260.66781082749367L229.5223666666667,260.6567802429199L238.35015,260.69273525476456L247.17793333333336,260.683985888958L256.0057166666667,260.68383568525314L264.8335,260.6826058924198L273.66128333333336,260.68279364705086L282.4890666666667,260.67581856250763L291.31685000000004,260.6776867210865L300.14463333333333,260.6774144768715L308.97241666666673,260.6765508055687L317.8002,260.6766822338104L326.62798333333336,260.67607203125954L335.45576666666665,260.6758091747761L344.28355000000005,260.67612835764885L353.11133333333333,260.67522713541985L361.9391166666667,260.67520835995674L370.7669,260.67526468634605L379.59468333333336,260.6753585636616L388.42246666666665,260.6755275428295L397.25025000000005,260.6755744814873L406.0780333333334,260.67562142014503L414.9058166666667,260.67567774653435L423.7336,260.67567774653435L432.56138333333337,260.67569652199745L441.3891666666667,260.6756871342659L450.21695,260.675705909729L459.0447333333334,260.67569652199745L467.8725166666667,260.675705909729L476.7003,260.67569652199745" style="fill: none;" fill="none"></path></g></g></g></g></g></g><g transform="translate(50, 378)" clip-path="url(#clip_1)"><clipPath id="clip_1"><rect width="529" height="22"></rect></clipPath><g><g><line x1="0" y1="0" x2="0" y2="5" style="visibility: inherit;" fill="rgb(0, 0, 0)" stroke="rgb(204, 204, 204)" stroke-width="1px"></line><line x1="44.13891666666667" y1="0" x2="44.13891666666667" y2="5" style="visibility: inherit;" fill="rgb(0, 0, 0)" stroke="rgb(204, 204, 204)" stroke-width="1px"></line><line x1="88.27783333333333" y1="0" x2="88.27783333333333" y2="5" style="visibility: inherit;" fill="rgb(0, 0, 0)" stroke="rgb(204, 204, 204)" stroke-width="1px"></line><line x1="132.41675" y1="0" x2="132.41675" y2="5" style="visibility: inherit;" fill="rgb(0, 0, 0)" stroke="rgb(204, 204, 204)" stroke-width="1px"></line><line x1="176.55566666666667" y1="0" x2="176.55566666666667" y2="5" style="visibility: inherit;" fill="rgb(0, 0, 0)" stroke="rgb(204, 204, 204)" stroke-width="1px"></line><line x1="220.69458333333336" y1="0" x2="220.69458333333336" y2="5" style="visibility: inherit;" fill="rgb(0, 0, 0)" stroke="rgb(204, 204, 204)" stroke-width="1px"></line><line x1="264.8335" y1="0" x2="264.8335" y2="5" style="visibility: inherit;" fill="rgb(0, 0, 0)" stroke="rgb(204, 204, 204)" stroke-width="1px"></line><line x1="308.97241666666673" y1="0" x2="308.97241666666673" y2="5" style="visibility: inherit;" fill="rgb(0, 0, 0)" stroke="rgb(204, 204, 204)" stroke-width="1px"></line><line x1="353.11133333333333" y1="0" x2="353.11133333333333" y2="5" style="visibility: inherit;" fill="rgb(0, 0, 0)" stroke="rgb(204, 204, 204)" stroke-width="1px"></line><line x1="397.25025000000005" y1="0" x2="397.25025000000005" y2="5" style="visibility: inherit;" fill="rgb(0, 0, 0)" stroke="rgb(204, 204, 204)" stroke-width="1px"></line><line x1="441.3891666666667" y1="0" x2="441.3891666666667" y2="5" style="visibility: inherit;" fill="rgb(0, 0, 0)" stroke="rgb(204, 204, 204)" stroke-width="1px"></line><line x1="485.5280833333333" y1="0" x2="485.5280833333333" y2="5" style="visibility: inherit;" fill="rgb(0, 0, 0)" stroke="rgb(204, 204, 204)" stroke-width="1px"></line><line x1="529.667" y1="0" x2="529.667" y2="5" style="visibility: inherit;" fill="rgb(0, 0, 0)" stroke="rgb(204, 204, 204)" stroke-width="1px"></line></g><g transform="translate(0, 8)"><text x="0" y="0" dx="0em" dy="0.95em" style="text-anchor: middle; visibility: hidden; font-family: Roboto, sans-serif; font-size: 12px; font-weight: 200;" fill="rgb(50, 49, 63)" stroke="none" stroke-width="1px">-5</text><text x="44.13891666666667" y="0" dx="0em" dy="0.95em" style="text-anchor: middle; visibility: inherit; font-family: Roboto, sans-serif; font-size: 12px; font-weight: 200;" fill="rgb(50, 49, 63)" stroke="none" stroke-width="1px">0</text><text x="88.27783333333333" y="0" dx="0em" dy="0.95em" style="text-anchor: middle; visibility: inherit; font-family: Roboto, sans-serif; font-size: 12px; font-weight: 200;" fill="rgb(50, 49, 63)" stroke="none" stroke-width="1px">5</text><text x="132.41675" y="0" dx="0em" dy="0.95em" style="text-anchor: middle; visibility: inherit; font-family: Roboto, sans-serif; font-size: 12px; font-weight: 200;" fill="rgb(50, 49, 63)" stroke="none" stroke-width="1px">10</text><text x="176.55566666666667" y="0" dx="0em" dy="0.95em" style="text-anchor: middle; visibility: inherit; font-family: Roboto, sans-serif; font-size: 12px; font-weight: 200;" fill="rgb(50, 49, 63)" stroke="none" stroke-width="1px">15</text><text x="220.69458333333336" y="0" dx="0em" dy="0.95em" style="text-anchor: middle; visibility: inherit; font-family: Roboto, sans-serif; font-size: 12px; font-weight: 200;" fill="rgb(50, 49, 63)" stroke="none" stroke-width="1px">20</text><text x="264.8335" y="0" dx="0em" dy="0.95em" style="text-anchor: middle; visibility: inherit; font-family: Roboto, sans-serif; font-size: 12px; font-weight: 200;" fill="rgb(50, 49, 63)" stroke="none" stroke-width="1px">25</text><text x="308.97241666666673" y="0" dx="0em" dy="0.95em" style="text-anchor: middle; visibility: inherit; font-family: Roboto, sans-serif; font-size: 12px; font-weight: 200;" fill="rgb(50, 49, 63)" stroke="none" stroke-width="1px">30</text><text x="353.11133333333333" y="0" dx="0em" dy="0.95em" style="text-anchor: middle; visibility: inherit; font-family: Roboto, sans-serif; font-size: 12px; font-weight: 200;" fill="rgb(50, 49, 63)" stroke="none" stroke-width="1px">35</text><text x="397.25025000000005" y="0" dx="0em" dy="0.95em" style="text-anchor: middle; visibility: inherit; font-family: Roboto, sans-serif; font-size: 12px; font-weight: 200;" fill="rgb(50, 49, 63)" stroke="none" stroke-width="1px">40</text><text x="441.3891666666667" y="0" dx="0em" dy="0.95em" style="text-anchor: middle; visibility: inherit; font-family: Roboto, sans-serif; font-size: 12px; font-weight: 200;" fill="rgb(50, 49, 63)" stroke="none" stroke-width="1px">45</text><text x="485.5280833333333" y="0" dx="0em" dy="0.95em" style="text-anchor: middle; visibility: inherit; font-family: Roboto, sans-serif; font-size: 12px; font-weight: 200;" fill="rgb(50, 49, 63)" stroke="none" stroke-width="1px">50</text><text x="529.667" y="0" dx="0em" dy="0.95em" style="text-anchor: middle; visibility: hidden; font-family: Roboto, sans-serif; font-size: 12px; font-weight: 200;" fill="rgb(50, 49, 63)" stroke="none" stroke-width="1px">55</text></g><line x1="0" y1="0" x2="529.667" y2="0" fill="rgb(0, 0, 0)" stroke="rgb(204, 204, 204)" stroke-width="1px"></line></g></g></g></g></svg>