<svg viewBox="0 0 541 400" xmlns="http://www.w3.org/2000/svg"><g><g><g><g><g><line x1="60" y1="378" x2="55" y2="378" style="visibility: inherit;" fill="rgb(0, 0, 0)" stroke="rgb(204, 204, 204)" stroke-width="1px"></line><line x1="60" y1="340.2" x2="55" y2="340.2" style="visibility: inherit;" fill="rgb(0, 0, 0)" stroke="rgb(204, 204, 204)" stroke-width="1px"></line><line x1="60" y1="302.40000000000003" x2="55" y2="302.40000000000003" style="visibility: inherit;" fill="rgb(0, 0, 0)" stroke="rgb(204, 204, 204)" stroke-width="1px"></line><line x1="60" y1="264.59999999999997" x2="55" y2="264.59999999999997" style="visibility: inherit;" fill="rgb(0, 0, 0)" stroke="rgb(204, 204, 204)" stroke-width="1px"></line><line x1="60" y1="226.79999999999998" x2="55" y2="226.79999999999998" style="visibility: inherit;" fill="rgb(0, 0, 0)" stroke="rgb(204, 204, 204)" stroke-width="1px"></line><line x1="60" y1="189" x2="55" y2="189" style="visibility: inherit;" fill="rgb(0, 0, 0)" stroke="rgb(204, 204, 204)" stroke-width="1px"></line><line x1="60" y1="151.20000000000002" x2="55" y2="151.20000000000002" style="visibility: inherit;" fill="rgb(0, 0, 0)" stroke="rgb(204, 204, 204)" stroke-width="1px"></line><line x1="60" y1="113.40000000000002" x2="55" y2="113.40000000000002" style="visibility: inherit;" fill="rgb(0, 0, 0)" stroke="rgb(204, 204, 204)" stroke-width="1px"></line><line x1="60" y1="75.60000000000002" x2="55" y2="75.60000000000002" style="visibility: inherit;" fill="rgb(0, 0, 0)" stroke="rgb(204, 204, 204)" stroke-width="1px"></line><line x1="60" y1="37.79999999999999" x2="55" y2="37.79999999999999" style="visibility: inherit;" fill="rgb(0, 0, 0)" stroke="rgb(204, 204, 204)" stroke-width="1px"></line><line x1="60" y1="0" x2="55" y2="0" style="visibility: inherit;" fill="rgb(0, 0, 0)" stroke="rgb(204, 204, 204)" stroke-width="1px"></line></g><g transform="translate(50, 0)"><text x="0" y="378" dx="0em" dy="0.3em" style="text-anchor: end; visibility: hidden; font-family: Roboto, sans-serif; font-size: 12px; font-weight: 200;" fill="rgb(50, 49, 63)" stroke="none" stroke-width="1px">-0.05</text><text x="0" y="340.2" dx="0em" dy="0.3em" style="text-anchor: end; visibility: inherit; font-family: Roboto, sans-serif; font-size: 12px; font-weight: 200;" fill="rgb(50, 49, 63)" stroke="none" stroke-width="1px">0</text><text x="0" y="302.40000000000003" dx="0em" dy="0.3em" style="text-anchor: end; visibility: inherit; font-family: Roboto, sans-serif; font-size: 12px; font-weight: 200;" fill="rgb(50, 49, 63)" stroke="none" stroke-width="1px">0.05</text><text x="0" y="264.59999999999997" dx="0em" dy="0.3em" style="text-anchor: end; visibility: inherit; font-family: Roboto, sans-serif; font-size: 12px; font-weight: 200;" fill="rgb(50, 49, 63)" stroke="none" stroke-width="1px">0.1</text><text x="0" y="226.79999999999998" dx="0em" dy="0.3em" style="text-anchor: end; visibility: inherit; font-family: Roboto, sans-serif; font-size: 12px; font-weight: 200;" fill="rgb(50, 49, 63)" stroke="none" stroke-width="1px">0.15</text><text x="0" y="189" dx="0em" dy="0.3em" style="text-anchor: end; visibility: inherit; font-family: Roboto, sans-serif; font-size: 12px; font-weight: 200;" fill="rgb(50, 49, 63)" stroke="none" stroke-width="1px">0.2</text><text x="0" y="151.20000000000002" dx="0em" dy="0.3em" style="text-anchor: end; visibility: inherit; font-family: Roboto, sans-serif; font-size: 12px; font-weight: 200;" fill="rgb(50, 49, 63)" stroke="none" stroke-width="1px">0.25</text><text x="0" y="113.40000000000002" dx="0em" dy="0.3em" style="text-anchor: end; visibility: inherit; font-family: Roboto, sans-serif; font-size: 12px; font-weight: 200;" fill="rgb(50, 49, 63)" stroke="none" stroke-width="1px">0.3</text><text x="0" y="75.60000000000002" dx="0em" dy="0.3em" style="text-anchor: end; visibility: inherit; font-family: Roboto, sans-serif; font-size: 12px; font-weight: 200;" fill="rgb(50, 49, 63)" stroke="none" stroke-width="1px">0.35</text><text x="0" y="37.79999999999999" dx="0em" dy="0.3em" style="text-anchor: end; visibility: inherit; font-family: Roboto, sans-serif; font-size: 12px; font-weight: 200;" fill="rgb(50, 49, 63)" stroke="none" stroke-width="1px">0.4</text><text x="0" y="0" dx="0em" dy="0.3em" style="text-anchor: end; visibility: hidden; font-family: Roboto, sans-serif; font-size: 12px; font-weight: 200;" fill="rgb(50, 49, 63)" stroke="none" stroke-width="1px">0.45</text></g><line x1="60" y1="0" x2="60" y2="378" fill="rgb(0, 0, 0)" stroke="rgb(204, 204, 204)" stroke-width="1px"></line></g></g><g transform="translate(60, 0)" clip-path="url(#clip_0)"><clipPath id="clip_0"><rect width="481" height="378"></rect></clipPath><g><g><g><line x1="0" y1="0" x2="0" y2="378" fill="rgb(0, 0, 0)" stroke="rgb(60, 60, 60)" stroke-width="1px" opacity="0.25"></line><line x1="40.08333333333333" y1="0" x2="40.08333333333333" y2="378" fill="rgb(0, 0, 0)" stroke="rgb(60, 60, 60)" stroke-width="1px" opacity="0.25"></line><line x1="80.16666666666666" y1="0" x2="80.16666666666666" y2="378" fill="rgb(0, 0, 0)" stroke="rgb(60, 60, 60)" stroke-width="1px" opacity="0.25"></line><line x1="120.25" y1="0" x2="120.25" y2="378" fill="rgb(0, 0, 0)" stroke="rgb(60, 60, 60)" stroke-width="1px" opacity="0.25"></line><line x1="160.33333333333331" y1="0" x2="160.33333333333331" y2="378" fill="rgb(0, 0, 0)" stroke="rgb(60, 60, 60)" stroke-width="1px" opacity="0.25"></line><line x1="200.41666666666669" y1="0" x2="200.41666666666669" y2="378" fill="rgb(0, 0, 0)" stroke="rgb(60, 60, 60)" stroke-width="1px" opacity="0.25"></line><line x1="240.5" y1="0" x2="240.5" y2="378" fill="rgb(0, 0, 0)" stroke="rgb(60, 60, 60)" stroke-width="1px" opacity="0.25"></line><line x1="280.58333333333337" y1="0" x2="280.58333333333337" y2="378" fill="rgb(0, 0, 0)" stroke="rgb(60, 60, 60)" stroke-width="1px" opacity="0.25"></line><line x1="320.66666666666663" y1="0" x2="320.66666666666663" y2="378" fill="rgb(0, 0, 0)" stroke="rgb(60, 60, 60)" stroke-width="1px" opacity="0.25"></line><line x1="360.75" y1="0" x2="360.75" y2="378" fill="rgb(0, 0, 0)" stroke="rgb(60, 60, 60)" stroke-width="1px" opacity="0.25"></line><line x1="400.83333333333337" y1="0" x2="400.83333333333337" y2="378" fill="rgb(0, 0, 0)" stroke="rgb(60, 60, 60)" stroke-width="1px" opacity="0.25"></line><line x1="440.91666666666663" y1="0" x2="440.91666666666663" y2="378" fill="rgb(0, 0, 0)" stroke="rgb(60, 60, 60)" stroke-width="1px" opacity="0.25"></line><line x1="481" y1="0" x2="481" y2="378" fill="rgb(0, 0, 0)" stroke="rgb(60, 60, 60)" stroke-width="1px" opacity="0.25"></line></g><g><line x1="0" y1="378" x2="481" y2="378" fill="rgb(0, 0, 0)" stroke="rgb(60, 60, 60)" stroke-width="1px" opacity="0.25"></line><line x1="0" y1="340.2" x2="481" y2="340.2" fill="rgb(0, 0, 0)" stroke="rgb(60, 60, 60)" stroke-width="1px" opacity="0.25"></line><line x1="0" y1="302.40000000000003" x2="481" y2="302.40000000000003" fill="rgb(0, 0, 0)" stroke="rgb(60, 60, 60)" stroke-width="1px" opacity="0.25"></line><line x1="0" y1="264.59999999999997" x2="481" y2="264.59999999999997" fill="rgb(0, 0, 0)" stroke="rgb(60, 60, 60)" stroke-width="1px" opacity="0.25"></line><line x1="0" y1="226.79999999999998" x2="481" y2="226.79999999999998" fill="rgb(0, 0, 0)" stroke="rgb(60, 60, 60)" stroke-width="1px" opacity="0.25"></line><line x1="0" y1="189" x2="481" y2="189" fill="rgb(0, 0, 0)" stroke="rgb(60, 60, 60)" stroke-width="1px" opacity="0.25"></line><line x1="0" y1="151.20000000000002" x2="481" y2="151.20000000000002" fill="rgb(0, 0, 0)" stroke="rgb(60, 60, 60)" stroke-width="1px" opacity="0.25"></line><line x1="0" y1="113.40000000000002" x2="481" y2="113.40000000000002" fill="rgb(0, 0, 0)" stroke="rgb(60, 60, 60)" stroke-width="1px" opacity="0.25"></line><line x1="0" y1="75.60000000000002" x2="481" y2="75.60000000000002" fill="rgb(0, 0, 0)" stroke="rgb(60, 60, 60)" stroke-width="1px" opacity="0.25"></line><line x1="0" y1="37.79999999999999" x2="481" y2="37.79999999999999" fill="rgb(0, 0, 0)" stroke="rgb(60, 60, 60)" stroke-width="1px" opacity="0.25"></line><line x1="0" y1="0" x2="481" y2="0" fill="rgb(0, 0, 0)" stroke="rgb(60, 60, 60)" stroke-width="1px" opacity="0.25"></line></g></g></g><g><g><line x1="0" y1="340.2" x2="481" y2="340.2" fill="rgb(0, 0, 0)" stroke="rgb(153, 153, 153)" stroke-width="1.5px"></line></g></g><g><g><line x1="40.08333333333333" y1="0" x2="40.08333333333333" y2="378" fill="rgb(0, 0, 0)" stroke="rgb(153, 153, 153)" stroke-width="1.5px"></line></g></g><g><g><g><g><g><path stroke="rgb(0, 119, 187)" stroke-width="2px" d="M40.08333333333333,-25.01981263160709L48.1,16.919780445098887L56.11666666666667,54.60684378147126L64.13333333333333,55.66454071998597L72.14999999999999,62.81564898490907L80.16666666666666,71.02240390777588L88.18333333333332,79.91424543857575L96.2,84.31277318000794L104.21666666666667,84.22744996547699L112.23333333333333,86.88459105491638L120.25,86.06907505989075L128.26666666666665,86.19612486362458L136.28333333333333,87.12798864841461L144.29999999999998,86.56535561084748L152.31666666666666,87.79669554233551L160.33333333333331,88.0312611579895L168.35,89.0236870765686L176.36666666666665,89.22950370311737L184.38333333333335,89.06266493797303L192.4,89.1492723941803L200.41666666666669,89.30912668704987L208.43333333333334,89.31246120929718L216.45000000000002,89.2012503862381L224.46666666666667,89.24430627822876L232.48333333333335,89.31890494823456L240.5,89.31205565929413L248.51666666666668,89.32830018997193L256.5333333333333,89.37674088478089L264.55,89.4074500322342L272.56666666666666,89.41603417396546L280.58333333333337,89.4249562740326L288.59999999999997,89.42754728794098L296.6166666666667,89.43633420467377L304.6333333333333,89.43768603801728L312.65000000000003,89.44005174636841L320.66666666666663,89.44171900749207L328.68333333333334,89.44388194084168L336.7,89.44503099918366L344.7166666666667,89.44608993530274L352.7333333333333,89.44669826030731L360.75,89.44694609642029L368.7666666666667,89.44714887142182L376.7833333333333,89.44717140197754L384.8,89.44714887142182L392.81666666666666,89.44710381031037L400.83333333333337,89.44721646308899L408.84999999999997,89.44723899364472L416.8666666666667,89.44721646308899L424.8833333333333,89.44723899364472L432.90000000000003,89.44721646308899" style="fill: none;" fill="none"></path></g><g><path stroke="rgb(51, 187, 238)" stroke-width="2px" d="M40.08333333333333,37.92393608093263L48.1,54.12883551120759L56.11666666666667,78.61630518436432L64.13333333333333,87.71315224170685L72.14999999999999,96.27169926166535L80.16666666666666,101.83566505908966L88.18333333333332,102.21190280914307L96.2,110.964573097229L104.21666666666667,111.56215102672577L112.23333333333333,110.12783331871033L120.25,111.23813910484314L128.26666666666665,113.5595073223114L136.28333333333333,112.3651850938797L144.29999999999998,113.65258104801178L152.31666666666666,113.05209667682648L160.33333333333331,112.7215734243393L168.35,112.88870508670807L176.36666666666665,113.07314021587372L184.38333333333335,113.54427666664124L192.4,113.50766451358795L200.41666666666669,113.32482905387879L208.43333333333334,113.40681774616242L216.45000000000002,113.44376785755158L224.46666666666667,113.5831193447113L232.48333333333335,113.63151497840882L240.5,113.64974219799042L248.51666666666668,113.64701600074768L256.5333333333333,113.67463846206665L264.55,113.69004936218262L272.56666666666666,113.69818289279938L280.58333333333337,113.70057113170624L288.59999999999997,113.69894893169403L296.6166666666667,113.69714648723603L304.6333333333333,113.69991774559021L312.65000000000003,113.70352263450623L320.66666666666663,113.70491952896118L328.68333333333334,113.70476181507111L336.7,113.70663185119629L344.7166666666667,113.70724017620087L352.7333333333333,113.70658679008484L360.75,113.70667691230774L368.7666666666667,113.7069923400879L376.7833333333333,113.70683462619782L384.8,113.70685715675354L392.81666666666666,113.70687968730927L400.83333333333337,113.70687968730927L408.84999999999997,113.70696980953217L416.8666666666667,113.70694727897644L424.8833333333333,113.70694727897644L432.90000000000003,113.70696980953217" style="fill: none;" fill="none"></path></g><g><path stroke="rgb(0, 153, 136)" stroke-width="2px" d="M40.08333333333333,4.5474186658859335L48.1,61.445858788490305L56.11666666666667,72.1296680688858L64.13333333333333,84.8235408782959L72.14999999999999,85.11377949714661L80.16666666666666,94.24424214363098L88.18333333333332,98.17451734542847L96.2,100.02853424549103L104.21666666666667,101.8857054233551L112.23333333333333,104.60113306045533L120.25,108.29567105770111L128.26666666666665,107.01762528419495L136.28333333333333,106.43696780204773L144.29999999999998,107.71825797557831L152.31666666666666,107.86166496276856L160.33333333333331,108.22460968494416L168.35,108.31842691898346L176.36666666666665,108.59893233776093L184.38333333333335,109.05472548007965L192.4,108.95818204879761L200.41666666666669,109.04332501888275L208.43333333333334,109.04082412719727L216.45000000000002,108.91904647350312L224.46666666666667,109.0351013660431L232.48333333333335,109.00930387973786L240.5,108.95809192657471L248.51666666666668,108.96712667942047L256.5333333333333,109.00806469917298L264.55,109.02198858261109L272.56666666666666,109.0381655216217L280.58333333333337,109.0495659828186L288.59999999999997,109.05947942733765L296.6166666666667,109.05977232456208L304.6333333333333,109.05830783843994L312.65000000000003,109.05785722732544L320.66666666666663,109.0588035106659L328.68333333333334,109.0597047328949L336.7,109.05932171344757L344.7166666666667,109.05965967178345L352.7333333333333,109.0604257106781L360.75,109.06101150512696L368.7666666666667,109.06116921901703L376.7833333333333,109.06134946346283L384.8,109.06148464679718L392.81666666666666,109.06148464679718L400.83333333333337,109.06150717735291L408.84999999999997,109.06150717735291L416.8666666666667,109.06150717735291L424.8833333333333,109.06152970790863L432.90000000000003,109.06150717735291" style="fill: none;" fill="none"></path></g><g><path stroke="rgb(255, 112, 67)" stroke-width="2px" d="M40.08333333333333,40.86079401969911L48.1,58.99140257835389L56.11666666666667,91.31452639102936L64.13333333333333,88.87809462547303L72.14999999999999,96.1049506187439L80.16666666666666,99.0802456855774L88.18333333333332,109.23598380088806L96.2,111.48505146503449L104.21666666666667,114.46007616519928L112.23333333333333,115.00939364433289L120.25,115.63819892406464L128.26666666666665,116.0282253742218L136.28333333333333,117.76030690670014L144.29999999999998,117.66896803379059L152.31666666666666,119.21514995098114L160.33333333333331,119.05982429981232L168.35,119.27755959033966L176.36666666666665,119.53857607841492L184.38333333333335,119.1889018535614L192.4,119.63809354305268L200.41666666666669,119.58884174823761L208.43333333333334,119.75376541614533L216.45000000000002,119.67808527946472L224.46666666666667,119.72744972705841L232.48333333333335,119.76928896903992L240.5,119.83746643066407L248.51666666666668,119.87766094207764L256.5333333333333,119.90095753669739L264.55,119.9304049730301L272.56666666666666,119.94083662033081L280.58333333333337,119.93934960365296L288.59999999999997,119.94766337871552L296.6166666666667,119.94755072593689L304.6333333333333,119.94833929538727L312.65000000000003,119.95165128707886L320.66666666666663,119.95334107875824L328.68333333333334,119.95602221488953L336.7,119.95566172599793L344.7166666666667,119.95665307044983L352.7333333333333,119.95773453712464L360.75,119.95804996490479L368.7666666666667,119.95809502601624L376.7833333333333,119.95807249546051L384.8,119.95798237323761L392.81666666666666,119.95802743434906L400.83333333333337,119.95807249546051L408.84999999999997,119.95800490379334L416.8666666666667,119.95802743434906L424.8833333333333,119.95800490379334L432.90000000000003,119.95800490379334" style="fill: none;" fill="none"></path></g><g><path stroke="rgb(204, 51, 17)" stroke-width="2px" d="M40.08333333333333,59.45945234298707L48.1,97.18932373523712L56.11666666666667,116.29899759292603L64.13333333333333,126.44187076091767L72.14999999999999,126.67474658489228L80.16666666666666,128.67825372219087L88.18333333333332,131.24716515541078L96.2,133.9090827226639L104.21666666666667,135.21851356029512L112.23333333333333,134.34836096763613L120.25,133.7492058992386L128.26666666666665,135.7146589279175L136.28333333333333,136.59447712898256L144.29999999999998,136.4560719251633L152.31666666666666,136.8690344810486L160.33333333333331,137.17346735000612L168.35,137.33356947898866L176.36666666666665,137.3168067455292L184.38333333333335,137.5215869665146L192.4,137.5891786336899L200.41666666666669,137.73337419033052L208.43333333333334,137.76525492668154L216.45000000000002,137.71643121242525L224.46666666666667,137.66632325649263L232.48333333333335,137.6585727453232L240.5,137.69838423728945L248.51666666666668,137.70620234012605L256.5333333333333,137.7018539428711L264.55,137.69872219562532L272.56666666666666,137.70658535957338L280.58333333333337,137.70816249847414L288.59999999999997,137.70703597068788L296.6166666666667,137.7079371929169L304.6333333333333,137.70985229015352L312.65000000000003,137.70757670402529L320.66666666666663,137.70762176513674L328.68333333333334,137.70791466236116L336.7,137.70850045681001L344.7166666666667,137.7085680484772L352.7333333333333,137.70922143459322L360.75,137.70962698459627L368.7666666666667,137.70969457626344L376.7833333333333,137.7097396373749L384.8,137.70994241237642L392.81666666666666,137.70996494293215L400.83333333333337,137.70998747348787L408.84999999999997,137.71003253459932L416.8666666666667,137.70998747348787L424.8833333333333,137.70998747348787L432.90000000000003,137.70998747348787" style="fill: none;" fill="none"></path></g></g></g></g></g><g><g opacity="0.668715"><span fill="rgb(0, 0, 0)" stroke="none" stroke-width="1px">Alt + Scroll to Zoom</span></g></g></g><g transform="translate(60, 378)" clip-path="url(#clip_1)"><clipPath id="clip_1"><rect width="481" height="22"></rect></clipPath><g><g><line x1="0" y1="0" x2="0" y2="5" style="visibility: inherit;" fill="rgb(0, 0, 0)" stroke="rgb(204, 204, 204)" stroke-width="1px"></line><line x1="40.08333333333333" y1="0" x2="40.08333333333333" y2="5" style="visibility: inherit;" fill="rgb(0, 0, 0)" stroke="rgb(204, 204, 204)" stroke-width="1px"></line><line x1="80.16666666666666" y1="0" x2="80.16666666666666" y2="5" style="visibility: inherit;" fill="rgb(0, 0, 0)" stroke="rgb(204, 204, 204)" stroke-width="1px"></line><line x1="120.25" y1="0" x2="120.25" y2="5" style="visibility: inherit;" fill="rgb(0, 0, 0)" stroke="rgb(204, 204, 204)" stroke-width="1px"></line><line x1="160.33333333333331" y1="0" x2="160.33333333333331" y2="5" style="visibility: inherit;" fill="rgb(0, 0, 0)" stroke="rgb(204, 204, 204)" stroke-width="1px"></line><line x1="200.41666666666669" y1="0" x2="200.41666666666669" y2="5" style="visibility: inherit;" fill="rgb(0, 0, 0)" stroke="rgb(204, 204, 204)" stroke-width="1px"></line><line x1="240.5" y1="0" x2="240.5" y2="5" style="visibility: inherit;" fill="rgb(0, 0, 0)" stroke="rgb(204, 204, 204)" stroke-width="1px"></line><line x1="280.58333333333337" y1="0" x2="280.58333333333337" y2="5" style="visibility: inherit;" fill="rgb(0, 0, 0)" stroke="rgb(204, 204, 204)" stroke-width="1px"></line><line x1="320.66666666666663" y1="0" x2="320.66666666666663" y2="5" style="visibility: inherit;" fill="rgb(0, 0, 0)" stroke="rgb(204, 204, 204)" stroke-width="1px"></line><line x1="360.75" y1="0" x2="360.75" y2="5" style="visibility: inherit;" fill="rgb(0, 0, 0)" stroke="rgb(204, 204, 204)" stroke-width="1px"></line><line x1="400.83333333333337" y1="0" x2="400.83333333333337" y2="5" style="visibility: inherit;" fill="rgb(0, 0, 0)" stroke="rgb(204, 204, 204)" stroke-width="1px"></line><line x1="440.91666666666663" y1="0" x2="440.91666666666663" y2="5" style="visibility: inherit;" fill="rgb(0, 0, 0)" stroke="rgb(204, 204, 204)" stroke-width="1px"></line><line x1="481" y1="0" x2="481" y2="5" style="visibility: inherit;" fill="rgb(0, 0, 0)" stroke="rgb(204, 204, 204)" stroke-width="1px"></line></g><g transform="translate(0, 8)"><text x="0" y="0" dx="0em" dy="0.95em" style="text-anchor: middle; visibility: hidden; font-family: Roboto, sans-serif; font-size: 12px; font-weight: 200;" fill="rgb(50, 49, 63)" stroke="none" stroke-width="1px">-5</text><text x="40.08333333333333" y="0" dx="0em" dy="0.95em" style="text-anchor: middle; visibility: inherit; font-family: Roboto, sans-serif; font-size: 12px; font-weight: 200;" fill="rgb(50, 49, 63)" stroke="none" stroke-width="1px">0</text><text x="80.16666666666666" y="0" dx="0em" dy="0.95em" style="text-anchor: middle; visibility: inherit; font-family: Roboto, sans-serif; font-size: 12px; font-weight: 200;" fill="rgb(50, 49, 63)" stroke="none" stroke-width="1px">5</text><text x="120.25" y="0" dx="0em" dy="0.95em" style="text-anchor: middle; visibility: inherit; font-family: Roboto, sans-serif; font-size: 12px; font-weight: 200;" fill="rgb(50, 49, 63)" stroke="none" stroke-width="1px">10</text><text x="160.33333333333331" y="0" dx="0em" dy="0.95em" style="text-anchor: middle; visibility: inherit; font-family: Roboto, sans-serif; font-size: 12px; font-weight: 200;" fill="rgb(50, 49, 63)" stroke="none" stroke-width="1px">15</text><text x="200.41666666666669" y="0" dx="0em" dy="0.95em" style="text-anchor: middle; visibility: inherit; font-family: Roboto, sans-serif; font-size: 12px; font-weight: 200;" fill="rgb(50, 49, 63)" stroke="none" stroke-width="1px">20</text><text x="240.5" y="0" dx="0em" dy="0.95em" style="text-anchor: middle; visibility: inherit; font-family: Roboto, sans-serif; font-size: 12px; font-weight: 200;" fill="rgb(50, 49, 63)" stroke="none" stroke-width="1px">25</text><text x="280.58333333333337" y="0" dx="0em" dy="0.95em" style="text-anchor: middle; visibility: inherit; font-family: Roboto, sans-serif; font-size: 12px; font-weight: 200;" fill="rgb(50, 49, 63)" stroke="none" stroke-width="1px">30</text><text x="320.66666666666663" y="0" dx="0em" dy="0.95em" style="text-anchor: middle; visibility: inherit; font-family: Roboto, sans-serif; font-size: 12px; font-weight: 200;" fill="rgb(50, 49, 63)" stroke="none" stroke-width="1px">35</text><text x="360.75" y="0" dx="0em" dy="0.95em" style="text-anchor: middle; visibility: inherit; font-family: Roboto, sans-serif; font-size: 12px; font-weight: 200;" fill="rgb(50, 49, 63)" stroke="none" stroke-width="1px">40</text><text x="400.83333333333337" y="0" dx="0em" dy="0.95em" style="text-anchor: middle; visibility: inherit; font-family: Roboto, sans-serif; font-size: 12px; font-weight: 200;" fill="rgb(50, 49, 63)" stroke="none" stroke-width="1px">45</text><text x="440.91666666666663" y="0" dx="0em" dy="0.95em" style="text-anchor: middle; visibility: inherit; font-family: Roboto, sans-serif; font-size: 12px; font-weight: 200;" fill="rgb(50, 49, 63)" stroke="none" stroke-width="1px">50</text><text x="481" y="0" dx="0em" dy="0.95em" style="text-anchor: middle; visibility: hidden; font-family: Roboto, sans-serif; font-size: 12px; font-weight: 200;" fill="rgb(50, 49, 63)" stroke="none" stroke-width="1px">55</text></g><line x1="0" y1="0" x2="481" y2="0" fill="rgb(0, 0, 0)" stroke="rgb(204, 204, 204)" stroke-width="1px"></line></g></g></g></g></svg>