<svg viewBox="0 0 603.6666870117188 400" xmlns="http://www.w3.org/2000/svg"><g><g><g><g><g><line x1="50" y1="378" x2="45" y2="378" style="visibility: inherit;" fill="rgb(0, 0, 0)" stroke="rgb(204, 204, 204)" stroke-width="1px"></line><line x1="50" y1="335.99999999999994" x2="45" y2="335.99999999999994" style="visibility: inherit;" fill="rgb(0, 0, 0)" stroke="rgb(204, 204, 204)" stroke-width="1px"></line><line x1="50" y1="293.9999999999999" x2="45" y2="293.9999999999999" style="visibility: inherit;" fill="rgb(0, 0, 0)" stroke="rgb(204, 204, 204)" stroke-width="1px"></line><line x1="50" y1="251.99999999999986" x2="45" y2="251.99999999999986" style="visibility: inherit;" fill="rgb(0, 0, 0)" stroke="rgb(204, 204, 204)" stroke-width="1px"></line><line x1="50" y1="209.9999999999998" x2="45" y2="209.9999999999998" style="visibility: inherit;" fill="rgb(0, 0, 0)" stroke="rgb(204, 204, 204)" stroke-width="1px"></line><line x1="50" y1="167.99999999999974" x2="45" y2="167.99999999999974" style="visibility: inherit;" fill="rgb(0, 0, 0)" stroke="rgb(204, 204, 204)" stroke-width="1px"></line><line x1="50" y1="125.99999999999967" x2="45" y2="125.99999999999967" style="visibility: inherit;" fill="rgb(0, 0, 0)" stroke="rgb(204, 204, 204)" stroke-width="1px"></line><line x1="50" y1="83.99999999999962" x2="45" y2="83.99999999999962" style="visibility: inherit;" fill="rgb(0, 0, 0)" stroke="rgb(204, 204, 204)" stroke-width="1px"></line><line x1="50" y1="42.000000000000064" x2="45" y2="42.000000000000064" style="visibility: inherit;" fill="rgb(0, 0, 0)" stroke="rgb(204, 204, 204)" stroke-width="1px"></line><line x1="50" y1="0" x2="45" y2="0" style="visibility: inherit;" fill="rgb(0, 0, 0)" stroke="rgb(204, 204, 204)" stroke-width="1px"></line></g><g transform="translate(40, 0)"><text x="0" y="378" dx="0em" dy="0.3em" style="text-anchor: end; visibility: hidden; font-family: Roboto, sans-serif; font-size: 12px; font-weight: 200;" fill="rgb(50, 49, 63)" stroke="none" stroke-width="1px">0.86</text><text x="0" y="335.99999999999994" dx="0em" dy="0.3em" style="text-anchor: end; visibility: inherit; font-family: Roboto, sans-serif; font-size: 12px; font-weight: 200;" fill="rgb(50, 49, 63)" stroke="none" stroke-width="1px">0.87</text><text x="0" y="293.9999999999999" dx="0em" dy="0.3em" style="text-anchor: end; visibility: inherit; font-family: Roboto, sans-serif; font-size: 12px; font-weight: 200;" fill="rgb(50, 49, 63)" stroke="none" stroke-width="1px">0.88</text><text x="0" y="251.99999999999986" dx="0em" dy="0.3em" style="text-anchor: end; visibility: inherit; font-family: Roboto, sans-serif; font-size: 12px; font-weight: 200;" fill="rgb(50, 49, 63)" stroke="none" stroke-width="1px">0.89</text><text x="0" y="209.9999999999998" dx="0em" dy="0.3em" style="text-anchor: end; visibility: inherit; font-family: Roboto, sans-serif; font-size: 12px; font-weight: 200;" fill="rgb(50, 49, 63)" stroke="none" stroke-width="1px">0.9</text><text x="0" y="167.99999999999974" dx="0em" dy="0.3em" style="text-anchor: end; visibility: inherit; font-family: Roboto, sans-serif; font-size: 12px; font-weight: 200;" fill="rgb(50, 49, 63)" stroke="none" stroke-width="1px">0.91</text><text x="0" y="125.99999999999967" dx="0em" dy="0.3em" style="text-anchor: end; visibility: inherit; font-family: Roboto, sans-serif; font-size: 12px; font-weight: 200;" fill="rgb(50, 49, 63)" stroke="none" stroke-width="1px">0.92</text><text x="0" y="83.99999999999962" dx="0em" dy="0.3em" style="text-anchor: end; visibility: inherit; font-family: Roboto, sans-serif; font-size: 12px; font-weight: 200;" fill="rgb(50, 49, 63)" stroke="none" stroke-width="1px">0.93</text><text x="0" y="42.000000000000064" dx="0em" dy="0.3em" style="text-anchor: end; visibility: inherit; font-family: Roboto, sans-serif; font-size: 12px; font-weight: 200;" fill="rgb(50, 49, 63)" stroke="none" stroke-width="1px">0.94</text><text x="0" y="0" dx="0em" dy="0.3em" style="text-anchor: end; visibility: hidden; font-family: Roboto, sans-serif; font-size: 12px; font-weight: 200;" fill="rgb(50, 49, 63)" stroke="none" stroke-width="1px">0.95</text></g><line x1="50" y1="0" x2="50" y2="378" fill="rgb(0, 0, 0)" stroke="rgb(204, 204, 204)" stroke-width="1px"></line></g></g><g transform="translate(50, 0)" clip-path="url(#clip_0)"><clipPath id="clip_0"><rect width="553" height="378"></rect></clipPath><g><g><g><line x1="0" y1="0" x2="0" y2="378" fill="rgb(0, 0, 0)" stroke="rgb(60, 60, 60)" stroke-width="1px" opacity="0.25"></line><line x1="46.13891666666667" y1="0" x2="46.13891666666667" y2="378" fill="rgb(0, 0, 0)" stroke="rgb(60, 60, 60)" stroke-width="1px" opacity="0.25"></line><line x1="92.27783333333333" y1="0" x2="92.27783333333333" y2="378" fill="rgb(0, 0, 0)" stroke="rgb(60, 60, 60)" stroke-width="1px" opacity="0.25"></line><line x1="138.41675" y1="0" x2="138.41675" y2="378" fill="rgb(0, 0, 0)" stroke="rgb(60, 60, 60)" stroke-width="1px" opacity="0.25"></line><line x1="184.55566666666667" y1="0" x2="184.55566666666667" y2="378" fill="rgb(0, 0, 0)" stroke="rgb(60, 60, 60)" stroke-width="1px" opacity="0.25"></line><line x1="230.69458333333336" y1="0" x2="230.69458333333336" y2="378" fill="rgb(0, 0, 0)" stroke="rgb(60, 60, 60)" stroke-width="1px" opacity="0.25"></line><line x1="276.8335" y1="0" x2="276.8335" y2="378" fill="rgb(0, 0, 0)" stroke="rgb(60, 60, 60)" stroke-width="1px" opacity="0.25"></line><line x1="322.97241666666673" y1="0" x2="322.97241666666673" y2="378" fill="rgb(0, 0, 0)" stroke="rgb(60, 60, 60)" stroke-width="1px" opacity="0.25"></line><line x1="369.11133333333333" y1="0" x2="369.11133333333333" y2="378" fill="rgb(0, 0, 0)" stroke="rgb(60, 60, 60)" stroke-width="1px" opacity="0.25"></line><line x1="415.25025000000005" y1="0" x2="415.25025000000005" y2="378" fill="rgb(0, 0, 0)" stroke="rgb(60, 60, 60)" stroke-width="1px" opacity="0.25"></line><line x1="461.3891666666667" y1="0" x2="461.3891666666667" y2="378" fill="rgb(0, 0, 0)" stroke="rgb(60, 60, 60)" stroke-width="1px" opacity="0.25"></line><line x1="507.5280833333333" y1="0" x2="507.5280833333333" y2="378" fill="rgb(0, 0, 0)" stroke="rgb(60, 60, 60)" stroke-width="1px" opacity="0.25"></line><line x1="553.667" y1="0" x2="553.667" y2="378" fill="rgb(0, 0, 0)" stroke="rgb(60, 60, 60)" stroke-width="1px" opacity="0.25"></line></g><g><line x1="0" y1="378" x2="553.667" y2="378" fill="rgb(0, 0, 0)" stroke="rgb(60, 60, 60)" stroke-width="1px" opacity="0.25"></line><line x1="0" y1="335.99999999999994" x2="553.667" y2="335.99999999999994" fill="rgb(0, 0, 0)" stroke="rgb(60, 60, 60)" stroke-width="1px" opacity="0.25"></line><line x1="0" y1="293.9999999999999" x2="553.667" y2="293.9999999999999" fill="rgb(0, 0, 0)" stroke="rgb(60, 60, 60)" stroke-width="1px" opacity="0.25"></line><line x1="0" y1="251.99999999999986" x2="553.667" y2="251.99999999999986" fill="rgb(0, 0, 0)" stroke="rgb(60, 60, 60)" stroke-width="1px" opacity="0.25"></line><line x1="0" y1="209.9999999999998" x2="553.667" y2="209.9999999999998" fill="rgb(0, 0, 0)" stroke="rgb(60, 60, 60)" stroke-width="1px" opacity="0.25"></line><line x1="0" y1="167.99999999999974" x2="553.667" y2="167.99999999999974" fill="rgb(0, 0, 0)" stroke="rgb(60, 60, 60)" stroke-width="1px" opacity="0.25"></line><line x1="0" y1="125.99999999999967" x2="553.667" y2="125.99999999999967" fill="rgb(0, 0, 0)" stroke="rgb(60, 60, 60)" stroke-width="1px" opacity="0.25"></line><line x1="0" y1="83.99999999999962" x2="553.667" y2="83.99999999999962" fill="rgb(0, 0, 0)" stroke="rgb(60, 60, 60)" stroke-width="1px" opacity="0.25"></line><line x1="0" y1="42.000000000000064" x2="553.667" y2="42.000000000000064" fill="rgb(0, 0, 0)" stroke="rgb(60, 60, 60)" stroke-width="1px" opacity="0.25"></line><line x1="0" y1="0" x2="553.667" y2="0" fill="rgb(0, 0, 0)" stroke="rgb(60, 60, 60)" stroke-width="1px" opacity="0.25"></line></g></g></g><g><g><line x1="0" y1="3990.0000000000014" x2="553.667" y2="3990.0000000000014" fill="rgb(0, 0, 0)" stroke="rgb(153, 153, 153)" stroke-width="1.5px"></line></g></g><g><g><line x1="46.13891666666667" y1="0" x2="46.13891666666667" y2="378" fill="rgb(0, 0, 0)" stroke="rgb(153, 153, 153)" stroke-width="1.5px"></line></g></g><g><g><g><g><g><path stroke="rgb(0, 153, 136)" stroke-width="2px" d="M46.13891666666667,410.8227038383484L55.36670000000001,330.92534780502314L64.59448333333334,293.1363487243652L73.82226666666666,282.33945608139027L83.05005,270.4628491401671L92.27783333333333,261.82513475418085L101.50561666666667,245.62992095947257L110.73340000000002,239.15163516998282L119.96118333333334,256.4268136024474L129.1889666666667,249.94852781295765L138.41675,234.8330283164977L147.64453333333333,238.07192087173453L156.87231666666668,233.75331401824943L166.1001,232.67359972000114L175.32788333333335,240.2313494682311L184.55566666666667,238.07192087173453L193.78345,239.15163516998282L203.01123333333334,239.15163516998282L212.23901666666669,240.2313494682311L221.46680000000003,240.2313494682311L230.69458333333336,239.15163516998282L239.92236666666668,239.15163516998282L249.15015000000002,239.15163516998282L258.3779333333334,236.9922065734862L267.6057166666667,236.9922065734862L276.8335,236.9922065734862L286.0612833333334,236.9922065734862L295.28906666666666,236.9922065734862L304.51685000000003,236.9922065734862L313.74463333333335,236.9922065734862L322.97241666666673,236.9922065734862L332.2002,236.9922065734862L341.4279833333334,236.9922065734862L350.6557666666667,236.9922065734862L359.88355,236.9922065734862L369.11133333333333,236.9922065734862L378.3391166666667,236.9922065734862L387.5669,236.9922065734862L396.79468333333335,236.9922065734862L406.0224666666667,236.9922065734862L415.25025000000005,236.9922065734862L424.47803333333337,236.9922065734862L433.7058166666667,236.9922065734862L442.93360000000007,236.9922065734862L452.16138333333333,236.9922065734862L461.3891666666667,236.9922065734862L470.61695000000003,236.9922065734862L479.84473333333335,236.9922065734862L489.0725166666667,236.9922065734862L498.30030000000005,236.9922065734862" style="fill: none;" fill="none"></path></g><g><path stroke="rgb(51, 187, 238)" stroke-width="2px" d="M46.13891666666667,406.50384664535517L55.36670000000001,338.4833478927612L64.59448333333334,286.65806293487543L73.82226666666666,292.0566344261169L83.05005,260.7454204559325L92.27783333333333,248.8688135147094L101.50561666666667,251.02824211120597L110.73340000000002,248.8688135147094L119.96118333333334,239.15163516998282L129.1889666666667,234.8330283164977L138.41675,238.07192087173453L147.64453333333333,234.8330283164977L156.87231666666668,229.43445682525623L166.1001,238.07192087173453L175.32788333333335,236.9922065734862L184.55566666666667,235.91249227523795L193.78345,235.91249227523795L203.01123333333334,233.75331401824943L212.23901666666669,234.8330283164977L221.46680000000003,233.75331401824943L230.69458333333336,233.75331401824943L239.92236666666668,235.91249227523795L249.15015000000002,235.91249227523795L258.3779333333334,236.9922065734862L267.6057166666667,236.9922065734862L276.8335,235.91249227523795L286.0612833333334,235.91249227523795L295.28906666666666,235.91249227523795L304.51685000000003,236.9922065734862L313.74463333333335,235.91249227523795L322.97241666666673,235.91249227523795L332.2002,235.91249227523795L341.4279833333334,235.91249227523795L350.6557666666667,235.91249227523795L359.88355,235.91249227523795L369.11133333333333,235.91249227523795L378.3391166666667,235.91249227523795L387.5669,235.91249227523795L396.79468333333335,235.91249227523795L406.0224666666667,235.91249227523795L415.25025000000005,235.91249227523795L424.47803333333337,235.91249227523795L433.7058166666667,235.91249227523795L442.93360000000007,235.91249227523795L452.16138333333333,235.91249227523795L461.3891666666667,235.91249227523795L470.61695000000003,235.91249227523795L479.84473333333335,235.91249227523795L489.0725166666667,235.91249227523795L498.30030000000005,235.91249227523795" style="fill: none;" fill="none"></path></g><g><path stroke="rgb(0, 119, 187)" stroke-width="2px" d="M46.13891666666667,410.8227038383484L55.36670000000001,328.7661695480346L64.59448333333334,282.33945608139027L73.82226666666666,274.78145599365223L83.05005,255.3470993041991L92.27783333333333,254.26738500595084L101.50561666666667,240.2313494682311L110.73340000000002,241.31106376647938L119.96118333333334,245.62992095947257L129.1889666666667,239.15163516998282L138.41675,230.51417112350455L147.64453333333333,229.43445682525623L156.87231666666668,230.51417112350455L166.1001,225.11559963226307L175.32788333333335,229.43445682525623L184.55566666666667,222.95642137527454L193.78345,219.71727848052967L203.01123333333334,226.19531393051136L212.23901666666669,224.03588533401475L221.46680000000003,225.11559963226307L230.69458333333336,225.11559963226307L239.92236666666668,224.03588533401475L249.15015000000002,225.11559963226307L258.3779333333334,226.19531393051136L267.6057166666667,226.19531393051136L276.8335,225.11559963226307L286.0612833333334,227.27502822875965L295.28906666666666,227.27502822875965L304.51685000000003,227.27502822875965L313.74463333333335,227.27502822875965L322.97241666666673,227.27502822875965L332.2002,227.27502822875965L341.4279833333334,227.27502822875965L350.6557666666667,227.27502822875965L359.88355,227.27502822875965L369.11133333333333,227.27502822875965L378.3391166666667,227.27502822875965L387.5669,227.27502822875965L396.79468333333335,227.27502822875965L406.0224666666667,227.27502822875965L415.25025000000005,227.27502822875965L424.47803333333337,227.27502822875965L433.7058166666667,227.27502822875965L442.93360000000007,227.27502822875965L452.16138333333333,227.27502822875965L461.3891666666667,227.27502822875965L470.61695000000003,227.27502822875965L479.84473333333335,227.27502822875965L489.0725166666667,227.27502822875965L498.30030000000005,227.27502822875965" style="fill: none;" fill="none"></path></g><g><path stroke="rgb(204, 51, 17)" stroke-width="2px" d="M46.13891666666667,418.38045358657837L55.36670000000001,322.28788375854487L64.59448333333334,292.0566344261169L73.82226666666666,274.78145599365223L83.05005,261.82513475418085L92.27783333333333,259.6657061576842L101.50561666666667,241.31106376647938L110.73340000000002,241.31106376647938L119.96118333333334,233.75331401824943L129.1889666666667,222.95642137527454L138.41675,229.43445682525623L147.64453333333333,232.67359972000114L156.87231666666668,232.67359972000114L166.1001,231.5938854217528L175.32788333333335,226.19531393051136L184.55566666666667,226.19531393051136L193.78345,225.11559963226307L203.01123333333334,224.03588533401475L212.23901666666669,225.11559963226307L221.46680000000003,225.11559963226307L230.69458333333336,225.11559963226307L239.92236666666668,225.11559963226307L249.15015000000002,225.11559963226307L258.3779333333334,225.11559963226307L267.6057166666667,225.11559963226307L276.8335,225.11559963226307L286.0612833333334,225.11559963226307L295.28906666666666,225.11559963226307L304.51685000000003,225.11559963226307L313.74463333333335,225.11559963226307L322.97241666666673,225.11559963226307L332.2002,225.11559963226307L341.4279833333334,225.11559963226307L350.6557666666667,225.11559963226307L359.88355,225.11559963226307L369.11133333333333,225.11559963226307L378.3391166666667,225.11559963226307L387.5669,225.11559963226307L396.79468333333335,225.11559963226307L406.0224666666667,225.11559963226307L415.25025000000005,225.11559963226307L424.47803333333337,225.11559963226307L433.7058166666667,225.11559963226307L442.93360000000007,225.11559963226307L452.16138333333333,225.11559963226307L461.3891666666667,225.11559963226307L470.61695000000003,225.11559963226307L479.84473333333335,225.11559963226307L489.0725166666667,225.11559963226307L498.30030000000005,225.11559963226307" style="fill: none;" fill="none"></path></g><g><path stroke="rgb(255, 112, 67)" stroke-width="2px" d="M46.13891666666667,425.93820333480835L55.36670000000001,328.7661695480346L64.59448333333334,274.78145599365223L73.82226666666666,268.30342054367054L83.05005,267.22370624542225L92.27783333333333,244.55020666122425L101.50561666666667,242.39077806472767L110.73340000000002,239.15163516998282L119.96118333333334,243.470492362976L129.1889666666667,238.07192087173453L138.41675,236.9922065734862L147.64453333333333,231.5938854217528L156.87231666666668,234.8330283164977L166.1001,233.75331401824943L175.32788333333335,234.8330283164977L184.55566666666667,233.75331401824943L193.78345,235.91249227523795L203.01123333333334,232.67359972000114L212.23901666666669,228.35474252700794L221.46680000000003,228.35474252700794L230.69458333333336,228.35474252700794L239.92236666666668,229.43445682525623L249.15015000000002,230.51417112350455L258.3779333333334,229.43445682525623L267.6057166666667,229.43445682525623L276.8335,229.43445682525623L286.0612833333334,231.5938854217528L295.28906666666666,230.51417112350455L304.51685000000003,230.51417112350455L313.74463333333335,229.43445682525623L322.97241666666673,229.43445682525623L332.2002,229.43445682525623L341.4279833333334,229.43445682525623L350.6557666666667,229.43445682525623L359.88355,229.43445682525623L369.11133333333333,229.43445682525623L378.3391166666667,229.43445682525623L387.5669,229.43445682525623L396.79468333333335,229.43445682525623L406.0224666666667,229.43445682525623L415.25025000000005,229.43445682525623L424.47803333333337,229.43445682525623L433.7058166666667,229.43445682525623L442.93360000000007,229.43445682525623L452.16138333333333,229.43445682525623L461.3891666666667,229.43445682525623L470.61695000000003,229.43445682525623L479.84473333333335,229.43445682525623L489.0725166666667,229.43445682525623L498.30030000000005,229.43445682525623" style="fill: none;" fill="none"></path></g></g></g></g></g><g><g opacity="0.27413"><span fill="rgb(0, 0, 0)" stroke="none" stroke-width="1px">Alt + Scroll to Zoom</span></g></g></g><g transform="translate(50, 378)" clip-path="url(#clip_1)"><clipPath id="clip_1"><rect width="553" height="22"></rect></clipPath><g><g><line x1="0" y1="0" x2="0" y2="5" style="visibility: inherit;" fill="rgb(0, 0, 0)" stroke="rgb(204, 204, 204)" stroke-width="1px"></line><line x1="46.13891666666667" y1="0" x2="46.13891666666667" y2="5" style="visibility: inherit;" fill="rgb(0, 0, 0)" stroke="rgb(204, 204, 204)" stroke-width="1px"></line><line x1="92.27783333333333" y1="0" x2="92.27783333333333" y2="5" style="visibility: inherit;" fill="rgb(0, 0, 0)" stroke="rgb(204, 204, 204)" stroke-width="1px"></line><line x1="138.41675" y1="0" x2="138.41675" y2="5" style="visibility: inherit;" fill="rgb(0, 0, 0)" stroke="rgb(204, 204, 204)" stroke-width="1px"></line><line x1="184.55566666666667" y1="0" x2="184.55566666666667" y2="5" style="visibility: inherit;" fill="rgb(0, 0, 0)" stroke="rgb(204, 204, 204)" stroke-width="1px"></line><line x1="230.69458333333336" y1="0" x2="230.69458333333336" y2="5" style="visibility: inherit;" fill="rgb(0, 0, 0)" stroke="rgb(204, 204, 204)" stroke-width="1px"></line><line x1="276.8335" y1="0" x2="276.8335" y2="5" style="visibility: inherit;" fill="rgb(0, 0, 0)" stroke="rgb(204, 204, 204)" stroke-width="1px"></line><line x1="322.97241666666673" y1="0" x2="322.97241666666673" y2="5" style="visibility: inherit;" fill="rgb(0, 0, 0)" stroke="rgb(204, 204, 204)" stroke-width="1px"></line><line x1="369.11133333333333" y1="0" x2="369.11133333333333" y2="5" style="visibility: inherit;" fill="rgb(0, 0, 0)" stroke="rgb(204, 204, 204)" stroke-width="1px"></line><line x1="415.25025000000005" y1="0" x2="415.25025000000005" y2="5" style="visibility: inherit;" fill="rgb(0, 0, 0)" stroke="rgb(204, 204, 204)" stroke-width="1px"></line><line x1="461.3891666666667" y1="0" x2="461.3891666666667" y2="5" style="visibility: inherit;" fill="rgb(0, 0, 0)" stroke="rgb(204, 204, 204)" stroke-width="1px"></line><line x1="507.5280833333333" y1="0" x2="507.5280833333333" y2="5" style="visibility: inherit;" fill="rgb(0, 0, 0)" stroke="rgb(204, 204, 204)" stroke-width="1px"></line><line x1="553.667" y1="0" x2="553.667" y2="5" style="visibility: inherit;" fill="rgb(0, 0, 0)" stroke="rgb(204, 204, 204)" stroke-width="1px"></line></g><g transform="translate(0, 8)"><text x="0" y="0" dx="0em" dy="0.95em" style="text-anchor: middle; visibility: hidden; font-family: Roboto, sans-serif; font-size: 12px; font-weight: 200;" fill="rgb(50, 49, 63)" stroke="none" stroke-width="1px">-5</text><text x="46.13891666666667" y="0" dx="0em" dy="0.95em" style="text-anchor: middle; visibility: inherit; font-family: Roboto, sans-serif; font-size: 12px; font-weight: 200;" fill="rgb(50, 49, 63)" stroke="none" stroke-width="1px">0</text><text x="92.27783333333333" y="0" dx="0em" dy="0.95em" style="text-anchor: middle; visibility: inherit; font-family: Roboto, sans-serif; font-size: 12px; font-weight: 200;" fill="rgb(50, 49, 63)" stroke="none" stroke-width="1px">5</text><text x="138.41675" y="0" dx="0em" dy="0.95em" style="text-anchor: middle; visibility: inherit; font-family: Roboto, sans-serif; font-size: 12px; font-weight: 200;" fill="rgb(50, 49, 63)" stroke="none" stroke-width="1px">10</text><text x="184.55566666666667" y="0" dx="0em" dy="0.95em" style="text-anchor: middle; visibility: inherit; font-family: Roboto, sans-serif; font-size: 12px; font-weight: 200;" fill="rgb(50, 49, 63)" stroke="none" stroke-width="1px">15</text><text x="230.69458333333336" y="0" dx="0em" dy="0.95em" style="text-anchor: middle; visibility: inherit; font-family: Roboto, sans-serif; font-size: 12px; font-weight: 200;" fill="rgb(50, 49, 63)" stroke="none" stroke-width="1px">20</text><text x="276.8335" y="0" dx="0em" dy="0.95em" style="text-anchor: middle; visibility: inherit; font-family: Roboto, sans-serif; font-size: 12px; font-weight: 200;" fill="rgb(50, 49, 63)" stroke="none" stroke-width="1px">25</text><text x="322.97241666666673" y="0" dx="0em" dy="0.95em" style="text-anchor: middle; visibility: inherit; font-family: Roboto, sans-serif; font-size: 12px; font-weight: 200;" fill="rgb(50, 49, 63)" stroke="none" stroke-width="1px">30</text><text x="369.11133333333333" y="0" dx="0em" dy="0.95em" style="text-anchor: middle; visibility: inherit; font-family: Roboto, sans-serif; font-size: 12px; font-weight: 200;" fill="rgb(50, 49, 63)" stroke="none" stroke-width="1px">35</text><text x="415.25025000000005" y="0" dx="0em" dy="0.95em" style="text-anchor: middle; visibility: inherit; font-family: Roboto, sans-serif; font-size: 12px; font-weight: 200;" fill="rgb(50, 49, 63)" stroke="none" stroke-width="1px">40</text><text x="461.3891666666667" y="0" dx="0em" dy="0.95em" style="text-anchor: middle; visibility: inherit; font-family: Roboto, sans-serif; font-size: 12px; font-weight: 200;" fill="rgb(50, 49, 63)" stroke="none" stroke-width="1px">45</text><text x="507.5280833333333" y="0" dx="0em" dy="0.95em" style="text-anchor: middle; visibility: inherit; font-family: Roboto, sans-serif; font-size: 12px; font-weight: 200;" fill="rgb(50, 49, 63)" stroke="none" stroke-width="1px">50</text><text x="553.667" y="0" dx="0em" dy="0.95em" style="text-anchor: middle; visibility: hidden; font-family: Roboto, sans-serif; font-size: 12px; font-weight: 200;" fill="rgb(50, 49, 63)" stroke="none" stroke-width="1px">55</text></g><line x1="0" y1="0" x2="553.667" y2="0" fill="rgb(0, 0, 0)" stroke="rgb(204, 204, 204)" stroke-width="1px"></line></g></g></g></g></svg>