<svg viewBox="0 0 545 400" xmlns="http://www.w3.org/2000/svg"><g><g><g><g><g><line x1="60" y1="378" x2="55" y2="378" style="visibility: inherit;" fill="rgb(0, 0, 0)" stroke="rgb(204, 204, 204)" stroke-width="1px"></line><line x1="60" y1="330.75" x2="55" y2="330.75" style="visibility: inherit;" fill="rgb(0, 0, 0)" stroke="rgb(204, 204, 204)" stroke-width="1px"></line><line x1="60" y1="283.5" x2="55" y2="283.5" style="visibility: inherit;" fill="rgb(0, 0, 0)" stroke="rgb(204, 204, 204)" stroke-width="1px"></line><line x1="60" y1="236.24999999999997" x2="55" y2="236.24999999999997" style="visibility: inherit;" fill="rgb(0, 0, 0)" stroke="rgb(204, 204, 204)" stroke-width="1px"></line><line x1="60" y1="188.99999999999997" x2="55" y2="188.99999999999997" style="visibility: inherit;" fill="rgb(0, 0, 0)" stroke="rgb(204, 204, 204)" stroke-width="1px"></line><line x1="60" y1="141.75" x2="55" y2="141.75" style="visibility: inherit;" fill="rgb(0, 0, 0)" stroke="rgb(204, 204, 204)" stroke-width="1px"></line><line x1="60" y1="94.5" x2="55" y2="94.5" style="visibility: inherit;" fill="rgb(0, 0, 0)" stroke="rgb(204, 204, 204)" stroke-width="1px"></line><line x1="60" y1="47.25" x2="55" y2="47.25" style="visibility: inherit;" fill="rgb(0, 0, 0)" stroke="rgb(204, 204, 204)" stroke-width="1px"></line><line x1="60" y1="0" x2="55" y2="0" style="visibility: inherit;" fill="rgb(0, 0, 0)" stroke="rgb(204, 204, 204)" stroke-width="1px"></line></g><g transform="translate(50, 0)"><text x="0" y="378" dx="0em" dy="0.3em" style="text-anchor: end; visibility: hidden; font-family: Roboto, sans-serif; font-size: 12px; font-weight: 200;" fill="rgb(50, 49, 63)" stroke="none" stroke-width="1px">-0.05</text><text x="0" y="330.75" dx="0em" dy="0.3em" style="text-anchor: end; visibility: inherit; font-family: Roboto, sans-serif; font-size: 12px; font-weight: 200;" fill="rgb(50, 49, 63)" stroke="none" stroke-width="1px">0</text><text x="0" y="283.5" dx="0em" dy="0.3em" style="text-anchor: end; visibility: inherit; font-family: Roboto, sans-serif; font-size: 12px; font-weight: 200;" fill="rgb(50, 49, 63)" stroke="none" stroke-width="1px">0.05</text><text x="0" y="236.24999999999997" dx="0em" dy="0.3em" style="text-anchor: end; visibility: inherit; font-family: Roboto, sans-serif; font-size: 12px; font-weight: 200;" fill="rgb(50, 49, 63)" stroke="none" stroke-width="1px">0.1</text><text x="0" y="188.99999999999997" dx="0em" dy="0.3em" style="text-anchor: end; visibility: inherit; font-family: Roboto, sans-serif; font-size: 12px; font-weight: 200;" fill="rgb(50, 49, 63)" stroke="none" stroke-width="1px">0.15</text><text x="0" y="141.75" dx="0em" dy="0.3em" style="text-anchor: end; visibility: inherit; font-family: Roboto, sans-serif; font-size: 12px; font-weight: 200;" fill="rgb(50, 49, 63)" stroke="none" stroke-width="1px">0.2</text><text x="0" y="94.5" dx="0em" dy="0.3em" style="text-anchor: end; visibility: inherit; font-family: Roboto, sans-serif; font-size: 12px; font-weight: 200;" fill="rgb(50, 49, 63)" stroke="none" stroke-width="1px">0.25</text><text x="0" y="47.25" dx="0em" dy="0.3em" style="text-anchor: end; visibility: inherit; font-family: Roboto, sans-serif; font-size: 12px; font-weight: 200;" fill="rgb(50, 49, 63)" stroke="none" stroke-width="1px">0.3</text><text x="0" y="0" dx="0em" dy="0.3em" style="text-anchor: end; visibility: hidden; font-family: Roboto, sans-serif; font-size: 12px; font-weight: 200;" fill="rgb(50, 49, 63)" stroke="none" stroke-width="1px">0.35</text></g><line x1="60" y1="0" x2="60" y2="378" fill="rgb(0, 0, 0)" stroke="rgb(204, 204, 204)" stroke-width="1px"></line></g></g><g transform="translate(60, 0)" clip-path="url(#clip_0)"><clipPath id="clip_0"><rect width="485" height="378"></rect></clipPath><g><g><g><line x1="0" y1="0" x2="0" y2="378" fill="rgb(0, 0, 0)" stroke="rgb(60, 60, 60)" stroke-width="1px" opacity="0.25"></line><line x1="40.416666666666664" y1="0" x2="40.416666666666664" y2="378" fill="rgb(0, 0, 0)" stroke="rgb(60, 60, 60)" stroke-width="1px" opacity="0.25"></line><line x1="80.83333333333333" y1="0" x2="80.83333333333333" y2="378" fill="rgb(0, 0, 0)" stroke="rgb(60, 60, 60)" stroke-width="1px" opacity="0.25"></line><line x1="121.25" y1="0" x2="121.25" y2="378" fill="rgb(0, 0, 0)" stroke="rgb(60, 60, 60)" stroke-width="1px" opacity="0.25"></line><line x1="161.66666666666666" y1="0" x2="161.66666666666666" y2="378" fill="rgb(0, 0, 0)" stroke="rgb(60, 60, 60)" stroke-width="1px" opacity="0.25"></line><line x1="202.08333333333334" y1="0" x2="202.08333333333334" y2="378" fill="rgb(0, 0, 0)" stroke="rgb(60, 60, 60)" stroke-width="1px" opacity="0.25"></line><line x1="242.5" y1="0" x2="242.5" y2="378" fill="rgb(0, 0, 0)" stroke="rgb(60, 60, 60)" stroke-width="1px" opacity="0.25"></line><line x1="282.9166666666667" y1="0" x2="282.9166666666667" y2="378" fill="rgb(0, 0, 0)" stroke="rgb(60, 60, 60)" stroke-width="1px" opacity="0.25"></line><line x1="323.3333333333333" y1="0" x2="323.3333333333333" y2="378" fill="rgb(0, 0, 0)" stroke="rgb(60, 60, 60)" stroke-width="1px" opacity="0.25"></line><line x1="363.75" y1="0" x2="363.75" y2="378" fill="rgb(0, 0, 0)" stroke="rgb(60, 60, 60)" stroke-width="1px" opacity="0.25"></line><line x1="404.1666666666667" y1="0" x2="404.1666666666667" y2="378" fill="rgb(0, 0, 0)" stroke="rgb(60, 60, 60)" stroke-width="1px" opacity="0.25"></line><line x1="444.5833333333333" y1="0" x2="444.5833333333333" y2="378" fill="rgb(0, 0, 0)" stroke="rgb(60, 60, 60)" stroke-width="1px" opacity="0.25"></line><line x1="485" y1="0" x2="485" y2="378" fill="rgb(0, 0, 0)" stroke="rgb(60, 60, 60)" stroke-width="1px" opacity="0.25"></line></g><g><line x1="0" y1="378" x2="485" y2="378" fill="rgb(0, 0, 0)" stroke="rgb(60, 60, 60)" stroke-width="1px" opacity="0.25"></line><line x1="0" y1="330.75" x2="485" y2="330.75" fill="rgb(0, 0, 0)" stroke="rgb(60, 60, 60)" stroke-width="1px" opacity="0.25"></line><line x1="0" y1="283.5" x2="485" y2="283.5" fill="rgb(0, 0, 0)" stroke="rgb(60, 60, 60)" stroke-width="1px" opacity="0.25"></line><line x1="0" y1="236.24999999999997" x2="485" y2="236.24999999999997" fill="rgb(0, 0, 0)" stroke="rgb(60, 60, 60)" stroke-width="1px" opacity="0.25"></line><line x1="0" y1="188.99999999999997" x2="485" y2="188.99999999999997" fill="rgb(0, 0, 0)" stroke="rgb(60, 60, 60)" stroke-width="1px" opacity="0.25"></line><line x1="0" y1="141.75" x2="485" y2="141.75" fill="rgb(0, 0, 0)" stroke="rgb(60, 60, 60)" stroke-width="1px" opacity="0.25"></line><line x1="0" y1="94.5" x2="485" y2="94.5" fill="rgb(0, 0, 0)" stroke="rgb(60, 60, 60)" stroke-width="1px" opacity="0.25"></line><line x1="0" y1="47.25" x2="485" y2="47.25" fill="rgb(0, 0, 0)" stroke="rgb(60, 60, 60)" stroke-width="1px" opacity="0.25"></line><line x1="0" y1="0" x2="485" y2="0" fill="rgb(0, 0, 0)" stroke="rgb(60, 60, 60)" stroke-width="1px" opacity="0.25"></line></g></g></g><g><g><line x1="0" y1="330.75" x2="485" y2="330.75" fill="rgb(0, 0, 0)" stroke="rgb(153, 153, 153)" stroke-width="1.5px"></line></g></g><g><g><line x1="40.416666666666664" y1="0" x2="40.416666666666664" y2="378" fill="rgb(0, 0, 0)" stroke="rgb(153, 153, 153)" stroke-width="1.5px"></line></g></g><g><g><g><g><g><path stroke="rgb(0, 119, 187)" stroke-width="2px" d="M40.416666666666664,3.9011713564395905L48.5,52.154130309820175L56.583333333333336,77.33318102359772L64.66666666666667,84.72585064172745L72.75,88.22557818889618L80.83333333333333,88.40556916594505L88.91666666666666,88.08143895864487L97,91.19766828417778L105.08333333333334,90.71652826666832L113.16666666666667,92.30864998698235L121.25,95.5340116918087L129.33333333333334,96.22671362757683L137.41666666666666,95.72814059257507L145.5,96.56354543566704L153.58333333333331,96.65141460299492L161.66666666666666,96.57024827599525L169.75,95.99874664843082L177.83333333333331,96.37863998115063L185.91666666666669,96.34739291667938L194,96.33538131415844L202.08333333333334,96.35802452266216L210.16666666666669,96.46131303906441L218.25,96.62544813752174L226.33333333333334,96.64465543627739L234.41666666666666,96.6315736323595L242.5,96.6663410961628L250.58333333333337,96.68345023691654L258.6666666666667,96.69694040715694L266.75,96.70048896968365L274.8333333333333,96.70054529607296L282.9166666666667,96.70660038292408L291,96.70437549054623L299.08333333333337,96.70393896102905L307.16666666666663,96.70612160861492L315.25,96.7060089558363L323.3333333333333,96.70657221972942L331.4166666666667,96.70699466764927L339.5,96.70716364681721L347.5833333333333,96.70738895237446L355.66666666666663,96.70757201313972L363.75,96.70721997320652L371.83333333333337,96.70744527876377L379.9166666666667,96.70747344195843L388,96.70761425793171L396.0833333333333,96.70754384994507L404.1666666666667,96.70757201313972L412.25,96.70761425793171L420.33333333333337,96.70762833952904L428.41666666666663,96.70762833952904L436.5,96.70764242112637" style="fill: none;" fill="none"></path></g><g><path stroke="rgb(255, 112, 67)" stroke-width="2px" d="M40.416666666666664,1.7274796664714813L48.5,49.20262750983238L56.583333333333336,71.94237944483757L64.66666666666667,80.0147959291935L72.75,85.81137281656265L80.83333333333333,83.57839760184288L88.91666666666666,92.75120642781258L97,91.43595707416534L105.08333333333334,95.18323910236359L113.16666666666667,95.46495553851128L121.25,96.64848563075066L129.33333333333334,96.2501313239336L137.41666666666666,97.14477744698524L145.5,97.96103131771088L153.58333333333331,97.4697947949171L161.66666666666666,97.64950414001942L169.75,97.80197967588902L177.83333333333331,97.71701131761074L185.91666666666669,97.92770017683506L194,97.78495502471924L202.08333333333334,97.70977337658405L210.16666666666669,97.66216349601746L218.25,97.5464268475771L226.33333333333334,97.60602016746998L234.41666666666666,97.56974597275257L242.5,97.56122660636902L250.58333333333337,97.55739641189575L258.6666666666667,97.57546310126781L266.75,97.58978408575058L274.8333333333333,97.6019365042448L282.9166666666667,97.60554139316082L291,97.59899345040321L299.08333333333337,97.59661366045475L307.16666666666663,97.59499427676201L315.25,97.59481121599674L323.3333333333333,97.59312142431736L331.4166666666667,97.59489570558071L339.5,97.59475488960743L347.5833333333333,97.59375509619713L355.66666666666663,97.59392407536507L363.75,97.59372693300247L371.83333333333337,97.59386774897575L379.9166666666667,97.59392407536507L388,97.59402264654636L396.0833333333333,97.59392407536507L404.1666666666667,97.59390999376774L412.25,97.59390999376774L420.33333333333337,97.59390999376774L428.41666666666663,97.5939381569624L436.5,97.59390999376774" style="fill: none;" fill="none"></path></g><g><path stroke="rgb(51, 187, 238)" stroke-width="2px" d="M40.416666666666664,5.748874068260193L48.5,62.29910445213318L56.583333333333336,77.85149645805359L64.66666666666667,79.54821628332138L72.75,86.91905942559242L80.83333333333333,82.57280257344246L88.91666666666666,92.03470659255981L97,97.42854979634285L105.08333333333334,95.67951683700085L113.16666666666667,96.76650349795818L121.25,97.65579861402512L129.33333333333334,98.2172318994999L137.41666666666666,98.3243506103754L145.5,97.98549105226994L153.58333333333331,97.92613711953163L161.66666666666666,97.9179275482893L169.75,97.81914514303207L177.83333333333331,97.91129511594772L185.91666666666669,97.98550513386726L194,97.92924915254116L202.08333333333334,98.02373667061329L210.16666666666669,98.0250885039568L218.25,98.06027841567993L226.33333333333334,98.05001293122768L234.41666666666666,98.04708395898342L242.5,98.02249749004841L250.58333333333337,98.02110341191292L258.6666666666667,98.01580873131752L266.75,97.9928698092699L274.8333333333333,97.99015206098557L282.9166666666667,97.99436245858669L291,97.99765755236149L299.08333333333337,98.00076958537102L307.16666666666663,97.99793918430805L315.25,97.99851652979851L323.3333333333333,97.99829122424126L331.4166666666667,97.99948816001415L339.5,97.99893897771835L347.5833333333333,97.9993614256382L355.66666666666663,97.99941775202751L363.75,97.99972754716873L371.83333333333337,98.0001640766859L379.9166666666667,98.00013591349125L388,98.00014999508858L396.0833333333333,98.0001640766859L404.1666666666667,98.00022040307522L412.25,98.00017815828323L420.33333333333337,98.00020632147789L428.41666666666663,98.00019223988056L436.5,98.00017815828323" style="fill: none;" fill="none"></path></g><g><path stroke="rgb(204, 51, 17)" stroke-width="2px" d="M40.416666666666664,17.61383083462715L48.5,60.42053487896919L56.583333333333336,76.764284491539L64.66666666666667,86.08742845058441L72.75,87.15149027109146L80.83333333333333,88.43395766615868L88.91666666666666,92.38683101534843L97,94.31738984584808L105.08333333333334,93.10076799988747L113.16666666666667,95.23628447949886L121.25,97.02746365964413L129.33333333333334,97.8274532854557L137.41666666666666,97.45486830174923L145.5,97.28422750532627L153.58333333333331,97.57791329920292L161.66666666666666,97.66389553248882L169.75,97.42860612273216L177.83333333333331,97.15143804252148L185.91666666666669,96.97896663844585L194,97.06080888211727L202.08333333333334,97.23561783134937L210.16666666666669,97.25199472904205L218.25,97.37040688097477L226.33333333333334,97.37354707717896L234.41666666666666,97.34600347280502L242.5,97.32062843441963L250.58333333333337,97.31468600034714L258.6666666666667,97.34242674708366L266.75,97.33448472619057L274.8333333333333,97.32364189624786L282.9166666666667,97.32795086503029L291,97.32295189797878L299.08333333333337,97.3190653771162L307.16666666666663,97.31929068267345L315.25,97.32047353684902L323.3333333333333,97.31920619308949L331.4166666666667,97.31707987189293L339.5,97.31672783195972L347.5833333333333,97.31558722257614L355.66666666666663,97.31537599861622L363.75,97.31577028334141L371.83333333333337,97.31610824167728L379.9166666666667,97.31605191528797L388,97.31593926250935L396.0833333333333,97.31602375209332L404.1666666666667,97.315967425704L412.25,97.315967425704L420.33333333333337,97.31595334410667L428.41666666666663,97.315967425704L436.5,97.31595334410667" style="fill: none;" fill="none"></path></g><g><path stroke="rgb(0, 153, 136)" stroke-width="2px" d="M40.416666666666664,15.605485260486603L48.5,46.084257781505585L56.583333333333336,72.34102946519852L64.66666666666667,86.0588991343975L72.75,84.00667530298233L80.83333333333333,79.92078718543053L88.91666666666666,88.96494653820992L97,93.11738428473473L105.08333333333334,95.07593733072281L113.16666666666667,93.39276400208473L121.25,94.45060175657272L129.33333333333334,95.58336769044399L137.41666666666666,94.64150597155094L145.5,95.40068712830544L153.58333333333331,96.39410157501698L161.66666666666666,95.5054823756218L169.75,94.986054494977L177.83333333333331,95.47554489970207L185.91666666666669,95.32466058433056L194,95.38229656219482L202.08333333333334,95.40989649295807L210.16666666666669,95.56769487261772L218.25,95.65593016147614L226.33333333333334,95.6696033924818L234.41666666666666,95.68316397070885L242.5,95.67267318069935L250.58333333333337,95.70670840144157L258.6666666666667,95.72473284602165L266.75,95.71845245361328L274.8333333333333,95.73682893812656L282.9166666666667,95.73987056314945L291,95.74132096767426L299.08333333333337,95.74465830624104L307.16666666666663,95.74775625765324L315.25,95.75036135315895L323.3333333333333,95.7521356344223L331.4166666666667,95.75252991914749L339.5,95.75217787921429L347.5833333333333,95.75260032713413L355.66666666666663,95.75250175595284L363.75,95.7524876743555L371.83333333333337,95.75251583755016L379.9166666666667,95.75250175595284L388,95.75260032713413L396.0833333333333,95.75269889831543L404.1666666666667,95.75269889831543L412.25,95.75269889831543L420.33333333333337,95.75265665352345L428.41666666666663,95.75269889831543L436.5,95.75274114310741" style="fill: none;" fill="none"></path></g></g></g></g></g><g><g opacity="0.19868"><span fill="rgb(0, 0, 0)" stroke="none" stroke-width="1px">Alt + Scroll to Zoom</span></g></g></g><g transform="translate(60, 378)" clip-path="url(#clip_1)"><clipPath id="clip_1"><rect width="485" height="22"></rect></clipPath><g><g><line x1="0" y1="0" x2="0" y2="5" style="visibility: inherit;" fill="rgb(0, 0, 0)" stroke="rgb(204, 204, 204)" stroke-width="1px"></line><line x1="40.416666666666664" y1="0" x2="40.416666666666664" y2="5" style="visibility: inherit;" fill="rgb(0, 0, 0)" stroke="rgb(204, 204, 204)" stroke-width="1px"></line><line x1="80.83333333333333" y1="0" x2="80.83333333333333" y2="5" style="visibility: inherit;" fill="rgb(0, 0, 0)" stroke="rgb(204, 204, 204)" stroke-width="1px"></line><line x1="121.25" y1="0" x2="121.25" y2="5" style="visibility: inherit;" fill="rgb(0, 0, 0)" stroke="rgb(204, 204, 204)" stroke-width="1px"></line><line x1="161.66666666666666" y1="0" x2="161.66666666666666" y2="5" style="visibility: inherit;" fill="rgb(0, 0, 0)" stroke="rgb(204, 204, 204)" stroke-width="1px"></line><line x1="202.08333333333334" y1="0" x2="202.08333333333334" y2="5" style="visibility: inherit;" fill="rgb(0, 0, 0)" stroke="rgb(204, 204, 204)" stroke-width="1px"></line><line x1="242.5" y1="0" x2="242.5" y2="5" style="visibility: inherit;" fill="rgb(0, 0, 0)" stroke="rgb(204, 204, 204)" stroke-width="1px"></line><line x1="282.9166666666667" y1="0" x2="282.9166666666667" y2="5" style="visibility: inherit;" fill="rgb(0, 0, 0)" stroke="rgb(204, 204, 204)" stroke-width="1px"></line><line x1="323.3333333333333" y1="0" x2="323.3333333333333" y2="5" style="visibility: inherit;" fill="rgb(0, 0, 0)" stroke="rgb(204, 204, 204)" stroke-width="1px"></line><line x1="363.75" y1="0" x2="363.75" y2="5" style="visibility: inherit;" fill="rgb(0, 0, 0)" stroke="rgb(204, 204, 204)" stroke-width="1px"></line><line x1="404.1666666666667" y1="0" x2="404.1666666666667" y2="5" style="visibility: inherit;" fill="rgb(0, 0, 0)" stroke="rgb(204, 204, 204)" stroke-width="1px"></line><line x1="444.5833333333333" y1="0" x2="444.5833333333333" y2="5" style="visibility: inherit;" fill="rgb(0, 0, 0)" stroke="rgb(204, 204, 204)" stroke-width="1px"></line><line x1="485" y1="0" x2="485" y2="5" style="visibility: inherit;" fill="rgb(0, 0, 0)" stroke="rgb(204, 204, 204)" stroke-width="1px"></line></g><g transform="translate(0, 8)"><text x="0" y="0" dx="0em" dy="0.95em" style="text-anchor: middle; visibility: hidden; font-family: Roboto, sans-serif; font-size: 12px; font-weight: 200;" fill="rgb(50, 49, 63)" stroke="none" stroke-width="1px">-5</text><text x="40.416666666666664" y="0" dx="0em" dy="0.95em" style="text-anchor: middle; visibility: inherit; font-family: Roboto, sans-serif; font-size: 12px; font-weight: 200;" fill="rgb(50, 49, 63)" stroke="none" stroke-width="1px">0</text><text x="80.83333333333333" y="0" dx="0em" dy="0.95em" style="text-anchor: middle; visibility: inherit; font-family: Roboto, sans-serif; font-size: 12px; font-weight: 200;" fill="rgb(50, 49, 63)" stroke="none" stroke-width="1px">5</text><text x="121.25" y="0" dx="0em" dy="0.95em" style="text-anchor: middle; visibility: inherit; font-family: Roboto, sans-serif; font-size: 12px; font-weight: 200;" fill="rgb(50, 49, 63)" stroke="none" stroke-width="1px">10</text><text x="161.66666666666666" y="0" dx="0em" dy="0.95em" style="text-anchor: middle; visibility: inherit; font-family: Roboto, sans-serif; font-size: 12px; font-weight: 200;" fill="rgb(50, 49, 63)" stroke="none" stroke-width="1px">15</text><text x="202.08333333333334" y="0" dx="0em" dy="0.95em" style="text-anchor: middle; visibility: inherit; font-family: Roboto, sans-serif; font-size: 12px; font-weight: 200;" fill="rgb(50, 49, 63)" stroke="none" stroke-width="1px">20</text><text x="242.5" y="0" dx="0em" dy="0.95em" style="text-anchor: middle; visibility: inherit; font-family: Roboto, sans-serif; font-size: 12px; font-weight: 200;" fill="rgb(50, 49, 63)" stroke="none" stroke-width="1px">25</text><text x="282.9166666666667" y="0" dx="0em" dy="0.95em" style="text-anchor: middle; visibility: inherit; font-family: Roboto, sans-serif; font-size: 12px; font-weight: 200;" fill="rgb(50, 49, 63)" stroke="none" stroke-width="1px">30</text><text x="323.3333333333333" y="0" dx="0em" dy="0.95em" style="text-anchor: middle; visibility: inherit; font-family: Roboto, sans-serif; font-size: 12px; font-weight: 200;" fill="rgb(50, 49, 63)" stroke="none" stroke-width="1px">35</text><text x="363.75" y="0" dx="0em" dy="0.95em" style="text-anchor: middle; visibility: inherit; font-family: Roboto, sans-serif; font-size: 12px; font-weight: 200;" fill="rgb(50, 49, 63)" stroke="none" stroke-width="1px">40</text><text x="404.1666666666667" y="0" dx="0em" dy="0.95em" style="text-anchor: middle; visibility: inherit; font-family: Roboto, sans-serif; font-size: 12px; font-weight: 200;" fill="rgb(50, 49, 63)" stroke="none" stroke-width="1px">45</text><text x="444.5833333333333" y="0" dx="0em" dy="0.95em" style="text-anchor: middle; visibility: inherit; font-family: Roboto, sans-serif; font-size: 12px; font-weight: 200;" fill="rgb(50, 49, 63)" stroke="none" stroke-width="1px">50</text><text x="485" y="0" dx="0em" dy="0.95em" style="text-anchor: middle; visibility: hidden; font-family: Roboto, sans-serif; font-size: 12px; font-weight: 200;" fill="rgb(50, 49, 63)" stroke="none" stroke-width="1px">55</text></g><line x1="0" y1="0" x2="485" y2="0" fill="rgb(0, 0, 0)" stroke="rgb(204, 204, 204)" stroke-width="1px"></line></g></g></g></g></svg>