<svg viewBox="0 0 579.6666870117188 400" xmlns="http://www.w3.org/2000/svg"><g><g><g><g><g><line x1="51.5625" y1="378" x2="46.5625" y2="378" style="visibility: inherit;" fill="rgb(0, 0, 0)" stroke="rgb(204, 204, 204)" stroke-width="1px"></line><line x1="51.5625" y1="330.74999999999994" x2="46.5625" y2="330.74999999999994" style="visibility: inherit;" fill="rgb(0, 0, 0)" stroke="rgb(204, 204, 204)" stroke-width="1px"></line><line x1="51.5625" y1="283.5" x2="46.5625" y2="283.5" style="visibility: inherit;" fill="rgb(0, 0, 0)" stroke="rgb(204, 204, 204)" stroke-width="1px"></line><line x1="51.5625" y1="236.25" x2="46.5625" y2="236.25" style="visibility: inherit;" fill="rgb(0, 0, 0)" stroke="rgb(204, 204, 204)" stroke-width="1px"></line><line x1="51.5625" y1="188.99999999999997" x2="46.5625" y2="188.99999999999997" style="visibility: inherit;" fill="rgb(0, 0, 0)" stroke="rgb(204, 204, 204)" stroke-width="1px"></line><line x1="51.5625" y1="141.75" x2="46.5625" y2="141.75" style="visibility: inherit;" fill="rgb(0, 0, 0)" stroke="rgb(204, 204, 204)" stroke-width="1px"></line><line x1="51.5625" y1="94.49999999999996" x2="46.5625" y2="94.49999999999996" style="visibility: inherit;" fill="rgb(0, 0, 0)" stroke="rgb(204, 204, 204)" stroke-width="1px"></line><line x1="51.5625" y1="47.25000000000004" x2="46.5625" y2="47.25000000000004" style="visibility: inherit;" fill="rgb(0, 0, 0)" stroke="rgb(204, 204, 204)" stroke-width="1px"></line><line x1="51.5625" y1="0" x2="46.5625" y2="0" style="visibility: inherit;" fill="rgb(0, 0, 0)" stroke="rgb(204, 204, 204)" stroke-width="1px"></line></g><g transform="translate(41.5625, 0)"><text x="0" y="378" dx="0em" dy="0.3em" style="text-anchor: end; visibility: hidden; font-family: Roboto, sans-serif; font-size: 12px; font-weight: 200;" fill="rgb(50, 49, 63)" stroke="none" stroke-width="1px">0.6</text><text x="0" y="330.74999999999994" dx="0em" dy="0.3em" style="text-anchor: end; visibility: inherit; font-family: Roboto, sans-serif; font-size: 12px; font-weight: 200;" fill="rgb(50, 49, 63)" stroke="none" stroke-width="1px">0.65</text><text x="0" y="283.5" dx="0em" dy="0.3em" style="text-anchor: end; visibility: inherit; font-family: Roboto, sans-serif; font-size: 12px; font-weight: 200;" fill="rgb(50, 49, 63)" stroke="none" stroke-width="1px">0.7</text><text x="0" y="236.25" dx="0em" dy="0.3em" style="text-anchor: end; visibility: inherit; font-family: Roboto, sans-serif; font-size: 12px; font-weight: 200;" fill="rgb(50, 49, 63)" stroke="none" stroke-width="1px">0.75</text><text x="0" y="188.99999999999997" dx="0em" dy="0.3em" style="text-anchor: end; visibility: inherit; font-family: Roboto, sans-serif; font-size: 12px; font-weight: 200;" fill="rgb(50, 49, 63)" stroke="none" stroke-width="1px">0.8</text><text x="0" y="141.75" dx="0em" dy="0.3em" style="text-anchor: end; visibility: inherit; font-family: Roboto, sans-serif; font-size: 12px; font-weight: 200;" fill="rgb(50, 49, 63)" stroke="none" stroke-width="1px">0.85</text><text x="0" y="94.49999999999996" dx="0em" dy="0.3em" style="text-anchor: end; visibility: inherit; font-family: Roboto, sans-serif; font-size: 12px; font-weight: 200;" fill="rgb(50, 49, 63)" stroke="none" stroke-width="1px">0.9</text><text x="0" y="47.25000000000004" dx="0em" dy="0.3em" style="text-anchor: end; visibility: inherit; font-family: Roboto, sans-serif; font-size: 12px; font-weight: 200;" fill="rgb(50, 49, 63)" stroke="none" stroke-width="1px">0.95</text><text x="0" y="0" dx="0em" dy="0.3em" style="text-anchor: end; visibility: hidden; font-family: Roboto, sans-serif; font-size: 12px; font-weight: 200;" fill="rgb(50, 49, 63)" stroke="none" stroke-width="1px">1</text></g><line x1="51.5625" y1="0" x2="51.5625" y2="378" fill="rgb(0, 0, 0)" stroke="rgb(204, 204, 204)" stroke-width="1px"></line></g></g><g transform="translate(51, 0)" clip-path="url(#clip_0)"><clipPath id="clip_0"><rect width="528" height="378"></rect></clipPath><g><g><g><line x1="0" y1="0" x2="0" y2="378" fill="rgb(0, 0, 0)" stroke="rgb(60, 60, 60)" stroke-width="1px" opacity="0.25"></line><line x1="44.00870833333333" y1="0" x2="44.00870833333333" y2="378" fill="rgb(0, 0, 0)" stroke="rgb(60, 60, 60)" stroke-width="1px" opacity="0.25"></line><line x1="88.01741666666666" y1="0" x2="88.01741666666666" y2="378" fill="rgb(0, 0, 0)" stroke="rgb(60, 60, 60)" stroke-width="1px" opacity="0.25"></line><line x1="132.026125" y1="0" x2="132.026125" y2="378" fill="rgb(0, 0, 0)" stroke="rgb(60, 60, 60)" stroke-width="1px" opacity="0.25"></line><line x1="176.03483333333332" y1="0" x2="176.03483333333332" y2="378" fill="rgb(0, 0, 0)" stroke="rgb(60, 60, 60)" stroke-width="1px" opacity="0.25"></line><line x1="220.0435416666667" y1="0" x2="220.0435416666667" y2="378" fill="rgb(0, 0, 0)" stroke="rgb(60, 60, 60)" stroke-width="1px" opacity="0.25"></line><line x1="264.05225" y1="0" x2="264.05225" y2="378" fill="rgb(0, 0, 0)" stroke="rgb(60, 60, 60)" stroke-width="1px" opacity="0.25"></line><line x1="308.06095833333336" y1="0" x2="308.06095833333336" y2="378" fill="rgb(0, 0, 0)" stroke="rgb(60, 60, 60)" stroke-width="1px" opacity="0.25"></line><line x1="352.06966666666665" y1="0" x2="352.06966666666665" y2="378" fill="rgb(0, 0, 0)" stroke="rgb(60, 60, 60)" stroke-width="1px" opacity="0.25"></line><line x1="396.07837500000005" y1="0" x2="396.07837500000005" y2="378" fill="rgb(0, 0, 0)" stroke="rgb(60, 60, 60)" stroke-width="1px" opacity="0.25"></line><line x1="440.0870833333334" y1="0" x2="440.0870833333334" y2="378" fill="rgb(0, 0, 0)" stroke="rgb(60, 60, 60)" stroke-width="1px" opacity="0.25"></line><line x1="484.0957916666667" y1="0" x2="484.0957916666667" y2="378" fill="rgb(0, 0, 0)" stroke="rgb(60, 60, 60)" stroke-width="1px" opacity="0.25"></line><line x1="528.1045" y1="0" x2="528.1045" y2="378" fill="rgb(0, 0, 0)" stroke="rgb(60, 60, 60)" stroke-width="1px" opacity="0.25"></line></g><g><line x1="0" y1="378" x2="528.1045" y2="378" fill="rgb(0, 0, 0)" stroke="rgb(60, 60, 60)" stroke-width="1px" opacity="0.25"></line><line x1="0" y1="330.74999999999994" x2="528.1045" y2="330.74999999999994" fill="rgb(0, 0, 0)" stroke="rgb(60, 60, 60)" stroke-width="1px" opacity="0.25"></line><line x1="0" y1="283.5" x2="528.1045" y2="283.5" fill="rgb(0, 0, 0)" stroke="rgb(60, 60, 60)" stroke-width="1px" opacity="0.25"></line><line x1="0" y1="236.25" x2="528.1045" y2="236.25" fill="rgb(0, 0, 0)" stroke="rgb(60, 60, 60)" stroke-width="1px" opacity="0.25"></line><line x1="0" y1="188.99999999999997" x2="528.1045" y2="188.99999999999997" fill="rgb(0, 0, 0)" stroke="rgb(60, 60, 60)" stroke-width="1px" opacity="0.25"></line><line x1="0" y1="141.75" x2="528.1045" y2="141.75" fill="rgb(0, 0, 0)" stroke="rgb(60, 60, 60)" stroke-width="1px" opacity="0.25"></line><line x1="0" y1="94.49999999999996" x2="528.1045" y2="94.49999999999996" fill="rgb(0, 0, 0)" stroke="rgb(60, 60, 60)" stroke-width="1px" opacity="0.25"></line><line x1="0" y1="47.25000000000004" x2="528.1045" y2="47.25000000000004" fill="rgb(0, 0, 0)" stroke="rgb(60, 60, 60)" stroke-width="1px" opacity="0.25"></line><line x1="0" y1="0" x2="528.1045" y2="0" fill="rgb(0, 0, 0)" stroke="rgb(60, 60, 60)" stroke-width="1px" opacity="0.25"></line></g></g></g><g><g><line x1="0" y1="945" x2="528.1045" y2="945" fill="rgb(0, 0, 0)" stroke="rgb(153, 153, 153)" stroke-width="1.5px"></line></g></g><g><g><line x1="44.00870833333333" y1="0" x2="44.00870833333333" y2="378" fill="rgb(0, 0, 0)" stroke="rgb(153, 153, 153)" stroke-width="1.5px"></line></g></g><g><g><g><g><g><path stroke="rgb(51, 187, 238)" stroke-width="2px" d="M44.00870833333333,381.8868926167488L52.81045,348.36249589920044L61.61219166666667,327.22748279571533L70.41393333333333,314.352171421051L79.215675,302.4486029148102L88.01741666666666,284.471697807312L96.81915833333333,277.9126024246216L105.6209,275.7262372970581L114.42264166666668,274.5115587115288L123.22438333333334,274.2686229944229L132.026125,274.75449442863464L140.82786666666667,273.29693645238876L149.62960833333335,270.8676356077194L158.43135,270.62469989061356L167.23309166666667,269.41002130508423L176.03483333333332,268.43827843666077L184.836575,269.16708558797836L193.63831666666667,269.16708558797836L202.44005833333335,268.43827843666077L211.2418,268.1953990459442L220.0435416666667,268.1953990459442L228.84528333333336,268.68121415376663L237.647025,267.95246332883835L246.44876666666667,269.41002130508423L255.25050833333336,268.9241498708725L264.05225,268.68121415376663L272.85399166666673,268.68121415376663L281.65573333333333,269.16708558797836L290.45747500000004,269.41002130508423L299.2592166666667,269.6529570221901L308.06095833333336,269.41002130508423L316.8627,269.41002130508423L325.6644416666667,269.41002130508423L334.46618333333333,269.41002130508423L343.26792500000005,269.41002130508423L352.06966666666665,269.41002130508423L360.87140833333336,269.41002130508423L369.67315,269.41002130508423L378.4748916666667,269.41002130508423L387.27663333333334,269.41002130508423L396.07837500000005,269.41002130508423L404.8801166666667,269.41002130508423L413.68185833333337,269.41002130508423L422.4836,269.41002130508423L431.2853416666667,269.41002130508423L440.0870833333334,269.41002130508423L448.888825,269.41002130508423L457.6905666666667,269.41002130508423L466.49230833333337,269.41002130508423L475.29405,269.41002130508423" style="fill: none;" fill="none"></path></g><g><path stroke="rgb(255, 112, 67)" stroke-width="2px" d="M44.00870833333333,404.4794073700905L52.81045,347.390753030777L61.61219166666667,333.30076307058334L70.41393333333333,321.8830096721649L79.215675,302.69153863191605L88.01741666666666,295.6465154886246L96.81915833333333,290.30204236507416L105.6209,283.01413983106613L114.42264166666668,284.471697807312L123.22438333333334,281.0707104206085L132.026125,276.9408595561981L140.82786666666667,274.9974301457405L149.62960833333335,274.9974301457405L158.43135,272.81106501817703L167.23309166666667,274.2686229944229L176.03483333333332,273.53987216949463L184.836575,274.2686229944229L193.63831666666667,272.08225786685944L202.44005833333335,273.53987216949463L211.2418,273.29693645238876L220.0435416666667,274.5115587115288L228.84528333333336,274.75449442863464L237.647025,274.75449442863464L246.44876666666667,274.02568727731705L255.25050833333336,274.02568727731705L264.05225,274.02568727731705L272.85399166666673,274.02568727731705L281.65573333333333,274.02568727731705L290.45747500000004,274.02568727731705L299.2592166666667,274.02568727731705L308.06095833333336,274.02568727731705L316.8627,274.02568727731705L325.6644416666667,274.02568727731705L334.46618333333333,274.02568727731705L343.26792500000005,274.02568727731705L352.06966666666665,274.02568727731705L360.87140833333336,274.02568727731705L369.67315,274.02568727731705L378.4748916666667,274.02568727731705L387.27663333333334,274.02568727731705L396.07837500000005,274.02568727731705L404.8801166666667,274.02568727731705L413.68185833333337,274.02568727731705L422.4836,274.02568727731705L431.2853416666667,274.02568727731705L440.0870833333334,274.02568727731705L448.888825,274.02568727731705L457.6905666666667,274.02568727731705L466.49230833333337,274.02568727731705L475.29405,274.02568727731705" style="fill: none;" fill="none"></path></g><g><path stroke="rgb(0, 153, 136)" stroke-width="2px" d="M44.00870833333333,131.18252724409103L52.81045,115.39204359054565L61.61219166666667,106.8894624710083L70.41393333333333,103.73135447502136L79.215675,101.30205363035202L88.01741666666666,98.14394563436508L96.81915833333333,94.50002253055573L105.6209,94.74295824766159L114.42264166666668,94.74295824766159L123.22438333333334,94.98583763837814L132.026125,94.74295824766159L140.82786666666667,94.25708681344986L149.62960833333335,93.52827966213226L158.43135,94.014151096344L167.23309166666667,94.25708681344986L176.03483333333332,93.52827966213226L184.836575,93.52827966213226L193.63831666666667,93.04240822792053L202.44005833333335,93.2853439450264L211.2418,93.2853439450264L220.0435416666667,92.79947251081467L228.84528333333336,93.04240822792053L237.647025,93.04240822792053L246.44876666666667,93.04240822792053L255.25050833333336,93.04240822792053L264.05225,93.2853439450264L272.85399166666673,93.04240822792053L281.65573333333333,93.04240822792053L290.45747500000004,93.04240822792053L299.2592166666667,93.04240822792053L308.06095833333336,93.04240822792053L316.8627,93.04240822792053L325.6644416666667,93.04240822792053L334.46618333333333,93.04240822792053L343.26792500000005,93.04240822792053L352.06966666666665,93.04240822792053L360.87140833333336,93.04240822792053L369.67315,93.04240822792053L378.4748916666667,93.04240822792053L387.27663333333334,93.04240822792053L396.07837500000005,93.04240822792053L404.8801166666667,93.04240822792053L413.68185833333337,93.04240822792053L422.4836,93.04240822792053L431.2853416666667,93.04240822792053L440.0870833333334,93.04240822792053L448.888825,93.04240822792053L457.6905666666667,93.04240822792053L466.49230833333337,93.04240822792053L475.29405,93.04240822792053" style="fill: none;" fill="none"></path></g><g><path stroke="rgb(0, 119, 187)" stroke-width="2px" d="M44.00870833333333,128.7532263994217L52.81045,115.87791502475739L61.61219166666667,105.91771960258484L70.41393333333333,101.54498934745789L79.215675,99.11568850278854L88.01741666666666,97.17225909233093L96.81915833333333,95.47170907258987L105.6209,92.79947251081467L114.42264166666668,93.2853439450264L123.22438333333334,95.47170907258987L132.026125,93.52827966213226L140.82786666666667,94.25708681344986L149.62960833333335,94.25708681344986L158.43135,94.014151096344L167.23309166666667,94.25708681344986L176.03483333333332,94.25708681344986L184.836575,94.25708681344986L193.63831666666667,94.014151096344L202.44005833333335,94.014151096344L211.2418,94.014151096344L220.0435416666667,94.014151096344L228.84528333333336,93.52827966213226L237.647025,93.52827966213226L246.44876666666667,93.52827966213226L255.25050833333336,93.52827966213226L264.05225,93.52827966213226L272.85399166666673,93.52827966213226L281.65573333333333,93.52827966213226L290.45747500000004,93.52827966213226L299.2592166666667,93.52827966213226L308.06095833333336,93.52827966213226L316.8627,93.52827966213226L325.6644416666667,93.52827966213226L334.46618333333333,93.52827966213226L343.26792500000005,93.52827966213226L352.06966666666665,93.52827966213226L360.87140833333336,93.52827966213226L369.67315,93.52827966213226L378.4748916666667,93.52827966213226L387.27663333333334,93.52827966213226L396.07837500000005,93.52827966213226L404.8801166666667,93.52827966213226L413.68185833333337,93.52827966213226L422.4836,93.52827966213226L431.2853416666667,93.52827966213226L440.0870833333334,93.52827966213226L448.888825,93.52827966213226L457.6905666666667,93.52827966213226L466.49230833333337,93.52827966213226L475.29405,93.52827966213226" style="fill: none;" fill="none"></path></g><g><path stroke="rgb(204, 51, 17)" stroke-width="2px" d="M44.00870833333333,170.78020423650742L52.81045,143.32903146743774L61.61219166666667,122.43701040744781L70.41393333333333,118.55015158653259L79.215675,118.06428015232086L88.01741666666666,116.84960156679153L96.81915833333333,113.44861418008804L105.6209,110.77637761831284L114.42264166666668,110.53344190120697L123.22438333333334,108.83289188146591L132.026125,109.56169903278351L140.82786666666667,109.07582759857178L149.62960833333335,107.13239818811417L158.43135,107.37533390522003L167.23309166666667,106.8894624710083L176.03483333333332,106.8894624710083L184.836575,107.13239818811417L193.63831666666667,106.8894624710083L202.44005833333335,106.8894624710083L211.2418,106.64652675390244L220.0435416666667,106.64652675390244L228.84528333333336,106.40359103679657L237.647025,106.64652675390244L246.44876666666667,106.8894624710083L255.25050833333336,106.8894624710083L264.05225,106.8894624710083L272.85399166666673,106.8894624710083L281.65573333333333,106.8894624710083L290.45747500000004,106.8894624710083L299.2592166666667,106.8894624710083L308.06095833333336,106.8894624710083L316.8627,106.8894624710083L325.6644416666667,106.8894624710083L334.46618333333333,106.8894624710083L343.26792500000005,106.8894624710083L352.06966666666665,106.8894624710083L360.87140833333336,106.8894624710083L369.67315,106.8894624710083L378.4748916666667,106.8894624710083L387.27663333333334,106.8894624710083L396.07837500000005,106.8894624710083L404.8801166666667,106.8894624710083L413.68185833333337,106.8894624710083L422.4836,106.8894624710083L431.2853416666667,106.8894624710083L440.0870833333334,106.8894624710083L448.888825,106.8894624710083L457.6905666666667,106.8894624710083L466.49230833333337,106.8894624710083L475.29405,106.8894624710083" style="fill: none;" fill="none"></path></g></g></g></g></g></g><g transform="translate(51, 378)" clip-path="url(#clip_1)"><clipPath id="clip_1"><rect width="528" height="22"></rect></clipPath><g><g><line x1="0" y1="0" x2="0" y2="5" style="visibility: inherit;" fill="rgb(0, 0, 0)" stroke="rgb(204, 204, 204)" stroke-width="1px"></line><line x1="44.00870833333333" y1="0" x2="44.00870833333333" y2="5" style="visibility: inherit;" fill="rgb(0, 0, 0)" stroke="rgb(204, 204, 204)" stroke-width="1px"></line><line x1="88.01741666666666" y1="0" x2="88.01741666666666" y2="5" style="visibility: inherit;" fill="rgb(0, 0, 0)" stroke="rgb(204, 204, 204)" stroke-width="1px"></line><line x1="132.026125" y1="0" x2="132.026125" y2="5" style="visibility: inherit;" fill="rgb(0, 0, 0)" stroke="rgb(204, 204, 204)" stroke-width="1px"></line><line x1="176.03483333333332" y1="0" x2="176.03483333333332" y2="5" style="visibility: inherit;" fill="rgb(0, 0, 0)" stroke="rgb(204, 204, 204)" stroke-width="1px"></line><line x1="220.0435416666667" y1="0" x2="220.0435416666667" y2="5" style="visibility: inherit;" fill="rgb(0, 0, 0)" stroke="rgb(204, 204, 204)" stroke-width="1px"></line><line x1="264.05225" y1="0" x2="264.05225" y2="5" style="visibility: inherit;" fill="rgb(0, 0, 0)" stroke="rgb(204, 204, 204)" stroke-width="1px"></line><line x1="308.06095833333336" y1="0" x2="308.06095833333336" y2="5" style="visibility: inherit;" fill="rgb(0, 0, 0)" stroke="rgb(204, 204, 204)" stroke-width="1px"></line><line x1="352.06966666666665" y1="0" x2="352.06966666666665" y2="5" style="visibility: inherit;" fill="rgb(0, 0, 0)" stroke="rgb(204, 204, 204)" stroke-width="1px"></line><line x1="396.07837500000005" y1="0" x2="396.07837500000005" y2="5" style="visibility: inherit;" fill="rgb(0, 0, 0)" stroke="rgb(204, 204, 204)" stroke-width="1px"></line><line x1="440.0870833333334" y1="0" x2="440.0870833333334" y2="5" style="visibility: inherit;" fill="rgb(0, 0, 0)" stroke="rgb(204, 204, 204)" stroke-width="1px"></line><line x1="484.0957916666667" y1="0" x2="484.0957916666667" y2="5" style="visibility: inherit;" fill="rgb(0, 0, 0)" stroke="rgb(204, 204, 204)" stroke-width="1px"></line><line x1="528.1045" y1="0" x2="528.1045" y2="5" style="visibility: inherit;" fill="rgb(0, 0, 0)" stroke="rgb(204, 204, 204)" stroke-width="1px"></line></g><g transform="translate(0, 8)"><text x="0" y="0" dx="0em" dy="0.95em" style="text-anchor: middle; visibility: hidden; font-family: Roboto, sans-serif; font-size: 12px; font-weight: 200;" fill="rgb(50, 49, 63)" stroke="none" stroke-width="1px">-5</text><text x="44.00870833333333" y="0" dx="0em" dy="0.95em" style="text-anchor: middle; visibility: inherit; font-family: Roboto, sans-serif; font-size: 12px; font-weight: 200;" fill="rgb(50, 49, 63)" stroke="none" stroke-width="1px">0</text><text x="88.01741666666666" y="0" dx="0em" dy="0.95em" style="text-anchor: middle; visibility: inherit; font-family: Roboto, sans-serif; font-size: 12px; font-weight: 200;" fill="rgb(50, 49, 63)" stroke="none" stroke-width="1px">5</text><text x="132.026125" y="0" dx="0em" dy="0.95em" style="text-anchor: middle; visibility: inherit; font-family: Roboto, sans-serif; font-size: 12px; font-weight: 200;" fill="rgb(50, 49, 63)" stroke="none" stroke-width="1px">10</text><text x="176.03483333333332" y="0" dx="0em" dy="0.95em" style="text-anchor: middle; visibility: inherit; font-family: Roboto, sans-serif; font-size: 12px; font-weight: 200;" fill="rgb(50, 49, 63)" stroke="none" stroke-width="1px">15</text><text x="220.0435416666667" y="0" dx="0em" dy="0.95em" style="text-anchor: middle; visibility: inherit; font-family: Roboto, sans-serif; font-size: 12px; font-weight: 200;" fill="rgb(50, 49, 63)" stroke="none" stroke-width="1px">20</text><text x="264.05225" y="0" dx="0em" dy="0.95em" style="text-anchor: middle; visibility: inherit; font-family: Roboto, sans-serif; font-size: 12px; font-weight: 200;" fill="rgb(50, 49, 63)" stroke="none" stroke-width="1px">25</text><text x="308.06095833333336" y="0" dx="0em" dy="0.95em" style="text-anchor: middle; visibility: inherit; font-family: Roboto, sans-serif; font-size: 12px; font-weight: 200;" fill="rgb(50, 49, 63)" stroke="none" stroke-width="1px">30</text><text x="352.06966666666665" y="0" dx="0em" dy="0.95em" style="text-anchor: middle; visibility: inherit; font-family: Roboto, sans-serif; font-size: 12px; font-weight: 200;" fill="rgb(50, 49, 63)" stroke="none" stroke-width="1px">35</text><text x="396.07837500000005" y="0" dx="0em" dy="0.95em" style="text-anchor: middle; visibility: inherit; font-family: Roboto, sans-serif; font-size: 12px; font-weight: 200;" fill="rgb(50, 49, 63)" stroke="none" stroke-width="1px">40</text><text x="440.0870833333334" y="0" dx="0em" dy="0.95em" style="text-anchor: middle; visibility: inherit; font-family: Roboto, sans-serif; font-size: 12px; font-weight: 200;" fill="rgb(50, 49, 63)" stroke="none" stroke-width="1px">45</text><text x="484.0957916666667" y="0" dx="0em" dy="0.95em" style="text-anchor: middle; visibility: inherit; font-family: Roboto, sans-serif; font-size: 12px; font-weight: 200;" fill="rgb(50, 49, 63)" stroke="none" stroke-width="1px">50</text><text x="528.1045" y="0" dx="0em" dy="0.95em" style="text-anchor: middle; visibility: hidden; font-family: Roboto, sans-serif; font-size: 12px; font-weight: 200;" fill="rgb(50, 49, 63)" stroke="none" stroke-width="1px">55</text></g><line x1="0" y1="0" x2="528.1045" y2="0" fill="rgb(0, 0, 0)" stroke="rgb(204, 204, 204)" stroke-width="1px"></line></g></g></g></g></svg>